<?xml version="1.0" standalone="no"?>
<svg xmlns:xlink="http://www.w3.org/1999/xlink" id="wave" style="transform:rotate(180deg); transition: 0.3s" viewBox="0 0 1440 490" version="1.1" xmlns="http://www.w3.org/2000/svg"><defs><linearGradient id="sw-gradient-0" x1="0" x2="0" y1="1" y2="0"><stop stop-color="rgba(243, 106, 62, 1)" offset="0%"/><stop stop-color="rgba(255, 179, 11, 1)" offset="100%"/></linearGradient></defs><path style="transform:translate(0, 0px); opacity:1" fill="url(#sw-gradient-0)" d="M0,294L60,261.3C120,229,240,163,360,187.8C480,212,600,327,720,334.8C840,343,960,245,1080,187.8C1200,131,1320,114,1440,130.7C1560,147,1680,196,1800,220.5C1920,245,2040,245,2160,212.3C2280,180,2400,114,2520,122.5C2640,131,2760,212,2880,204.2C3000,196,3120,98,3240,49C3360,0,3480,0,3600,16.3C3720,33,3840,65,3960,65.3C4080,65,4200,33,4320,49C4440,65,4560,131,4680,163.3C4800,196,4920,196,5040,228.7C5160,261,5280,327,5400,343C5520,359,5640,327,5760,310.3C5880,294,6000,294,6120,285.8C6240,278,6360,261,6480,261.3C6600,261,6720,278,6840,294C6960,310,7080,327,7200,351.2C7320,376,7440,408,7560,383.8C7680,359,7800,278,7920,253.2C8040,229,8160,261,8280,285.8C8400,310,8520,327,8580,334.8L8640,343L8640,490L8580,490C8520,490,8400,490,8280,490C8160,490,8040,490,7920,490C7800,490,7680,490,7560,490C7440,490,7320,490,7200,490C7080,490,6960,490,6840,490C6720,490,6600,490,6480,490C6360,490,6240,490,6120,490C6000,490,5880,490,5760,490C5640,490,5520,490,5400,490C5280,490,5160,490,5040,490C4920,490,4800,490,4680,490C4560,490,4440,490,4320,490C4200,490,4080,490,3960,490C3840,490,3720,490,3600,490C3480,490,3360,490,3240,490C3120,490,3000,490,2880,490C2760,490,2640,490,2520,490C2400,490,2280,490,2160,490C2040,490,1920,490,1800,490C1680,490,1560,490,1440,490C1320,490,1200,490,1080,490C960,490,840,490,720,490C600,490,480,490,360,490C240,490,120,490,60,490L0,490Z"/></svg>