<?xml version="1.0" standalone="no"?> <!DOCTYPE svg PUBLIC "-//W3C//DTD SVG 1.0//EN" "http://www.w3.org/TR/2001/REC-SVG-20010904/DTD/svg10.dtd" > <svg xmlns="http://www.w3.org/2000/svg" width="100%" height="100%">
<defs >
<font id="1626053183" horiz-adv-x="128" ><font-face
    font-family="HYXuSTJ"
    units-per-em="256"
    panose-1="2 1 5 9 6 1 1 1 1 1"
    ascent="267"
    descent="-68"
    alphabetic="0" />
<missing-glyph horiz-adv-x="256" d="M64 1V184H192V1H64ZM83 20H172V165H83V20Z" />
<glyph unicode="&#x0;" glyph-name="null" horiz-adv-x="100" />
<glyph unicode="&#x9;" glyph-name="null" horiz-adv-x="100" />
<glyph unicode="&#xa;" glyph-name="null" horiz-adv-x="100" />
<glyph unicode="&#xd;" glyph-name="null" horiz-adv-x="100" />
<glyph unicode=" " glyph-name="null" horiz-adv-x="96" />
<glyph unicode="!" glyph-name="null" horiz-adv-x="58" d="M29 165H41Q46 156 46 154T45 142T45 125T43 103T34 52H22Q24 88 25 104T26 139T29 165ZM10 5V18L22 21L34 18L30 10L34 5L32 -1Q17 -4 10 5Z" />
<glyph unicode="&quot;" glyph-name="null" horiz-adv-x="92" d="M71 159L78 154Q79 146 79 140L72 139L70 131Q64 126 58 130L57 133Q59 140 60 146L64 148V156L66 160L71 159ZM31 150L35 149Q36 146 38 141Q28 129 20 123Q15 125 11 129Q18 139 25 151L29 152L31 150Z" />
<glyph unicode="#" glyph-name="null" horiz-adv-x="146" d="M32 88T28 88T18 96Q22 101 23 101T43 106T107 118L106 102Q98 100 81 98T48 92ZM48 134L56 138L64 136Q56 95 53 76T45 30L38 35Q35 52 36 59T40 85T48 134ZM84 143L98 154L101 151Q100 140 96 117T86
66T77 25T69 2Q63 10 64 24T72 70T84 143ZM8 42L6 52Q11 58 23 60T46 64T67 69T88 72T116 71Q99 77 92 85Q99 84 111 81T138 71L137 61Q120 59 105 58T67 55T8 42Z" />
<glyph unicode="$" glyph-name="null" horiz-adv-x="105" d="M10 92Q7 107 10 116T13 128T22 137T33 145T47 148T60 150T70 136L64 132Q56 139 55 139T44 136T29 127T24 120T22 115T20 109T23 104Q44 101 56 97T82 85T96 73T98 60T95 41T88 31T73 26T46 21T30
20T9 37V51Q13 44 21 39T31 34T45 34T68 39T80 45T83 51T83 62T73 73T55 82T10 92ZM33 175T35 177T40 179T45 176T48 159T56 129L51 127Q50 88 52 49T56 5T58 -2T55 -13L44 -12Q40 2 39 43T36 112T34 158Z" />
<glyph unicode="%" glyph-name="null" horiz-adv-x="138" d="M8 -1L4 4Q7 12 28 41T110 159L120 152Q63 62 40 32T8 -1ZM19 121T19 123T29 132T51 141T66 142T69 139T71 135T72 126T67 113T56 101T50 96T58 93T75 90T90 85Q86 82 75 82T48 84T27 93T19 100T18
111ZM34 121T33 120T38 101Q44 106 49 110T57 118T60 126T60 131T54 131T41 126ZM98 90L105 91Q106 84 107 84T126 84L131 78Q133 67 124 58T104 42T92 36T85 40T78 45T76 52T76 60T98 90ZM102 75L91 66Q92 53 92 53T99 54T120 72L102 75Z" />
<glyph unicode="&amp;" glyph-name="null" horiz-adv-x="134" d="M16 131T16 134T21 144T28 152T37 156T45 160T53 158T61 155T66 149T73 141T73 120T58 73L72 56Q88 97 96 110T108 129L112 122Q112 116 105 101T90 67T83 46T90 37T106 23T124 11L120 2Q114 3
101 9T82 24T76 31T73 25T67 15T52 5T36 1T29 6T21 12T15 19T15 32T19 47T27 59T34 69T35 77T28 92T19 118ZM48 148T46 147T40 144T33 137T30 130T31 121T39 98T47 83T53 99T59 125T59 137T53 144ZM48 65Q40 56 37 50T31 40T30 28T36 18T50 20T64 39Q56 54 48 65Z"
/>
<glyph unicode="&apos;" glyph-name="null" horiz-adv-x="74" d="M46 172L53 164Q46 140 36 116L29 114L24 118Q27 133 29 138T32 148T34 168L43 172H46V172Z" />
<glyph unicode="(" glyph-name="null" horiz-adv-x="79" d="M51 152Q55 153 63 150Q55 141 52 136T43 122T36 104T32 88T30 69Q32 56 37 44T50 20T64 3L63 -3Q59 -7 57 -6Q52 -3 49 -1T37 13T23 40T17 69Q17 77 18 86T22 107T31 127T40 141T51 152Z" />
<glyph unicode=")" glyph-name="null" horiz-adv-x="70" d="M19 152Q25 150 30 146Q44 135 49 115T54 79T49 49T38 20T23 -4Q17 -7 13 -5L11 0Q17 9 24 24T36 53T41 79T39 108T22 138L14 145Q16 148 19 152Z" />
<glyph unicode="*" glyph-name="null" horiz-adv-x="100" d="M17 116L12 124L20 130L86 101L82 92Q70 92 17 116ZM46 154T47 159T54 166Q56 156 56 138T53 67L45 62L39 71Q45 118 45 136ZM20 73L8 78Q37 108 50 121T65 136T73 143L79 130Q73 126 61 114T20 73Z" />
<glyph unicode="+" glyph-name="null" horiz-adv-x="112" d="M8 68V81Q47 86 86 97Q85 102 84 108Q87 106 100 103L102 92Q94 85 74 79T8 68ZM47 121L52 128L60 121Q63 80 64 57T60 30H51Q51 39 51 57T47 121Z" />
<glyph unicode="," glyph-name="null" horiz-adv-x="64" d="M23 5T23 6T23 14T23 21T28 25T33 27T36 25T40 23T42 18T43 12T38 6T24 -12H15Q23 5 23 6Z" />
<glyph unicode="-" glyph-name="null" horiz-adv-x="92" d="M26 78T24 78T14 85L18 93Q25 92 35 91T57 91T75 92L74 81Q68 80 57 79T36 78Z" />
<glyph unicode="." glyph-name="null" horiz-adv-x="59" d="M14 18T15 19T20 24T25 27T28 28T41 22L39 14Q32 6 32 6T23 12Z" />
<glyph unicode="/" glyph-name="null" horiz-adv-x="125" d="M109 157L112 152L113 146L111 142Q93 114 74 81Q48 34 26 2Q17 1 13 3Q10 8 13 12L20 18Q29 32 37 46L43 55Q55 76 63 89Q82 123 103 157H109Z" />
<glyph unicode="0" glyph-name="null" horiz-adv-x="106" d="M26 130T35 139T48 150T53 152T58 152T62 152T67 150T77 147T85 143T92 129T95 100T83 61T66 25T50 6T36 2T24 6T14 14T10 38T13 83T20 117T25 128ZM56 138T55 137T50 131T45 124T36 118Q31 108 27
82T23 42T24 25T26 21T31 19T42 21T54 37T68 66T78 98T78 122T75 131T71 134T62 137Z" />
<glyph unicode="1" glyph-name="null" horiz-adv-x="84" d="M59 150Q58 137 55 114T48 51T43 2H36Q28 10 27 12T30 53T38 117T48 153L59 150Z" />
<glyph unicode="2" glyph-name="null" horiz-adv-x="113" d="M40 136L38 146Q51 154 55 154T65 153T74 150T81 148T87 135T87 108T72 76T53 47T40 29T35 24T39 23T57 25T80 26T101 21L94 7Q88 9 79 9T58 9T37 7T23 5T16 4T12 7T13 17T23 33T40 55T59 84T70 112T73
131T65 138T57 140T40 136Z" />
<glyph unicode="3" glyph-name="null" horiz-adv-x="105" d="M33 136T32 136T30 141T28 145T35 150T42 154T48 154T54 154T59 149T65 144T68 137T68 124T58 110T42 94Q54 98 62 98T78 95T87 89T92 83T90 65T74 42T51 20T31 5T18 0L12 8Q18 12 24 17T40 33T59 52T71
66T76 75T76 79T72 81T62 83T47 80T20 74L14 83Q26 96 33 104T45 119T53 130Q55 135 54 135T50 137T44 138T37 137Z" />
<glyph unicode="4" glyph-name="null" horiz-adv-x="117" d="M38 153L45 148Q39 132 36 121T29 98T23 79T21 71T23 67T26 64T32 64T53 70T90 90Q86 97 80 104T71 116Q76 115 85 110T98 102T104 97T106 89T104 82T90 71T59 54T32 47T17 50T10 55T8 65T9 81T13 104T21
130T38 153ZM62 143T63 144T67 147T71 148T74 138T75 123T74 114T72 108T70 97T65 67T61 46T61 39T59 27T53 -1L44 4Q43 16 44 29T49 63T56 103T60 132Z" />
<glyph unicode="5" glyph-name="null" horiz-adv-x="101" d="M33 158L41 156Q39 143 39 143T48 144T67 147T80 149T82 143T80 137T70 135T51 132T38 126L30 104Q42 106 56 105T79 94T88 72T80 44T59 19T37 6T21 3T13 4T7 10L12 21Q17 17 22 17T33 18T47 27T61
44T71 66T68 85T53 92T43 93T34 91T13 88Q15 100 19 117T33 158Z" />
<glyph unicode="6" glyph-name="null" horiz-adv-x="101" d="M53 154L62 153L63 145Q54 131 49 122T39 97T30 69Q44 76 53 76T71 73T81 68T86 60T90 51T86 39T76 23T59 10T39 3T22 7T14 12T11 22T10 45T15 71T25 101T37 131T53 154ZM35 55T34 54T31 47T23 42Q21
30 28 20Q37 16 38 16T48 21T58 26T63 33T70 43T74 50T72 54T70 59T60 61T43 59Z" />
<glyph unicode="7" glyph-name="null" horiz-adv-x="106" d="M11 129L9 140Q18 142 30 145T59 150T78 153T94 150V142Q85 139 85 138T79 128T64 96T49 55T39 14L42 8L33 3L26 9Q25 20 27 31T35 60T47 97T64 136Q45 132 33 131T11 129Z" />
<glyph unicode="8" glyph-name="null" horiz-adv-x="106" d="M31 112T31 120T36 136T42 146T59 153L67 152L81 144Q85 133 85 131T79 113H69Q73 127 73 129T71 138L65 141Q55 136 48 124Q49 115 49 114T54 106T72 91T91 67T90 38T67 13T38 3T16 11T10 34T18 62T35
83T56 97T83 105L87 96Q72 92 63 85T46 72T33 58T26 41T29 19Q49 15 58 22T74 41T77 61T62 80T41 101Z" />
<glyph unicode="9" glyph-name="null" horiz-adv-x="97" d="M52 88Q39 89 30 92T19 98T15 108T13 120T19 132T26 142T37 148T48 152T58 151T67 149T77 141T87 121T84 102T75 90T67 65T62 30T62 6L55 1L48 7Q47 13 48 30T50 55T54 78Q47 74 35 72T17 71T7 76L9
84Q12 81 17 81T33 83T52 88ZM53 140T52 140T44 136T32 127T27 116T36 105T64 99Q71 109 71 113T71 123T70 129T61 135Z" />
<glyph unicode=":" glyph-name="null" horiz-adv-x="60" d="M18 70T18 71T21 77T25 82T33 81T39 78T40 71T40 64T35 60T26 59T21 65ZM15 19Q24 33 25 33T34 30T41 24T41 17T38 11T29 10T15 19Z" />
<glyph unicode=";" glyph-name="null" horiz-adv-x="54" d="M22 62T21 62T20 69T20 76T25 80T31 82T36 78T41 72T39 65T34 59T28 60ZM22 14Q18 17 18 17T17 22T17 28T25 34Q36 33 37 32T40 24T41 16T34 7T27 -1T21 -4T10 -7Q12 -3 15 1T22 14Z" />
<glyph unicode="&lt;" glyph-name="null" horiz-adv-x="97" d="M16 70T15 71T13 76T13 81T18 85T31 96T47 114T56 126T70 125Q68 116 66 114T58 105T31 78Q48 66 57 60T67 53T72 52T78 50T80 44T81 40T77 37T72 34T65 34T51 45T29 62Z" />
<glyph unicode="=" glyph-name="null" horiz-adv-x="111" d="M29 88T26 88T17 91L16 100Q25 101 35 102T56 106T74 110T82 112T87 107T91 100T87 96T82 93T75 93T67 94T57 93T39 89ZM24 59T23 59T14 64V70Q16 75 18 75T31 75T55 76T70 79T81 80T91 79T95 68Q90
63 74 66Q48 60 36 60Z" />
<glyph unicode="&gt;" glyph-name="null" horiz-adv-x="100" d="M18 113T17 115T16 122T18 126T23 127T40 121T66 110T86 102L87 93Q80 85 72 77T48 51T30 32T19 31L17 39Q25 46 37 61T57 83T64 93T56 98T33 107Z" />
<glyph unicode="?" glyph-name="null" horiz-adv-x="94" d="M20 122L8 125Q13 144 20 149T42 159T68 157T83 138T83 119T74 108T53 88Q53 67 48 48H39Q36 70 37 81T40 96T49 106T62 120T68 134T63 143T48 145T31 140T20 122ZM30 12T29 17T41 30L51 29Q58 18 57
13T49 6T37 8Z" />
<glyph unicode="@" glyph-name="null" horiz-adv-x="152" d="M16 96T22 106T42 128T67 143T83 147T96 150T104 149T115 145T132 128T139 89T133 52T117 38T95 40L92 51Q86 44 79 38T69 32T61 32T52 33T45 40T41 61T50 92T66 114T75 120T82 121T90 122T95 117T100
111T101 105T104 95T107 86T105 76T104 62T103 53T109 49Q116 52 117 52T122 60T126 88T120 119T108 133T101 137T95 135T77 131T52 115T36 97T28 78T24 57T30 34T50 17T78 13T113 24L119 18Q97 5 81 4T47 4T19 21T9 54T13 84ZM83 111T83 111T78 106T66 89T57 65T56
51T56 47T59 46T63 46T71 52T84 65T90 74T91 83T90 94T86 105Z" />
<glyph unicode="A" glyph-name="null" horiz-adv-x="106" d="M59 153T60 155T62 158T68 158T74 156T76 145T80 116T82 97T86 95T92 94T94 89T90 85T86 84T86 72T95 8L83 1Q65 12 63 13T52 24T28 62L33 67Q54 41 62 33T71 24T80 16Q74 61 73 69T72 79T64 79T48
73T33 68T12 65L7 73Q24 79 38 83T70 93L65 127Q55 112 50 101T38 72T16 21L9 29Q16 61 23 79T37 109T51 137Z" />
<glyph unicode="B" glyph-name="null" horiz-adv-x="115" d="M24 108T24 109T30 119L40 115Q36 99 34 79Q44 86 54 98T70 121T72 135T67 140T62 142T50 143T32 138L31 149Q39 154 47 156T56 158T66 157T75 154T82 147T89 132T83 113T61 88Q70 90 79 89T94 81T101
74T102 65T95 44T76 20T52 6T34 2T28 1T20 3L18 10Q24 19 25 19T32 17T47 19T64 29T78 48T86 64T87 70T83 73T74 75T57 74T36 64Q32 40 34 33L26 24L18 28Q20 40 20 56T21 85T23 103Z" />
<glyph unicode="C" glyph-name="null" horiz-adv-x="117" d="M51 151T52 152T58 155T64 157T71 158T77 156T78 147T76 136T69 127Q69 130 69 135T69 141T67 143T64 142T57 133T45 110T32 76T27 48T31 27T47 17T73 30T91 48T95 53T104 54Q105 46 105 45T100 37T81
17T48 1T22 11T12 38T16 75T30 114T45 142Z" />
<glyph unicode="D" glyph-name="null" horiz-adv-x="118" d="M23 144T23 145T31 152T43 158T57 157T81 146T101 119T107 92T96 68T76 42T55 20T35 7T23 2T12 4L11 12Q19 14 27 19T45 33T63 51T79 72T88 95T85 118T71 135T54 140T37 134Q34 94 28 28L16 32Q18 100 20 122Z" />
<glyph unicode="E" glyph-name="null" horiz-adv-x="118" d="M53 143Q45 139 37 137T16 136Q19 140 23 143T28 147T36 151T52 156T69 158T85 156L87 147Q78 145 73 143T62 130T53 112T44 89Q62 92 72 92T91 91L88 86L90 79Q83 78 73 78T55 76T43 70T37 62T31 47T26
30T25 22T25 18T27 16T35 16T57 16T90 23L91 26Q87 28 79 32T64 46Q73 46 85 41T102 32T107 23T107 17T104 12T87 5T60 1T35 -1T19 2T12 6T11 13T10 21T13 31T19 50T22 67T24 78T29 86T34 100T41 119T53 143Z" />
<glyph unicode="F" glyph-name="null" horiz-adv-x="107" d="M10 128T9 131T8 139T18 147Q17 142 18 142T30 143T52 150T80 161L87 156Q87 150 86 149T79 143T62 130T49 120T46 88Q48 90 48 90T57 94T74 99T83 102T97 101V90Q88 88 80 87T63 82T52 79T44 80Q44
58 43 34T37 0H28Q26 11 26 13T28 37T29 70T30 97T30 114T30 119T33 122T46 134Q39 130 30 128T15 127Z" />
<glyph unicode="G" glyph-name="null" horiz-adv-x="121" d="M10 52T15 67T29 101T48 134T66 157H76L84 148L86 136L81 133Q74 142 73 142T70 138T61 125T45 96T31 66T26 45T29 26T42 20T57 28T67 45T73 65Q52 58 46 58V67Q54 71 69 77T92 86T109 93L112 80Q108
76 102 72Q101 40 101 27T94 2L85 4Q86 10 87 22T88 73Q84 51 81 39T69 17T44 5T19 12T9 37Z" />
<glyph unicode="H" glyph-name="null" horiz-adv-x="113" d="M24 140L32 133Q34 122 33 100T30 63T28 24L32 28L36 18L24 10Q16 14 15 16T14 33T15 66T16 105T24 140ZM14 66L8 78Q10 82 23 91T50 104T80 110V96Q68 93 55 89T33 80T14 66ZM85 155T90 159L100 160Q100
151 100 127T101 74T99 27T96 2Q90 4 87 6T83 9T75 19T58 54L66 52Q78 38 82 30Q84 44 84 74T84 129Z" />
<glyph unicode="I" glyph-name="null" horiz-adv-x="96" d="M25 130L20 136L21 143Q33 146 41 148T57 152T72 159L80 160L82 146Q71 140 69 139T64 116T57 73T50 25Q64 26 72 23T85 11L80 1Q74 4 70 7T55 10T33 7T9 3L8 17Q17 20 34 22Q39 54 42 72T50 133Q36
130 25 130Z" />
<glyph unicode="J" glyph-name="null" horiz-adv-x="105" d="M21 135T20 135T9 142L15 152Q20 148 28 148T48 148T67 153T86 160L96 158L94 150Q82 140 73 132Q68 123 67 118T66 110T65 83T63 42T63 18T63 1L56 0Q45 3 37 7T22 18T12 35Q20 31 27 27T49 20Q48
60 49 85T50 119T50 129T55 131T64 137Q40 132 31 133Z" />
<glyph unicode="K" glyph-name="null" horiz-adv-x="127" d="M33 158L45 156Q43 129 41 103T37 57T35 22L40 11L35 2L21 6Q20 13 20 23T23 56T26 107T33 158ZM44 67T43 71T42 78T53 94T75 123T90 142T100 146Q102 135 102 134T88 116T66 89T57 76T70 64T115 34L107
24Q78 42 61 54Z" />
<glyph unicode="L" glyph-name="null" horiz-adv-x="112" d="M34 155T38 161Q46 153 46 151T44 128T37 79T26 19Q58 23 75 24T103 26L102 10Q92 10 75 10T42 7T16 3Q10 8 10 10T13 32T21 81T30 132Z" />
<glyph unicode="M" glyph-name="null" horiz-adv-x="148" d="M17 18L10 15Q8 21 8 23T12 51T22 104T32 141T40 156T45 161T48 157T52 146T58 121T67 75T76 31Q84 64 87 84T94 126T101 155L112 156Q116 148 118 142T123 121T127 83T134 38T136 9L126 7Q124 15 121
33T116 74T108 128Q104 102 100 80T91 36T78 2Q72 6 71 8T64 25T53 66T47 97T42 128Q39 115 35 93T17 18Z" />
<glyph unicode="N" glyph-name="null" horiz-adv-x="130" d="M19 138T19 139T23 143T27 146T43 137Q52 113 58 91T69 51T77 27T83 19Q87 33 89 50T94 88T99 128T103 159L111 160Q118 156 119 156T119 147T115 123T109 88T104 45T91 5L82 1Q75 5 73 7T67 17T61
32T55 51T47 80T35 121Q29 104 29 85T24 46T19 17L8 22Q8 33 10 49T13 86T17 122Z" />
<glyph unicode="O" glyph-name="null" horiz-adv-x="120" d="M33 142T33 144T39 152T46 159T62 160T85 152T102 126T108 84T93 43T78 20T72 14T60 6T43 0T23 8T13 33T12 75T18 113T27 134ZM59 145T58 144T51 139T45 134T43 126T40 117T36 113T33 111T32 104T29
77T27 42T32 18Q45 14 46 15T55 22T68 35T82 55T93 87T90 120T82 135T78 139T67 143Z" />
<glyph unicode="P" glyph-name="null" horiz-adv-x="115" d="M19 133T19 135T30 145Q35 135 35 134T33 117T30 71Q50 73 64 78T83 98T83 123T68 140T52 146T35 145L31 152Q39 159 40 159T53 159T74 155T92 141T102 121T98 94T74 66T30 56Q28 36 28 24T28 5L24
-1L15 1Q14 10 14 23T14 51T16 85T18 118Z" />
<glyph unicode="Q" glyph-name="null" horiz-adv-x="136" d="M20 104T25 115T31 131T34 139T43 149T56 157T65 159T76 157T86 155T96 143T107 111T105 69T89 34T66 11T42 2T22 12T12 48T16 89ZM58 142V135Q49 132 49 131T45 125T38 111T30 86T26 52T30 26T35 18T43
18T59 26T76 44T89 73T93 108T87 131T83 138T74 144L68 145L58 142ZM72 53L77 60Q98 43 107 32T123 15L124 4L120 2Q113 6 102 15L101 21Q90 33 72 53Z" />
<glyph unicode="R" glyph-name="null" horiz-adv-x="133" d="M23 136T23 138T32 147T51 156T65 160T73 158T81 156T88 149T95 132T88 107T73 83T54 61Q66 60 80 49T106 27T124 12L123 3Q117 3 111 6Q85 30 73 38T53 48T45 48T32 43Q32 25 32 17T32 7T28 2L19 1Q18
10 19 16T19 36L15 37L12 43Q19 52 19 54T19 74T21 114ZM40 136T39 134T36 114T32 60H34Q42 70 49 78T62 95T72 112T79 127T81 135T77 140T69 145T57 145T45 140Z" />
<glyph unicode="S" glyph-name="null" horiz-adv-x="111" d="M28 110T29 117T36 132T46 145T53 152T59 155T69 159T78 157T92 137L89 124Q86 128 79 139Q72 144 71 144T65 141T56 133T49 125T45 109Q65 95 79 83T97 60T99 36T86 17T65 6T39 2T18 6T9 19T8 33T27
44Q24 38 24 33T25 23T28 17T39 16T59 20T74 28T81 40T81 55T66 73T44 91T31 104Z" />
<glyph unicode="T" glyph-name="null" horiz-adv-x="133" d="M12 140L11 153Q30 152 48 153T79 157T102 160T119 161L120 148Q113 146 106 142T92 133T79 123Q76 108 74 91T69 47T66 17T66 2L54 0Q48 8 46 14V26L52 22Q57 74 58 93T64 139L72 135L82 144Q67 142
50 141T12 140Z" />
<glyph unicode="U" glyph-name="null" horiz-adv-x="135" d="M21 153L27 157L34 152Q36 132 36 114T35 75T36 40T47 21T67 16T81 21T87 30T89 41T91 47T93 60T95 87T96 120T96 159L106 160Q112 155 112 148T111 121T109 84T108 47T115 20T117 10T110 8T100 14Q90
5 77 3T55 1T38 8T27 18T22 37T20 73T21 112T21 153Z" />
<glyph unicode="V" glyph-name="null" horiz-adv-x="131" d="M11 140T11 142T14 150Q23 148 24 147T29 132T40 93T53 31Q65 61 71 81T88 122T109 155L117 157L120 148Q110 127 102 110T86 72T72 34T60 1L53 0Q45 11 39 35T27 84T16 124Z" />
<glyph unicode="W" glyph-name="null" horiz-adv-x="147" d="M10 145L22 148Q28 105 33 79T42 23Q52 60 55 78T64 118T74 141T82 142T89 127T96 89T104 38Q109 66 113 83T121 129T127 157T132 158T137 160T138 156T134 126T126 79T117 39T111 18T103 16T95 19T90
40T83 81T77 115Q73 94 70 77T60 36T49 0L35 1Q31 15 28 29T20 73T10 145Z" />
<glyph unicode="X" glyph-name="null" horiz-adv-x="119" d="M8 146T7 152Q14 158 15 158T19 154T37 127T68 75T106 12L96 3Q74 37 57 66T24 121ZM16 7L8 18Q32 55 52 83T87 140H98L102 134Q97 126 90 115T62 73T16 7Z" />
<glyph unicode="Y" glyph-name="null" horiz-adv-x="130" d="M9 140L16 148Q22 140 30 133T50 116Q57 116 58 117T69 126T93 146T108 159T114 159T120 154T107 140T70 108Q72 104 71 101T66 86T59 57T56 27T54 3Q48 0 47 0T44 4T41 11T40 28T44 59T48 86T44 101T33
112T18 127T9 140Z" />
<glyph unicode="Z" glyph-name="null" horiz-adv-x="132" d="M34 141L30 146L33 158Q40 154 46 153T63 152T98 160L110 150Q102 134 89 115T60 71T29 16Q56 14 99 19Q94 30 83 38L87 42Q99 39 102 37T116 23L123 6Q110 3 83 2T39 1T8 3Q16 21 24 37T48 77T86 141Q74
138 63 138T34 141Z" />
<glyph unicode="[" glyph-name="null" horiz-adv-x="75" d="M16 146T17 147T20 152T23 154T26 152T40 156T55 159T62 154Q59 146 58 146T44 144T31 142T29 125T28 79T29 23T29 -4T38 -4T61 -2Q62 -10 62 -10T58 -16Q44 -17 31 -18T15 -18T12 -10T12 -1T15 4T15
27T16 78T16 126Z" />
<glyph unicode="\" glyph-name="null" horiz-adv-x="131" d="M14 147T9 153Q12 158 13 158T21 160Q26 152 36 134T66 81T98 24T112 1T117 -4T120 -12T114 -17T106 -15T89 12T57 67T27 123Z" />
<glyph unicode="]" glyph-name="null" horiz-adv-x="82" d="M22 142T14 143L16 153Q22 153 29 154T46 157T57 159T64 159T70 156T69 147T65 140T63 114T62 56T60 7T57 -17L51 -18Q48 -16 47 -16T37 -15T19 -16T8 -14T7 -9T11 -5T20 -4T36 -3T46 -1T47 11T48 53T50
113T50 143T45 144T31 142Z" />
<glyph unicode="^" glyph-name="null" horiz-adv-x="84" d="M24 130T22 128T10 129V136Q25 149 33 154T43 160T49 160T56 154T66 145T74 140T73 132T68 127T60 132T50 141T45 146T39 142T29 134Z" />
<glyph unicode="_" glyph-name="null" horiz-adv-x="104" d="M19 -22T17 -23T13 -19T12 -12T25 -9T56 -5T86 1L92 -6L88 -15Q81 -18 79 -18T58 -18T29 -20Z" />
<glyph unicode="`" glyph-name="null" horiz-adv-x="56" d="M11 151L9 160L16 161Q27 158 37 156L44 150L45 140Q37 138 36 138T28 143T11 151Z" />
<glyph unicode="a" glyph-name="null" horiz-adv-x="105" d="M18 54T21 65T31 86T45 99T55 102T62 99T68 93T68 85T65 74L59 68Q58 76 55 84L47 85Q37 74 34 61T30 41T28 27T30 19T39 24T51 41T62 62T68 80L76 78Q77 74 77 64T76 48T76 36T81 21H86L91 28L98 26Q98
12 92 9T80 7T70 16T64 40Q56 20 50 13T37 4T28 3T22 7T16 11T14 23T16 44Z" />
<glyph unicode="b" glyph-name="null" horiz-adv-x="100" d="M22 151T22 154T25 159T31 156T35 143T35 116T33 84Q49 98 62 99T84 94T91 71T85 46T71 25T53 10T26 1V11Q40 17 46 22T59 34T70 48T76 62T78 72T76 79T72 85T61 84T44 76T33 62T29 44T24 16L17 15Q14
26 14 32T14 49T17 64T20 83T22 115T22 141Z" />
<glyph unicode="c" glyph-name="null" horiz-adv-x="95" d="M14 50T21 64T37 87T46 96T55 99T63 102T78 96L76 82L70 79Q64 87 63 87T57 85T46 73T34 54T27 28L29 18Q41 17 49 20T62 26T69 30T82 32V22Q64 8 52 6T33 4T23 8T18 11T14 19T12 38Z" />
<glyph unicode="d" glyph-name="null" horiz-adv-x="104" d="M28 2T27 2T20 6T13 20T13 45T23 74T41 93T61 99T78 89Q77 107 77 128T78 153T80 159T84 161T87 157T91 130T92 89T89 54T87 8L74 12Q75 33 77 55Q73 38 67 29T53 12T36 3ZM56 88T48 83T35 66T27 43T26
18Q31 16 32 16T36 17T46 26T58 39T66 57T69 74T62 84Z" />
<glyph unicode="e" glyph-name="null" horiz-adv-x="110" d="M18 68T23 77T41 97L55 102Q70 102 72 101T86 90Q88 80 88 78T87 71T86 64T78 54T58 39T25 34Q29 23 38 20T60 18T91 32L101 30L98 20Q81 7 64 5T33 6T15 25T14 54ZM56 88Q48 85 45 80T36 70T26 51Q31
48 36 49T50 52T61 56T68 63T73 70T74 82Q68 88 68 88T56 88Z" />
<glyph unicode="f" glyph-name="null" horiz-adv-x="97" d="M56 152T63 155T81 159Q85 153 85 149T86 140Q82 144 75 146Q67 141 62 130T55 102T54 67T58 28T58 0T52 -11T44 -13T37 -8T30 3Q35 2 38 1T42 1T43 10T42 33T39 67T39 106T49 138ZM8 77L7 90Q40 101
86 103L87 93Q40 82 8 77Z" />
<glyph unicode="g" glyph-name="null" horiz-adv-x="97" d="M43 93T44 94T52 98T59 101T68 101T76 99T82 86T86 67T81 51T74 39T70 33T68 19T66 -9T63 -38T47 -70Q32 -70 31 -70T12 -61L17 -54L31 -55L41 -53Q45 -46 47 -34T51 -11T54 22Q49 13 42 9T32 3T16 6Q9
16 9 27T19 58T36 85ZM61 89Q50 81 49 80T43 73T31 51T23 30T22 23T26 16Q31 14 34 18T43 28T52 36T56 40T59 48T61 57T64 58T67 58T70 62T71 75L66 88L61 89Z" />
<glyph unicode="h" glyph-name="null" horiz-adv-x="118" d="M25 131T25 133T25 142T30 160L39 156Q40 149 39 141T36 108T31 59Q37 73 46 83T66 98T84 102Q87 96 86 85T84 60T83 36T89 22T100 17T114 20Q114 9 105 6T86 6T74 16T70 33T69 59T73 87Q62 80 56 71T42
51T31 30T21 6L14 9Q13 20 14 32T18 64T22 107Z" />
<glyph unicode="i" glyph-name="null" horiz-adv-x="75" d="M34 144T34 150T41 158T54 159T59 149T56 140T44 138T35 142ZM7 73L8 78L15 80Q23 82 30 88T43 98T54 105L59 101Q57 97 56 92T52 75T48 53T45 32T43 17H48Q54 27 57 34L65 26Q64 19 53 4H37L28 10Q30
25 31 35T33 55T37 76Q27 69 16 66L7 73Z" />
<glyph unicode="j" glyph-name="null" horiz-adv-x="77" d="M45 148T45 148T47 154T52 159T58 159T66 153T67 141T64 135T49 132Q45 148 45 148ZM7 68L6 77Q18 77 26 82T39 91T44 96T46 99T48 103T51 107H54L63 98Q63 94 63 88T62 68T57 36T51 -12T40 -70L18 -68L11
-56Q19 -57 28 -57Q36 -37 38 -9T43 38T45 80Q40 74 32 70T22 65T7 68Z" />
<glyph unicode="k" glyph-name="null" horiz-adv-x="120" d="M19 138T19 139T18 144T24 158L32 155Q36 148 34 143T33 90Q45 97 50 98T59 100T72 98T83 83T78 64T59 46Q64 40 70 31T86 18T113 12L114 4Q96 2 85 4T70 10T60 21T48 34Q45 39 44 39T36 38T29 35T29
29T29 14T28 2L17 0Q17 8 17 10T16 21T16 40T16 61T18 80T19 113ZM34 76Q31 62 30 52L35 50Q45 52 46 53T53 60T65 73T70 81T60 90Q49 82 34 76Z" />
<glyph unicode="l" glyph-name="null" horiz-adv-x="54" d="M24 140T24 141T26 160L37 159Q40 140 39 118T35 73T28 3L16 12Q18 52 20 74T23 118Z" />
<glyph unicode="m" glyph-name="null" horiz-adv-x="148" d="M8 88L9 99Q13 99 19 99T31 94T39 76Q46 90 48 93T52 97T64 97Q73 92 74 86T76 72T76 54Q84 72 89 83T101 104L112 100Q114 85 114 69T118 34L121 32Q128 33 134 39T145 50Q143 40 139 32T127 21T114
17T105 32T103 82Q95 67 91 55T83 34T76 22T65 26Q65 45 65 53T63 69T61 82L57 83Q54 78 50 72T44 52T38 4L26 5Q30 38 30 52T27 73T22 83T8 88Z" />
<glyph unicode="n" glyph-name="null" horiz-adv-x="117" d="M14 78T14 78T9 73L7 78L11 89L27 87Q35 77 33 61Q44 72 49 81T61 95T78 104L85 94Q86 77 84 64T80 27L85 18Q98 23 101 27T112 36Q112 28 108 20T97 9T86 5T70 15L66 25Q68 47 70 60T72 78T71 83T66
80T57 69T46 55T38 35T29 4H20Q21 22 21 33T22 48T22 60T20 70T17 75Z" />
<glyph unicode="o" glyph-name="null" horiz-adv-x="100" d="M14 70T15 73T25 84T44 98T56 103T71 100T88 84T87 52T73 20T54 6T34 7T18 27T13 56ZM59 89T58 89T49 85T37 76T30 69T26 57Q28 43 30 35T38 22T49 20T60 29T71 52T71 85Q59 89 58 89Z" />
<glyph unicode="p" glyph-name="null" horiz-adv-x="110" d="M20 62T8 64L7 73Q19 75 23 78T28 83T30 90T33 97T37 100T42 100T48 93Q66 102 76 102T96 93T102 72T89 47T69 26T39 4Q36 -13 35 -32T32 -69L22 -70Q17 -59 11 -49L13 -41L19 -42Q22 -10 25 7L17 19Q25
29 25 31T29 64Q20 62 8 64ZM47 76Q43 66 39 36V21Q54 31 62 39T76 54T85 69T85 81T74 86T47 76Z" />
<glyph unicode="q" glyph-name="null" horiz-adv-x="101" d="M21 16L10 20Q10 45 17 56T29 77T35 89T43 93T52 97T63 97T80 92T90 79T87 57T78 34T71 13T64 -14T59 -49L61 -50Q66 -38 67 -33T73 -20Q74 -26 74 -34T71 -52T56 -72L51 -70Q47 -56 47 -45T54 1Q47
-6 38 -9T12 -12L11 -4Q28 -1 35 2T54 15Q37 14 21 16ZM47 76T41 68T31 51T25 30L30 29Q39 29 44 29T53 31T58 34T64 35Q75 68 74 76Q67 83 55 81Q47 76 41 68Z" />
<glyph unicode="r" glyph-name="null" horiz-adv-x="118" d="M7 88L10 100Q22 102 25 102T32 97T42 76Q47 84 55 91T72 101T89 105T109 103L111 94L105 85Q97 90 91 90T77 87T63 78T54 67T50 58T49 45T46 26T43 4L33 3Q31 9 30 12T30 26T31 46T30 61T26 75T19 88H7Z" />
<glyph unicode="s" glyph-name="null" horiz-adv-x="90" d="M29 59T28 60T25 68T25 77T29 87T39 97T62 101L77 94Q81 81 81 79T78 77T66 86L61 87Q50 86 47 82T40 68Q52 56 61 49T71 41T75 35T78 22T66 10T43 4T11 12L10 17Q13 23 21 33Q20 26 21 23L24 20Q34
18 42 18T60 24L62 30Q55 36 50 41T37 53Z" />
<glyph unicode="t" glyph-name="null" horiz-adv-x="118" d="M17 70T9 72L8 79Q16 82 24 84T55 95T80 104T108 106V99Q85 89 60 80T26 71ZM52 140T53 143T57 152H61Q67 143 67 141T66 123T61 84T55 48T56 21L62 20Q71 25 80 35L85 28Q80 16 75 10T62 4T49 5T40
18T39 44T44 84T50 124Z" />
<glyph unicode="u" glyph-name="null" horiz-adv-x="121" d="M21 82T26 86L33 77Q29 56 26 27L27 20L39 29Q49 42 58 54T67 67T73 78T79 91T85 98T91 100T93 93T89 76T82 51T79 29T85 18T91 16T112 23L109 13Q97 4 91 4T70 10Q63 30 67 40Q59 29 53 22T33 5L21
6L12 20Q13 54 17 68Z" />
<glyph unicode="v" glyph-name="null" horiz-adv-x="103" d="M8 84L19 88Q35 52 41 23L45 22Q53 34 60 48T79 91L75 96L81 103L94 99Q92 88 87 73T73 40T60 16T49 4H39Q28 13 24 29T8 84Z" />
<glyph unicode="w" glyph-name="null" horiz-adv-x="140" d="M8 90L15 97L24 95Q28 58 35 28Q42 42 49 62T65 99L77 95Q82 78 82 62T87 22Q94 30 94 31T98 43T108 67T123 98L130 93Q133 88 133 84T129 76T121 60T112 36T102 17T92 4L82 3Q73 11 72 27T68 65L66
71Q60 44 53 31T41 11L32 5Q25 13 23 17T19 39T8 90Z" />
<glyph unicode="x" glyph-name="null" horiz-adv-x="112" d="M10 81L14 92Q38 88 51 76T72 49T81 33T88 29T97 24T102 16L100 6L90 4Q84 10 78 17T62 39T42 63T30 74T10 81ZM16 3L9 9Q26 22 41 40T67 74T90 106L100 99Q92 81 79 64T53 30T36 10T16 3Z" />
<glyph unicode="y" glyph-name="null" horiz-adv-x="104" d="M7 80L12 86Q28 71 45 47Q59 55 61 58T70 76T78 92T85 99L97 93Q91 84 83 69T64 32T46 -4T33 -34T26 -52T25 -59T21 -68T14 -70T9 -63T11 -51T19 -30T31 -1T48 33L38 32Q17 62 7 80Z" />
<glyph unicode="z" glyph-name="null" horiz-adv-x="116" d="M27 88L29 99Q51 98 62 100T85 102Q91 96 82 80T59 52T36 20Q53 21 90 26Q91 32 92 38Q99 34 101 29T106 12L99 8Q90 12 74 10T43 7T14 2L9 10Q20 22 28 35T47 59T68 88Q50 86 27 88Z" />
<glyph unicode="{" glyph-name="null" horiz-adv-x="83" d="M12 62T11 65T10 71T18 76T29 84T34 104T30 128T31 148T39 158T52 159T67 150Q61 148 55 148T47 148T44 144T44 130T48 109T49 95T45 77Q35 72 35 71T40 65T45 42T44 5T44 -22T48 -33T63 -21L72 -26Q59
-46 50 -47T37 -44T31 -27T31 6T31 41T27 59T18 62Z" />
<glyph unicode="|" glyph-name="null" horiz-adv-x="52" d="M22 166T23 168T30 171T37 168T38 143T35 82T31 -30Q28 -34 25 -34T16 -29Q18 42 19 79T21 141Z" />
<glyph unicode="}" glyph-name="null" horiz-adv-x="90" d="M16 154L17 161L26 163Q42 155 46 148T51 128T48 92Q56 78 58 78T80 75V68Q76 63 68 64Q62 58 61 58T57 46Q54 29 54 24T53 10T52 -12T42 -33T27 -42T10 -30L17 -23Q23 -27 26 -27T34 -20T39 -5T40 16T41
40T49 67Q41 72 39 76T35 98T36 129L32 142L16 154Z" />
<glyph unicode="~" glyph-name="null" horiz-adv-x="123" d="M22 135T13 130Q10 142 16 149T41 171L58 166Q62 151 68 143L82 142Q94 152 111 166L114 157Q102 140 93 135T82 128T64 128Q52 144 50 150T47 157T43 157T31 148Q22 135 13 130Z" />
<glyph unicode="&#xa0;" glyph-name="null" horiz-adv-x="96" />
<glyph unicode="&#xa1;" glyph-name="null" horiz-adv-x="74" d="M37 128Q42 128 47 124Q48 118 44 112Q38 108 32 113Q29 119 34 126L37 128ZM43 74Q46 46 51 20V-5Q49 -13 43 -19Q38 -22 32 -20Q22 -4 27 18Q31 47 39 76L43 74Z" />
<glyph unicode="&#xa2;" glyph-name="null" horiz-adv-x="110" d="M86 139V131L76 98L81 93L86 89V84L81 80Q75 83 72 87L50 15Q66 11 80 20Q89 26 95 34Q98 35 101 33Q101 27 99 21L92 13Q83 5 72 2Q60 -2 45 1L39 -16Q35 -20 29 -16L28 -10Q32 -2 35 7Q28 10
22 16Q9 36 13 60Q14 78 28 91Q35 97 44 101H65L77 134L80 138L86 139ZM45 89T36 80Q29 74 26 61Q22 44 32 26L39 20L60 90Q45 89 36 80Z" />
<glyph unicode="&#xa3;" glyph-name="null" horiz-adv-x="126" d="M64 150Q67 149 68 149T73 148T81 143L86 132L79 128Q74 132 72 134T63 137T53 135T45 129Q44 124 44 121T46 113T53 95Q56 94 57 93T63 92H78L82 85L76 77Q64 79 56 77Q56 72 56 70T54 63T48
48Q66 36 84 24Q94 28 98 29T105 31T113 29L112 21Q100 16 95 14T82 11T64 20T49 30T39 33Q30 26 27 23T21 19T13 18L11 23L21 35L34 44Q34 46 38 52T43 63T42 76L12 81L10 87L14 92L38 94Q36 98 34 110T33 126T36 135Q42 140 44 142T51 146T64 150Z" />
<glyph unicode="&#xa4;" glyph-name="null" d="M115 138L92 112Q94 110 95 107T96 93T94 74T88 64T83 59T80 55L103 38L105 31L97 26L88 30L68 50Q67 50 65 49T57 48T40 47L22 28H14L12 35L32 54Q28 59 26 62T22 73T23 89T30 111L12 134L14 140L20 143L40 124Q43
125 45 126T53 129T65 128T85 122L107 143H111L115 138ZM48 114Q45 108 43 105T37 93T35 80T38 68Q42 65 45 64T54 61T64 62T76 69Q80 74 81 77T83 88T82 99T78 108Q75 108 73 108T69 110T63 113T54 115V116L48 114Z" />
<glyph unicode="&#xa5;" glyph-name="null" horiz-adv-x="99" d="M90 102L94 100Q95 96 92 94Q70 93 49 92Q48 78 52 65L84 67L89 65Q90 62 88 59L54 58L52 56V14Q50 9 47 5H44L41 7L39 56L9 58L2 60V62L4 64Q22 63 39 65Q39 78 40 92Q21 90 2 94L0 96L3 98Q20
99 37 100L30 111L9 155Q4 154 0 157Q0 159 2 161Q9 162 16 161L18 158L14 155Q27 129 42 105H44L74 154V156Q68 156 66 160V162L72 163H82L85 162Q86 159 84 158L81 156Q66 128 50 100Q60 101 70 102H90Z" />
<glyph unicode="&#xa6;" glyph-name="null" horiz-adv-x="57" d="M34 179L35 170Q36 135 34 88Q26 87 23 90V176L24 180L34 179ZM26 53Q34 50 36 45Q36 23 35 -35Q26 -35 24 -34L23 41Q22 47 26 53V53Z" />
<glyph unicode="&#xa7;" glyph-name="null" horiz-adv-x="105" d="M37 168Q50 169 62 167L75 159Q79 155 82 150Q82 143 77 140Q69 138 64 144V152Q66 154 66 157Q52 164 36 161Q28 158 22 152Q16 143 18 132Q19 128 22 123L32 115Q48 104 65 96L81 85Q89 77 94
66Q99 51 91 39Q85 33 77 31Q68 31 58 30Q68 23 77 15Q83 6 86 -5Q89 -18 81 -27Q68 -34 55 -35Q33 -34 15 -23Q8 -17 12 -8Q16 -5 21 -7L27 -13L28 -20Q49 -31 72 -22Q76 -13 73 -3L57 14L35 30Q20 40 18 57Q17 77 28 93L38 101Q26 107 17 117Q11 123 10 132Q9
148 19 160Q26 166 37 168ZM72 152L70 150Q68 148 70 146H74Q75 148 73 151L72 152ZM61 88Q44 88 34 78Q26 68 28 56L35 47Q42 40 53 40Q67 38 81 42Q91 50 86 64Q80 73 73 80L61 88Z" />
<glyph unicode="&#xa8;" glyph-name="null" horiz-adv-x="106" d="M17 159Q17 164 21 168T31 172Q36 172 40 168T44 159Q44 153 40 149T31 145Q25 145 21 149T17 159ZM60 159Q60 164 64 168T74 172Q79 172 83 168T87 159Q87 153 83 149T74 145Q68 145 64 149T60 159Z" />
<glyph unicode="&#xa9;" glyph-name="null" horiz-adv-x="143" d="M68 146Q77 146 87 145Q99 140 109 131Q121 115 125 95Q128 71 113 52Q98 38 78 38Q62 37 47 41Q37 44 30 52Q15 69 17 92Q17 110 28 125L39 136Q53 143 68 146ZM83 138Q69 137 56 136Q44 131
35 121Q22 101 26 77Q29 64 38 55Q60 42 86 46Q97 50 106 57Q119 72 117 92Q114 112 102 127Q94 134 84 138H83ZM75 127L83 123L90 116L93 109Q84 112 77 119L70 120Q61 118 56 111Q45 100 46 85Q48 75 56 70Q64 65 73 66Q84 72 95 75Q96 70 92 66Q71 50 49 64Q36
74 37 90Q40 110 56 122L66 127H75Z" />
<glyph unicode="&#xaa;" glyph-name="null" horiz-adv-x="108" d="M23 177V192Q38 201 54 201T78 193T87 177T88 114H72V126Q62 114 50 112T29 114T16 127T16 147T32 160T72 167Q72 180 66 183T49 187T23 177ZM72 155Q47 153 40 150T31 142T32 133T38 127T49 125T65
131T72 155ZM17 91V104H88V91H17Z" />
<glyph unicode="&#xab;" glyph-name="null" horiz-adv-x="143" d="M50 118H74L35 74L78 27H53L12 73L50 118ZM103 117H127L88 73L131 26H106L65 72L103 117Z" />
<glyph unicode="&#xac;" glyph-name="null" horiz-adv-x="188" d="M32 93V112H159V35H140V93H32Z" />
<glyph unicode="&#xad;" glyph-name="null" horiz-adv-x="113" d="M19 68V87H93V68H19Z" />
<glyph unicode="&#xae;" glyph-name="null" horiz-adv-x="247" d="M122 198Q163 198 193 169T223 98Q224 56 194 26T122 -5Q76 -3 48 27T20 98Q20 139 49 168T122 198ZM122 185Q83 186 58 159T33 98Q32 61 57 36T122 8Q159 9 185 35T210 98Q210 133 185 159T122
185ZM81 32V162Q123 163 138 160T160 140T159 110T134 92Q144 88 149 78T178 32H155Q137 63 133 70T122 82T100 86V32H81ZM100 144V103Q120 101 129 105T141 119T140 135T128 144T100 144Z" />
<glyph unicode="&#xaf;" glyph-name="null" horiz-adv-x="121" d="M0 188V205H114V188H0Z" />
<glyph unicode="&#xb0;" glyph-name="null" horiz-adv-x="108" d="M53 170Q68 170 79 160T89 133Q89 119 78 108T53 95Q35 96 25 107T15 134Q15 149 26 159T53 170ZM53 153Q42 154 37 147T32 134Q31 124 37 119T53 112Q62 113 67 119T72 133Q73 140 68 147T53 153Z" />
<glyph unicode="&#xb1;" glyph-name="null" d="M56 129Q59 128 62 126Q64 113 65 102Q63 93 64 86L65 87Q74 86 85 89L96 94L103 91Q106 84 100 81Q88 81 76 80Q70 79 64 76L63 65Q64 51 65 38Q59 34 54 38Q51 43 54 48Q51 61 51 74Q42 74 34 71H21L17 76L19 77Q35
77 51 83L53 88V128L56 129ZM91 20Q99 19 108 19L110 18L112 14L110 10L105 8Q90 12 74 10Q68 9 63 8Q41 6 21 4L17 8L19 12Q38 13 58 16L77 19H89L91 20Z" />
<glyph unicode="&#xb2;" glyph-name="null" horiz-adv-x="105" d="M21 168V186Q38 198 56 196T83 182T86 152T35 95H85V78H12V95Q56 134 64 146T69 169T51 181T21 168Z" />
<glyph unicode="&#xb3;" glyph-name="null" horiz-adv-x="106" d="M20 174V191Q36 199 53 198T78 187T84 161T60 139Q81 137 87 122T83 92T50 76T15 82V101Q29 89 46 91T68 104T65 124T27 131V146Q60 142 63 156T62 176T46 182T20 174Z" />
<glyph unicode="&#xb4;" glyph-name="null" horiz-adv-x="103" d="M54 206T58 208T66 206T69 198T61 186T51 171T43 162T38 160T36 165T40 176T48 195Z" />
<glyph unicode="&#xb5;" glyph-name="null" d="M41 78Q46 57 48 34Q49 23 56 16L61 12Q69 10 76 15L82 23Q86 49 91 75H98Q99 52 98 29Q98 22 102 16H105Q109 20 114 19Q115 12 110 9Q102 5 97 10Q92 14 91 21L82 10Q68 -2 52 8L47 14Q44 18 43 23L37 -2Q32 -12
26 -19H20L19 -16Q29 -3 33 15Q38 45 37 76L40 78H41Z" />
<glyph unicode="&#xb6;" glyph-name="null" horiz-adv-x="88" d="M66 129Q72 129 78 128L80 125L78 122L60 121V114Q62 59 61 3Q58 0 54 4Q52 61 55 118L54 121H38L36 120Q36 65 37 11L36 6Q32 3 29 6V60L26 63Q19 62 14 67Q4 74 1 85Q0 102 7 116Q14 123 23 127L66 129Z" />
<glyph unicode="&#xb7;" glyph-name="null" horiz-adv-x="63" d="M13 85Q13 91 18 96T30 101Q36 101 41 96T46 85Q46 78 41 73T30 68Q23 68 18 73T13 85Z" />
<glyph unicode="&#xb8;" glyph-name="null" horiz-adv-x="63" d="M12 1H24V-13Q37 -12 44 -17T52 -32T48 -49T33 -57T6 -58V-49Q19 -49 27 -47T38 -39T37 -27T12 -23V1Z" />
<glyph unicode="&#xb9;" glyph-name="null" horiz-adv-x="104" d="M17 168V184L61 197V94H87V79H18V94H43V176L17 168Z" />
<glyph unicode="&#xba;" glyph-name="null" horiz-adv-x="124" d="M60 197Q81 197 95 183T109 143Q109 121 95 107T58 92Q36 94 23 107T11 143Q9 165 21 180T60 197ZM61 180Q47 181 38 171T30 143Q30 132 37 122T60 109Q74 111 80 118T89 143Q89 159 83 169T61 180Z" />
<glyph unicode="&#xbb;" glyph-name="null" horiz-adv-x="145" d="M12 120H36L77 74L36 28H12L54 74L12 120ZM66 120H90L131 74L90 28H67L107 74L66 120Z" />
<glyph unicode="&#xbc;" glyph-name="null" horiz-adv-x="248" d="M17 167V184L60 196V96H85V80H18V96H42V173L17 167ZM170 195H191L75 0H54L170 195ZM194 115H216V43H230V28H216V1H198V28H143V40L194 115ZM198 95L164 43H198V95Z" />
<glyph unicode="&#xbd;" glyph-name="null" horiz-adv-x="252" d="M17 166V182L61 194V95H87V80H18V95H43V173L17 166ZM170 196H191L74 1H53L170 196ZM166 89V107Q184 119 202 118T230 104T233 73T181 17H232V0H158V17Q203 55 211 68T216 91T198 102T166 89Z" />
<glyph unicode="&#xbe;" glyph-name="null" horiz-adv-x="252" d="M21 173V190Q37 198 53 196T78 185T84 161T61 139Q81 137 87 122T84 93T52 77T17 83V102Q31 91 48 92T69 105T65 124T28 131V146Q61 142 64 155T62 174T46 181T21 173ZM179 194H200L83 -1H62L179
194ZM195 113H217V42H231V27H217V0H199V27H142V39L195 113ZM199 94L163 42H199V94Z" />
<glyph unicode="&#xbf;" glyph-name="null" horiz-adv-x="131" d="M57 127Q57 133 61 137T72 142Q78 142 82 138T87 127Q87 120 83 116T72 112Q65 112 61 116T57 127ZM62 86H85Q90 68 87 56T73 33T50 9T44 -18T70 -36T113 -19V-44Q86 -60 58 -56T22 -32T22 4T47
36T65 62T62 86Z" />
<glyph unicode="&#xc0;" glyph-name="null" horiz-adv-x="105" d="M41 214T47 216T56 215T63 199T69 181T70 173T67 171T63 172T60 178T51 192T43 208ZM59 153T60 155T62 158T68 158T74 156T76 145T80 116T82 97T86 95T92 94T94 89T90 85T86 84T86 72T95 8L83
1Q65 12 63 13T52 24T28 62L33 67Q54 41 62 33T71 24T80 16Q74 61 73 69T72 79T64 79T48 73T33 68T12 65L7 73Q24 79 38 83T70 93L65 127Q55 112 50 101T38 72T16 21L9 29Q16 61 23 79T37 109T51 137Z" />
<glyph unicode="&#xc1;" glyph-name="null" horiz-adv-x="105" d="M74 217T78 219T86 217T89 209T81 197T71 182T63 173T58 171T56 176T60 187T68 206ZM59 153T60 155T62 158T68 158T74 156T76 145T80 116T82 97T86 95T92 94T94 89T90 85T86 84T86 72T95 8L83
1Q65 12 63 13T52 24T28 62L33 67Q54 41 62 33T71 24T80 16Q74 61 73 69T72 79T64 79T48 73T33 68T12 65L7 73Q24 79 38 83T70 93L65 127Q55 112 50 101T38 72T16 21L9 29Q16 61 23 79T37 109T51 137Z" />
<glyph unicode="&#xc2;" glyph-name="null" horiz-adv-x="105" d="M57 216H78L103 172H94L67 202L40 172H31L57 216ZM59 153T60 155T62 158T68 158T74 156T76 145T80 116T82 97T86 95T92 94T94 89T90 85T86 84T86 72T95 8L83 1Q65 12 63 13T52 24T28 62L33 67Q54
41 62 33T71 24T80 16Q74 61 73 69T72 79T64 79T48 73T33 68T12 65L7 73Q24 79 38 83T70 93L65 127Q55 112 50 101T38 72T16 21L9 29Q16 61 23 79T37 109T51 137Z" />
<glyph unicode="&#xc3;" glyph-name="null" horiz-adv-x="105" d="M31 173H24Q25 191 32 198T48 205T66 199T83 190T95 192T103 208H112Q112 191 104 183T87 174T68 182T51 191T41 189T31 173ZM59 153T60 155T62 158T68 158T74 156T76 145T80 116T82 97T86 95T92
94T94 89T90 85T86 84T86 72T95 8L83 1Q65 12 63 13T52 24T28 62L33 67Q54 41 62 33T71 24T80 16Q74 61 73 69T72 79T64 79T48 73T33 68T12 65L7 73Q24 79 38 83T70 93L65 127Q55 112 50 101T38 72T16 21L9 29Q16 61 23 79T37 109T51 137Z" />
<glyph unicode="&#xc4;" glyph-name="null" horiz-adv-x="105" d="M30 186Q30 191 34 195T44 199Q49 199 53 195T57 186Q57 180 53 176T44 172Q38 172 34 176T30 186ZM76 186Q76 191 80 195T90 199Q95 199 99 195T103 186Q103 180 99 176T90 172Q84 172 80 176T76
186ZM59 153T60 155T62 158T68 158T74 156T76 145T80 116T82 97T86 95T92 94T94 89T90 85T86 84T86 72T95 8L83 1Q65 12 63 13T52 24T28 62L33 67Q54 41 62 33T71 24T80 16Q74 61 73 69T72 79T64 79T48 73T33 68T12 65L7 73Q24 79 38 83T70 93L65 127Q55 112 50
101T38 72T16 21L9 29Q16 61 23 79T37 109T51 137Z" />
<glyph unicode="&#xc5;" glyph-name="null" horiz-adv-x="105" d="M67 216Q76 216 82 210T89 192Q89 183 82 176T67 168Q57 169 51 176T44 193Q44 202 51 209T67 216ZM67 205Q61 206 58 202T55 193Q54 187 58 184T67 179Q72 179 75 183T78 192Q78 197 75 201T67
205ZM59 153T60 155T62 158T68 158T74 156T76 145T80 116T82 97T86 95T92 94T94 89T90 85T86 84T86 72T95 8L83 1Q65 12 63 13T52 24T28 62L33 67Q54 41 62 33T71 24T80 16Q74 61 73 69T72 79T64 79T48 73T33 68T12 65L7 73Q24 79 38 83T70 93L65 127Q55 112 50
101T38 72T16 21L9 29Q16 61 23 79T37 109T51 137Z" />
<glyph unicode="&#xc6;" glyph-name="null" horiz-adv-x="235" d="M1 1L96 195H224L223 172H149V111H219V88H149V24H228V1H124V54H56L31 1H1ZM112 172L66 76L124 77V172H112Z" />
<glyph unicode="&#xc7;" glyph-name="null" horiz-adv-x="118" d="M44 9H56V-5Q69 -4 76 -9T84 -24T80 -41T65 -49T38 -50V-41Q51 -41 59 -39T70 -31T69 -19T44 -15V9ZM51 151T52 152T58 155T64 157T71 158T77 156T78 147T76 136T69 127Q69 130 69 135T69 141T67
143T64 142T57 133T45 110T32 76T27 48T31 27T47 17T73 30T91 48T95 53T104 54Q105 46 105 45T100 37T81 17T48 1T22 11T12 38T16 75T30 114T45 142Z" />
<glyph unicode="&#xc8;" glyph-name="null" horiz-adv-x="119" d="M38 214T44 216T53 215T60 199T66 181T67 173T64 171T60 172T57 178T48 192T40 208ZM53 143Q45 139 37 137T16 136Q19 140 23 143T28 147T36 151T52 156T69 158T85 156L87 147Q78 145 73 143T62
130T53 112T44 89Q62 92 72 92T91 91L88 86L90 79Q83 78 73 78T55 76T43 70T37 62T31 47T26 30T25 22T25 18T27 16T35 16T57 16T90 23L91 26Q87 28 79 32T64 46Q73 46 85 41T102 32T107 23T107 17T104 12T87 5T60 1T35 -1T19 2T12 6T11 13T10 21T13 31T19 50T22
67T24 78T29 86T34 100T41 119T53 143Z" />
<glyph unicode="&#xc9;" glyph-name="null" horiz-adv-x="119" d="M63 216T67 218T75 216T78 208T70 196T60 181T52 172T47 170T45 175T49 186T57 205ZM53 143Q45 139 37 137T16 136Q19 140 23 143T28 147T36 151T52 156T69 158T85 156L87 147Q78 145 73 143T62
130T53 112T44 89Q62 92 72 92T91 91L88 86L90 79Q83 78 73 78T55 76T43 70T37 62T31 47T26 30T25 22T25 18T27 16T35 16T57 16T90 23L91 26Q87 28 79 32T64 46Q73 46 85 41T102 32T107 23T107 17T104 12T87 5T60 1T35 -1T19 2T12 6T11 13T10 21T13 31T19 50T22
67T24 78T29 86T34 100T41 119T53 143Z" />
<glyph unicode="&#xca;" glyph-name="null" horiz-adv-x="119" d="M47 215H68L93 171H84L57 201L30 171H21L47 215ZM53 143Q45 139 37 137T16 136Q19 140 23 143T28 147T36 151T52 156T69 158T85 156L87 147Q78 145 73 143T62 130T53 112T44 89Q62 92 72 92T91
91L88 86L90 79Q83 78 73 78T55 76T43 70T37 62T31 47T26 30T25 22T25 18T27 16T35 16T57 16T90 23L91 26Q87 28 79 32T64 46Q73 46 85 41T102 32T107 23T107 17T104 12T87 5T60 1T35 -1T19 2T12 6T11 13T10 21T13 31T19 50T22 67T24 78T29 86T34 100T41 119T53
143Z" />
<glyph unicode="&#xcb;" glyph-name="null" horiz-adv-x="119" d="M27 186Q27 191 31 195T41 199Q46 199 50 195T54 186Q54 180 50 176T41 172Q35 172 31 176T27 186ZM64 186Q64 191 68 195T78 199Q83 199 87 195T91 186Q91 180 87 176T78 172Q72 172 68 176T64
186ZM53 143Q45 139 37 137T16 136Q19 140 23 143T28 147T36 151T52 156T69 158T85 156L87 147Q78 145 73 143T62 130T53 112T44 89Q62 92 72 92T91 91L88 86L90 79Q83 78 73 78T55 76T43 70T37 62T31 47T26 30T25 22T25 18T27 16T35 16T57 16T90 23L91 26Q87 28
79 32T64 46Q73 46 85 41T102 32T107 23T107 17T104 12T87 5T60 1T35 -1T19 2T12 6T11 13T10 21T13 31T19 50T22 67T24 78T29 86T34 100T41 119T53 143Z" />
<glyph unicode="&#xcc;" glyph-name="null" horiz-adv-x="96" d="M32 211T38 213T47 212T54 196T60 178T61 170T58 168T54 169T51 175T42 189T34 205ZM25 130L20 136L21 143Q33 146 41 148T57 152T72 159L80 160L82 146Q71 140 69 139T64 116T57 73T50 25Q64 26
72 23T85 11L80 1Q74 4 70 7T55 10T33 7T9 3L8 17Q17 20 34 22Q39 54 42 72T50 133Q36 130 25 130Z" />
<glyph unicode="&#xcd;" glyph-name="null" horiz-adv-x="96" d="M56 212T60 214T68 212T71 204T63 191T53 176T45 167T40 165T38 170T42 181T50 200ZM25 130L20 136L21 143Q33 146 41 148T57 152T72 159L80 160L82 146Q71 140 69 139T64 116T57 73T50 25Q64 26
72 23T85 11L80 1Q74 4 70 7T55 10T33 7T9 3L8 17Q17 20 34 22Q39 54 42 72T50 133Q36 130 25 130Z" />
<glyph unicode="&#xce;" glyph-name="null" horiz-adv-x="96" d="M42 213H63L88 169H79L52 199L25 169H16L42 213ZM25 130L20 136L21 143Q33 146 41 148T57 152T72 159L80 160L82 146Q71 140 69 139T64 116T57 73T50 25Q64 26 72 23T85 11L80 1Q74 4 70 7T55 10T33
7T9 3L8 17Q17 20 34 22Q39 54 42 72T50 133Q36 130 25 130Z" />
<glyph unicode="&#xcf;" glyph-name="null" horiz-adv-x="96" d="M20 186Q20 191 24 195T34 199Q39 199 43 195T47 186Q47 180 43 176T34 172Q28 172 24 176T20 186ZM58 186Q58 191 62 195T72 199Q77 199 81 195T85 186Q85 180 81 176T72 172Q66 172 62 176T58
186ZM25 130L20 136L21 143Q33 146 41 148T57 152T72 159L80 160L82 146Q71 140 69 139T64 116T57 73T50 25Q64 26 72 23T85 11L80 1Q74 4 70 7T55 10T33 7T9 3L8 17Q17 20 34 22Q39 54 42 72T50 133Q36 130 25 130Z" />
<glyph unicode="&#xd0;" glyph-name="null" horiz-adv-x="118" d="M7 81V94H67V81H7ZM23 144T23 145T31 152T43 158T57 157T81 146T101 119T107 92T96 68T76 42T55 20T35 7T23 2T12 4L11 12Q19 14 27 19T45 33T63 51T79 72T88 95T85 118T71 135T54 140T37 134Q34
94 28 28L16 32Q18 100 20 122Z" />
<glyph unicode="&#xd1;" glyph-name="null" d="M35 170H28Q29 188 36 195T51 202T69 196T85 187T96 189T104 205H113Q113 188 106 180T89 171T70 179T54 188T44 186T35 170ZM19 138T19 139T23 143T27 146T43 137Q52 113 58 91T69 51T77 27T83 19Q87 33 89 50T94
88T99 128T103 159L111 160Q118 156 119 156T119 147T115 123T109 88T104 45T91 5L82 1Q75 5 73 7T67 17T61 32T55 51T47 80T35 121Q29 104 29 85T24 46T19 17L8 22Q8 33 10 49T13 86T17 122Z" />
<glyph unicode="&#xd2;" glyph-name="null" horiz-adv-x="120" d="M42 214T48 216T57 215T64 199T70 181T71 173T68 171T64 172T61 178T52 192T44 208ZM33 142T33 144T39 152T46 159T62 160T85 152T102 126T108 84T93 43T78 20T72 14T60 6T43 0T23 8T13 33T12
75T18 113T27 134ZM59 145T58 144T51 139T45 134T43 126T40 117T36 113T33 111T32 104T29 77T27 42T32 18Q45 14 46 15T55 22T68 35T82 55T93 87T90 120T82 135T78 139T67 143Z" />
<glyph unicode="&#xd3;" glyph-name="null" horiz-adv-x="120" d="M71 214T75 216T83 214T86 206T78 194T68 179T60 170T55 168T53 173T57 184T65 203ZM33 142T33 144T39 152T46 159T62 160T85 152T102 126T108 84T93 43T78 20T72 14T60 6T43 0T23 8T13 33T12
75T18 113T27 134ZM59 145T58 144T51 139T45 134T43 126T40 117T36 113T33 111T32 104T29 77T27 42T32 18Q45 14 46 15T55 22T68 35T82 55T93 87T90 120T82 135T78 139T67 143Z" />
<glyph unicode="&#xd4;" glyph-name="null" horiz-adv-x="120" d="M53 214H74L99 170H90L63 200L36 170H27L53 214ZM33 142T33 144T39 152T46 159T62 160T85 152T102 126T108 84T93 43T78 20T72 14T60 6T43 0T23 8T13 33T12 75T18 113T27 134ZM59 145T58 144T51
139T45 134T43 126T40 117T36 113T33 111T32 104T29 77T27 42T32 18Q45 14 46 15T55 22T68 35T82 55T93 87T90 120T82 135T78 139T67 143Z" />
<glyph unicode="&#xd5;" glyph-name="null" d="M27 170H20Q21 187 28 193T44 200T62 194T78 186T90 187T98 202H107Q107 187 99 179T82 171T63 179T47 186T37 184T27 170ZM33 142T33 144T39 152T46 159T62 160T85 152T102 126T108 84T93 43T78 20T72 14T60 6T43
0T23 8T13 33T12 75T18 113T27 134ZM59 145T58 144T51 139T45 134T43 126T40 117T36 113T33 111T32 104T29 77T27 42T32 18Q45 14 46 15T55 22T68 35T82 55T93 87T90 120T82 135T78 139T67 143Z" />
<glyph unicode="&#xd6;" glyph-name="null" horiz-adv-x="121" d="M27 186Q27 191 31 195T41 199Q46 199 50 195T54 186Q54 180 50 176T41 172Q35 172 31 176T27 186ZM72 186Q72 191 76 195T86 199Q91 199 95 195T99 186Q99 180 95 176T86 172Q80 172 76 176T72
186ZM33 142T33 144T39 152T46 159T62 160T85 152T102 126T108 84T93 43T78 20T72 14T60 6T43 0T23 8T13 33T12 75T18 113T27 134ZM59 145T58 144T51 139T45 134T43 126T40 117T36 113T33 111T32 104T29 77T27 42T32 18Q45 14 46 15T55 22T68 35T82 55T93 87T90
120T82 135T78 139T67 143Z" />
<glyph unicode="&#xd7;" glyph-name="null" horiz-adv-x="126" d="M92 112Q96 109 94 105Q80 86 66 67V63L74 55L83 45L88 41L92 33Q98 28 105 23Q106 17 101 14H96L82 27Q73 40 61 52L58 53Q44 34 29 18L28 13L24 11L18 12Q16 16 18 20L27 30Q39 45 51 62Q35
75 22 92V97L29 98Q42 82 58 72L68 84Q76 98 86 110L91 112H92Z" />
<glyph unicode="&#xd8;" glyph-name="null" d="M109 176L117 170L10 -1L2 6L109 176ZM37 146T37 148T43 156T50 163T66 164T89 156T106 130T112 88T97 47T82 24T76 18T64 10T47 4T27 12T17 37T16 79T22 117T31 138ZM63 149T62 148T55 143T49 138T47 130T44 121T40
117T37 115T36 108T33 81T31 46T36 22Q49 18 50 19T59 26T72 39T86 59T97 91T94 124T86 139T82 143T71 147Z" />
<glyph unicode="&#xd9;" glyph-name="null" horiz-adv-x="142" d="M43 211T49 213T58 212T65 196T71 178T72 170T69 168T65 169T62 175T53 189T45 205ZM21 153L27 157L34 152Q36 132 36 114T35 75T36 40T47 21T67 16T81 21T87 30T89 41T91 47T93 60T95 87T96 120T96
159L106 160Q112 155 112 148T111 121T109 84T108 47T115 20T117 10T110 8T100 14Q90 5 77 3T55 1T38 8T27 18T22 37T20 73T21 112T21 153Z" />
<glyph unicode="&#xda;" glyph-name="null" horiz-adv-x="142" d="M73 215T77 217T85 215T88 207T80 195T70 180T62 171T57 169T55 174T59 185T67 204ZM21 153L27 157L34 152Q36 132 36 114T35 75T36 40T47 21T67 16T81 21T87 30T89 41T91 47T93 60T95 87T96 120T96
159L106 160Q112 155 112 148T111 121T109 84T108 47T115 20T117 10T110 8T100 14Q90 5 77 3T55 1T38 8T27 18T22 37T20 73T21 112T21 153Z" />
<glyph unicode="&#xdb;" glyph-name="null" horiz-adv-x="142" d="M56 213H77L102 169H93L66 199L39 169H30L56 213ZM21 153L27 157L34 152Q36 132 36 114T35 75T36 40T47 21T67 16T81 21T87 30T89 41T91 47T93 60T95 87T96 120T96 159L106 160Q112 155 112 148T111
121T109 84T108 47T115 20T117 10T110 8T100 14Q90 5 77 3T55 1T38 8T27 18T22 37T20 73T21 112T21 153Z" />
<glyph unicode="&#xdc;" glyph-name="null" horiz-adv-x="142" d="M30 186Q30 191 34 195T44 199Q49 199 53 195T57 186Q57 180 53 176T44 172Q38 172 34 176T30 186ZM73 186Q73 191 77 195T87 199Q92 199 96 195T100 186Q100 180 96 176T87 172Q81 172 77 176T73
186ZM21 153L27 157L34 152Q36 132 36 114T35 75T36 40T47 21T67 16T81 21T87 30T89 41T91 47T93 60T95 87T96 120T96 159L106 160Q112 155 112 148T111 121T109 84T108 47T115 20T117 10T110 8T100 14Q90 5 77 3T55 1T38 8T27 18T22 37T20 73T21 112T21 153Z"
/>
<glyph unicode="&#xdd;" glyph-name="null" horiz-adv-x="131" d="M67 211T71 213T79 211T82 203T74 191T64 176T56 167T51 165T49 170T53 181T61 200ZM9 140L16 148Q22 140 30 133T50 116Q57 116 58 117T69 126T93 146T108 159T114 159T120 154T107 140T70 108Q72
104 71 101T66 86T59 57T56 27T54 3Q48 0 47 0T44 4T41 11T40 28T44 59T48 86T44 101T33 112T18 127T9 140Z" />
<glyph unicode="&#xde;" glyph-name="null" horiz-adv-x="168" d="M25 195H50V165L80 164Q113 164 130 148T147 107T132 65T88 44L50 43V1H25V195ZM50 142V66H82Q104 68 112 80T120 108T110 132T77 142H50Z" />
<glyph unicode="&#xdf;" glyph-name="null" horiz-adv-x="161" d="M46 1H22V148Q24 186 43 198T86 208T121 190T128 149T93 112Q126 103 136 87T144 48T124 9T64 1V24Q92 13 105 23T119 50T111 79T69 100L68 119Q99 127 103 149T98 180T75 188T55 179T46 142V1Z" />
<glyph unicode="&#xe0;" glyph-name="null" horiz-adv-x="106" d="M29 165T35 167T44 166T51 150T57 132T58 124T55 122T51 123T48 129T39 143T31 159ZM18 54T21 65T31 86T45 99T55 102T62 99T68 93T68 85T65 74L59 68Q58 76 55 84L47 85Q37 74 34 61T30 41T28
27T30 19T39 24T51 41T62 62T68 80L76 78Q77 74 77 64T76 48T76 36T81 21H86L91 28L98 26Q98 12 92 9T80 7T70 16T64 40Q56 20 50 13T37 4T28 3T22 7T16 11T14 23T16 44Z" />
<glyph unicode="&#xe1;" glyph-name="null" horiz-adv-x="106" d="M65 168T69 170T77 168T80 160T72 148T62 133T54 124T49 122T47 127T51 138T59 157ZM18 54T21 65T31 86T45 99T55 102T62 99T68 93T68 85T65 74L59 68Q58 76 55 84L47 85Q37 74 34 61T30 41T28
27T30 19T39 24T51 41T62 62T68 80L76 78Q77 74 77 64T76 48T76 36T81 21H86L91 28L98 26Q98 12 92 9T80 7T70 16T64 40Q56 20 50 13T37 4T28 3T22 7T16 11T14 23T16 44Z" />
<glyph unicode="&#xe2;" glyph-name="null" horiz-adv-x="108" d="M45 165H66L91 121H82L55 151L28 121H19L45 165ZM18 54T21 65T31 86T45 99T55 102T62 99T68 93T68 85T65 74L59 68Q58 76 55 84L47 85Q37 74 34 61T30 41T28 27T30 19T39 24T51 41T62 62T68 80L76
78Q77 74 77 64T76 48T76 36T81 21H86L91 28L98 26Q98 12 92 9T80 7T70 16T64 40Q56 20 50 13T37 4T28 3T22 7T16 11T14 23T16 44Z" />
<glyph unicode="&#xe3;" glyph-name="null" horiz-adv-x="108" d="M27 123H22Q23 139 28 145T40 152T54 147T67 139T76 140T83 155H89Q89 139 83 132T70 124T55 131T43 139T35 137T27 123ZM18 54T21 65T31 86T45 99T55 102T62 99T68 93T68 85T65 74L59 68Q58 76
55 84L47 85Q37 74 34 61T30 41T28 27T30 19T39 24T51 41T62 62T68 80L76 78Q77 74 77 64T76 48T76 36T81 21H86L91 28L98 26Q98 12 92 9T80 7T70 16T64 40Q56 20 50 13T37 4T28 3T22 7T16 11T14 23T16 44Z" />
<glyph unicode="&#xe4;" glyph-name="null" horiz-adv-x="108" d="M65 139Q65 144 68 147T77 151Q82 151 85 148T89 139Q89 134 86 131T77 127Q72 127 69 130T65 139ZM22 139Q22 144 25 147T34 151Q39 151 42 148T46 139Q46 134 43 131T34 127Q29 127 26 130T22
139ZM18 54T21 65T31 86T45 99T55 102T62 99T68 93T68 85T65 74L59 68Q58 76 55 84L47 85Q37 74 34 61T30 41T28 27T30 19T39 24T51 41T62 62T68 80L76 78Q77 74 77 64T76 48T76 36T81 21H86L91 28L98 26Q98 12 92 9T80 7T70 16T64 40Q56 20 50 13T37 4T28 3T22
7T16 11T14 23T16 44Z" />
<glyph unicode="&#xe5;" glyph-name="null" horiz-adv-x="106" d="M53 158Q62 158 67 152T73 137Q74 130 68 124T53 119Q43 118 38 124T32 138Q32 146 38 152T53 158ZM53 148Q48 148 45 145T42 138Q42 134 45 131T53 129Q58 128 61 131T63 137Q64 140 61 144T53
148ZM18 54T21 65T31 86T45 99T55 102T62 99T68 93T68 85T65 74L59 68Q58 76 55 84L47 85Q37 74 34 61T30 41T28 27T30 19T39 24T51 41T62 62T68 80L76 78Q77 74 77 64T76 48T76 36T81 21H86L91 28L98 26Q98 12 92 9T80 7T70 16T64 40Q56 20 50 13T37 4T28 3T22
7T16 11T14 23T16 44Z" />
<glyph unicode="&#xe6;" glyph-name="null" horiz-adv-x="233" d="M25 106V129Q46 141 63 142T93 139T113 116Q131 141 154 142T192 135T213 111T219 64H122Q124 41 134 31T164 19T209 33V11Q188 -3 163 -3T127 7T108 28Q93 6 72 0T32 3T13 33T20 65T49 81T98
84Q98 109 88 116T62 122T25 106ZM195 84Q194 109 179 118T145 118T123 84H195ZM98 65Q77 64 62 62T41 53T36 36T50 20T81 24T98 65Z" />
<glyph unicode="&#xe7;" glyph-name="null" horiz-adv-x="95" d="M37 8H49V-5Q62 -4 69 -8T77 -22T73 -38T58 -45T31 -45V-37Q44 -37 52 -36T63 -29T62 -18T37 -14V8ZM14 50T21 64T37 87T46 96T55 99T63 102T78 96L76 82L70 79Q64 87 63 87T57 85T46 73T34 54T27
28L29 18Q41 17 49 20T62 26T69 30T82 32V22Q64 8 52 6T33 4T23 8T18 11T14 19T12 38Z" />
<glyph unicode="&#xe8;" glyph-name="null" horiz-adv-x="114" d="M39 163T45 165T54 164T61 148T67 130T68 122T65 120T61 121T58 127T49 141T41 157ZM21 68T26 77T44 97L58 102Q73 102 75 101T89 90Q91 80 91 78T90 71T89 64T81 54T61 39T28 34Q32 23 41 20T63
18T94 32L104 30L101 20Q84 7 67 5T36 6T18 25T17 54ZM59 88Q51 85 48 80T39 70T29 51Q34 48 39 49T53 52T64 56T71 63T76 70T77 82Q71 88 71 88T59 88Z" />
<glyph unicode="&#xe9;" glyph-name="null" horiz-adv-x="114" d="M71 166T75 168T83 166T86 158T78 146T68 131T60 122T55 120T53 125T57 136T65 155ZM21 68T26 77T44 97L58 102Q73 102 75 101T89 90Q91 80 91 78T90 71T89 64T81 54T61 39T28 34Q32 23 41 20T63
18T94 32L104 30L101 20Q84 7 67 5T36 6T18 25T17 54ZM59 88Q51 85 48 80T39 70T29 51Q34 48 39 49T53 52T64 56T71 63T76 70T77 82Q71 88 71 88T59 88Z" />
<glyph unicode="&#xea;" glyph-name="null" horiz-adv-x="118" d="M52 164H73L98 120H89L62 150L35 120H26L52 164ZM21 68T26 77T44 97L58 102Q73 102 75 101T89 90Q91 80 91 78T90 71T89 64T81 54T61 39T28 34Q32 23 41 20T63 18T94 32L104 30L101 20Q84 7 67
5T36 6T18 25T17 54ZM59 88Q51 85 48 80T39 70T29 51Q34 48 39 49T53 52T64 56T71 63T76 70T77 82Q71 88 71 88T59 88Z" />
<glyph unicode="&#xeb;" glyph-name="null" horiz-adv-x="118" d="M30 139Q30 144 34 148T44 152Q49 152 53 148T57 139Q57 133 53 129T44 125Q38 125 34 129T30 139ZM68 139Q68 144 72 148T82 152Q87 152 91 148T95 139Q95 133 91 129T82 125Q76 125 72 129T68
139ZM21 68T26 77T44 97L58 102Q73 102 75 101T89 90Q91 80 91 78T90 71T89 64T81 54T61 39T28 34Q32 23 41 20T63 18T94 32L104 30L101 20Q84 7 67 5T36 6T18 25T17 54ZM59 88Q51 85 48 80T39 70T29 51Q34 48 39 49T53 52T64 56T71 63T76 70T77 82Q71 88 71 88T59
88Z" />
<glyph unicode="&#xec;" glyph-name="null" horiz-adv-x="66" d="M14 185T20 187T29 186T36 170T42 152T43 144T40 142T36 143T33 149T24 163T16 179ZM47 -5H30V118H47V-5Z" />
<glyph unicode="&#xed;" glyph-name="null" horiz-adv-x="76" d="M48 186T52 188T60 186T63 178T55 166T45 151T37 142T32 140T30 145T34 156T42 175ZM45 -5H29V118H45V-5Z" />
<glyph unicode="&#xee;" glyph-name="null" horiz-adv-x="80" d="M25 188H46L71 144H62L35 174L8 144H-1L25 188ZM43 -5H28V118H43V-5Z" />
<glyph unicode="&#xef;" glyph-name="null" horiz-adv-x="80" d="M42 -5H25V118H42V-5ZM4 158Q4 163 7 166T16 170Q21 170 24 167T28 158Q28 153 25 150T16 146Q11 146 8 149T4 158ZM44 159Q44 164 47 167T56 171Q61 171 64 168T68 159Q68 154 65 151T56 147Q51
147 48 150T44 159Z" />
<glyph unicode="&#xf0;" glyph-name="null" horiz-adv-x="156" d="M33 206H64L87 188L126 207L133 194L99 176Q134 142 140 106T140 45T109 6T57 0T20 33T13 80T28 120T63 141T106 132Q97 150 80 167L40 147L32 161L69 178L33 206ZM86 125T70 121T46 102T38 71T44
40T66 21T96 22T115 49T117 89T99 117Z" />
<glyph unicode="&#xf1;" glyph-name="null" horiz-adv-x="118" d="M20 119H14Q15 137 21 144T34 151T50 145T64 136T74 138T81 154H88Q88 137 82 129T67 120T51 128T37 137T28 135T20 119ZM14 78T14 78T9 73L7 78L11 89L27 87Q35 77 33 61Q44 72 49 81T61 95T78
104L85 94Q86 77 84 64T80 27L85 18Q98 23 101 27T112 36Q112 28 108 20T97 9T86 5T70 15L66 25Q68 47 70 60T72 78T71 83T66 80T57 69T46 55T38 35T29 4H20Q21 22 21 33T22 48T22 60T20 70T17 75Z" />
<glyph unicode="&#xf2;" glyph-name="null" horiz-adv-x="106" d="M34 163T40 165T49 164T56 148T62 130T63 122T60 120T56 121T53 127T44 141T36 157ZM17 70T18 73T28 84T47 98T59 103T74 100T91 84T90 52T76 20T57 6T37 7T21 27T16 56ZM62 89T61 89T52 85T40
76T33 69T29 57Q31 43 33 35T41 22T52 20T63 29T74 52T74 85Q62 89 61 89Z" />
<glyph unicode="&#xf3;" glyph-name="null" horiz-adv-x="106" d="M63 165T67 167T75 165T78 157T70 145T60 130T52 121T47 119T45 124T49 135T57 154ZM14 70T15 73T25 84T44 98T56 103T71 100T88 84T87 52T73 20T54 6T34 7T18 27T13 56ZM59 89T58 89T49 85T37
76T30 69T26 57Q28 43 30 35T38 22T49 20T60 29T71 52T71 85Q59 89 58 89Z" />
<glyph unicode="&#xf4;" glyph-name="null" horiz-adv-x="106" d="M45 165H66L91 121H82L55 151L28 121H19L45 165ZM14 70T15 73T25 84T44 98T56 103T71 100T88 84T87 52T73 20T54 6T34 7T18 27T13 56ZM59 89T58 89T49 85T37 76T30 69T26 57Q28 43 30 35T38 22T49
20T60 29T71 52T71 85Q59 89 58 89Z" />
<glyph unicode="&#xf5;" glyph-name="null" horiz-adv-x="109" d="M21 130H15Q16 148 22 155T37 162T54 156T69 147T80 149T88 165H96Q96 148 89 140T73 131T55 139T40 148T30 146T21 130ZM14 70T15 73T25 84T44 98T56 103T71 100T88 84T87 52T73 20T54 6T34 7T18
27T13 56ZM59 89T58 89T49 85T37 76T30 69T26 57Q28 43 30 35T38 22T49 20T60 29T71 52T71 85Q59 89 58 89Z" />
<glyph unicode="&#xf6;" glyph-name="null" horiz-adv-x="110" d="M69 144Q69 149 73 153T83 157Q88 157 92 153T96 144Q96 138 92 134T83 130Q77 130 73 134T69 144ZM24 144Q24 149 28 153T38 157Q43 157 47 153T51 144Q51 138 47 134T38 130Q32 130 28 134T24
144ZM14 70T15 73T25 84T44 98T56 103T71 100T88 84T87 52T73 20T54 6T34 7T18 27T13 56ZM59 89T58 89T49 85T37 76T30 69T26 57Q28 43 30 35T38 22T49 20T60 29T71 52T71 85Q59 89 58 89Z" />
<glyph unicode="&#xf7;" glyph-name="null" horiz-adv-x="109" d="M51 110Q54 108 58 105V98Q51 88 43 96Q37 102 42 108L50 110H51ZM88 75Q91 71 88 67Q79 66 71 66L62 67Q45 64 29 61Q21 58 15 64L17 67L56 74L72 76L88 75ZM46 41Q51 39 55 38Q58 34 60 28L57
26H45L41 28Q38 34 43 39L46 41Z" />
<glyph unicode="&#xf8;" glyph-name="null" horiz-adv-x="132" d="M113 124L121 118L14 -7L6 0L113 124ZM26 70T27 73T37 84T56 98T68 103T83 100T100 84T99 52T85 20T66 6T46 7T30 27T25 56ZM71 89T70 89T61 85T49 76T42 69T38 57Q40 43 42 35T50 22T61 20T72
29T83 52T83 85Q71 89 70 89Z" />
<glyph unicode="&#xf9;" glyph-name="null" horiz-adv-x="122" d="M36 159T42 161T51 160T58 144T64 126T65 118T62 116T58 117T55 123T46 137T38 153ZM21 82T26 86L33 77Q29 56 26 27L27 20L39 29Q49 42 58 54T67 67T73 78T79 91T85 98T91 100T93 93T89 76T82
51T79 29T85 18T91 16T112 23L109 13Q97 4 91 4T70 10Q63 30 67 40Q59 29 53 22T33 5L21 6L12 20Q13 54 17 68Z" />
<glyph unicode="&#xfa;" glyph-name="null" horiz-adv-x="122" d="M68 161T72 163T80 161T83 153T75 141T65 126T57 117T52 115T50 120T54 131T62 150ZM21 82T26 86L33 77Q29 56 26 27L27 20L39 29Q49 42 58 54T67 67T73 78T79 91T85 98T91 100T93 93T89 76T82
51T79 29T85 18T91 16T112 23L109 13Q97 4 91 4T70 10Q63 30 67 40Q59 29 53 22T33 5L21 6L12 20Q13 54 17 68Z" />
<glyph unicode="&#xfb;" glyph-name="null" horiz-adv-x="122" d="M48 162H69L94 118H85L58 148L31 118H22L48 162ZM21 82T26 86L33 77Q29 56 26 27L27 20L39 29Q49 42 58 54T67 67T73 78T79 91T85 98T91 100T93 93T89 76T82 51T79 29T85 18T91 16T112 23L109
13Q97 4 91 4T70 10Q63 30 67 40Q59 29 53 22T33 5L21 6L12 20Q13 54 17 68Z" />
<glyph unicode="&#xfc;" glyph-name="null" horiz-adv-x="122" d="M25 144Q25 149 29 153T39 157Q44 157 48 153T52 144Q52 138 48 134T39 130Q33 130 29 134T25 144ZM68 144Q68 149 72 153T82 157Q87 157 91 153T95 144Q95 138 91 134T82 130Q76 130 72 134T68
144ZM21 82T26 86L33 77Q29 56 26 27L27 20L39 29Q49 42 58 54T67 67T73 78T79 91T85 98T91 100T93 93T89 76T82 51T79 29T85 18T91 16T112 23L109 13Q97 4 91 4T70 10Q63 30 67 40Q59 29 53 22T33 5L21 6L12 20Q13 54 17 68Z" />
<glyph unicode="&#xfd;" glyph-name="null" horiz-adv-x="104" d="M54 157T58 159T66 157T69 149T61 137T51 122T43 113T38 111T36 116T40 127T48 146ZM7 80L12 86Q28 71 45 47Q59 55 61 58T70 76T78 92T85 99L97 93Q91 84 83 69T64 32T46 -4T33 -34T26 -52T25
-59T21 -68T14 -70T9 -63T11 -51T19 -30T31 -1T48 33L38 32Q17 62 7 80Z" />
<glyph unicode="&#xfe;" glyph-name="null" horiz-adv-x="170" d="M22 206H46V114Q61 137 80 141T118 137T143 111T151 70T139 25T96 -2T46 20V-63H22V206ZM43 88T47 49Q55 20 79 18T115 33T126 71T120 102T102 119T76 120T53 102Z" />
<glyph unicode="&#xff;" glyph-name="null" horiz-adv-x="109" d="M14 134Q14 139 18 143T28 147Q33 147 37 143T41 134Q41 128 37 124T28 120Q22 120 18 124T14 134ZM56 134Q56 139 60 143T70 147Q75 147 79 143T83 134Q83 128 79 124T70 120Q64 120 60 124T56
134ZM7 80L12 86Q28 71 45 47Q59 55 61 58T70 76T78 92T85 99L97 93Q91 84 83 69T64 32T46 -4T33 -34T26 -52T25 -59T21 -68T14 -70T9 -63T11 -51T19 -30T31 -1T48 33L38 32Q17 62 7 80Z" />
<glyph unicode="&#x2016;" glyph-name="null" horiz-adv-x="256" d="M47 -33H28V212H47V-33ZM122 -32H103V213H122V-32Z" />
<glyph unicode="&#x201c;" glyph-name="null" horiz-adv-x="256" d="M186 134Q180 134 175 139Q169 145 171 152Q181 166 193 177L200 178Q197 166 188 155Q194 149 194 138L186 134ZM235 134Q229 134 224 139Q218 145 220 152Q230 166 242 177L249 178Q246 166
237 155Q243 149 243 138L235 134Z" />
<glyph unicode="&#x201d;" glyph-name="null" horiz-adv-x="256" d="M21 178Q27 180 32 176Q35 171 37 162Q25 146 13 136L9 135Q9 147 19 159Q12 165 14 174L21 178ZM73 178Q79 180 84 176Q87 171 89 162Q77 146 65 136L61 135Q61 147 71 159Q64 165 66 174L73 178Z" />
<glyph unicode="&#x2026;" glyph-name="null" horiz-adv-x="256" d="M84 97L88 94Q94 88 92 83Q88 73 76 78Q71 82 72 87Q72 90 76 95L80 97H84ZM131 96L134 93Q140 88 139 82Q134 73 122 77Q117 81 118 86Q118 90 123 94L126 97L131 96ZM175 96L178 94Q184 88
183 82Q178 73 166 78Q161 82 162 86Q163 90 167 94L171 97L175 96Z" />
<glyph unicode="&#x2033;" glyph-name="null" horiz-adv-x="256" d="M134 206T138 208T146 206T149 198T141 186T131 171T123 162T118 160T116 165T120 176T128 195ZM169 205T173 207T181 205T184 197T176 185T166 170T158 161T153 159T151 164T155 175T163 194Z" />
<glyph unicode="&#x203e;" glyph-name="null" horiz-adv-x="256" d="M-9 189V206H114V189H-9Z" />
<glyph unicode="&#x2074;" glyph-name="null" horiz-adv-x="256" d="M58 192H75V120H90V109H75V80H61V109H6V118L58 192ZM61 177L23 120H61V177Z" />
<glyph unicode="&#x2075;" glyph-name="null" horiz-adv-x="256" d="M22 193H81V180H36V149Q60 151 72 143T86 119T79 92T50 78T18 83V100Q28 91 43 91T66 99T70 119T57 134T22 136V193Z" />
<glyph unicode="&#x2077;" glyph-name="null" horiz-adv-x="256" d="M12 180V193H88V186L42 80H26L70 179L12 180Z" />
<glyph unicode="&#x20a0;" glyph-name="null" horiz-adv-x="256" d="M117 188V169Q91 182 70 175T41 147T38 105T62 79T94 83V66Q75 56 53 63T22 93T20 144T54 186T117 188ZM81 136H156V120H98V78H152V62H98V18H160V2H81V136Z" />
<glyph unicode="&#x20a3;" glyph-name="null" horiz-adv-x="256" d="M28 191H124V173H47V104H118V86H47V2H28V191ZM3 39V56H83V39H3Z" />
<glyph unicode="&#x20a4;" glyph-name="null" horiz-adv-x="256" d="M125 173L126 190Q91 205 68 190T45 122H17V106H45V84H17V68H45Q44 29 14 16V0H136L137 16H42Q65 36 64 68H107V84H64V106H107V122H64Q64 166 81 176T125 173Z" />
<glyph unicode="&#x20a7;" glyph-name="null" horiz-adv-x="256" d="M13 4V188Q68 190 85 180T108 148T105 107T82 81T30 75V4H13ZM30 172V91Q59 90 70 93T87 110T91 141T77 165T30 172ZM128 147H145V114H175V99H145Q145 42 145 33T151 20T164 17T175 21V6Q171
3 158 3T138 9T129 27T127 99H107V114H128V147ZM249 112V95Q232 103 215 102T194 91T197 77T227 61T253 38T250 15T222 1T175 6V24Q195 12 213 13T236 22T236 36T213 50T183 67T177 93T206 114T249 112Z" />
<glyph unicode="&#x20a8;" glyph-name="null" horiz-adv-x="256" d="M219 117V99Q202 108 186 107T165 96T168 80T198 64T223 41T219 18T192 2T147 8V26Q166 14 184 15T205 25T206 39T183 53T154 71T148 98T176 119T219 117ZM23 3V190Q73 191 92 186T119 160T119
119T84 89Q98 78 105 64T140 3H120Q97 46 91 57T76 76T40 84V3H23ZM40 174V99Q71 97 85 104T103 127T101 155T82 172T40 174Z" />
<glyph unicode="&#x20a9;" glyph-name="null" horiz-adv-x="256" d="M13 194H34L62 23L93 194H111L141 23L169 194H190L152 0H129L102 163L73 0H51L13 194ZM2 111V126H205V111H2ZM1 73V88H204V73H1Z" />
<glyph unicode="&#x20aa;" glyph-name="null" horiz-adv-x="256" d="M13 140H57Q77 140 87 134T98 106V35H80V102Q80 114 77 117T62 121H31V1H13V140ZM47 106H65V20H98Q106 19 110 22T114 40V140H132V36Q132 22 127 13T104 1H47V106Z" />
<glyph unicode="&#x20ac;" glyph-name="null" horiz-adv-x="256" d="M76 105L80 101L77 96L71 93H50L49 77Q49 72 49 67Q62 68 78 70H81L84 66L82 61L76 58H49Q49 34 56 22Q67 9 83 15L89 23Q89 32 93 40L98 42L102 40L100 21Q97 12 92 9Q79 2 66 2Q56 4 49 12L45
19Q38 29 37 58L30 57Q23 54 14 55Q11 57 12 61L16 62Q27 64 38 67L39 89Q39 91 39 93Q36 93 34 93Q27 90 18 91Q15 93 16 97L20 99Q32 101 39 102H40Q43 114 46 127Q51 139 60 147Q64 150 67 151T75 153H86V162L90 165H92Q97 156 98 146L94 142L78 144Q72 143
68 139Q63 135 59 127Q55 117 52 102Q63 103 73 105H76Z" />
<glyph unicode="&#x20ad;" glyph-name="null" horiz-adv-x="256" d="M45 -1H28V194H45V-1ZM112 194H134L67 100L139 1H115L46 99L112 194ZM4 93V108H127V93H4Z" />
<glyph unicode="&#x2116;" glyph-name="null" horiz-adv-x="256" d="M132 152L138 150Q135 136 139 124L138 120Q137 103 137 86L134 74Q134 43 134 13L135 11L134 10L133 8L129 5H118L117 12L115 15Q114 24 112 35Q101 56 93 79Q89 99 80 118Q75 82 75 48Q77
32 76 21Q75 14 80 9L73 2Q67 1 64 5Q63 14 65 23Q64 27 64 34L66 38Q64 52 64 67Q64 78 67 88L68 105L69 110Q67 127 67 145L69 147Q74 148 79 145Q86 130 93 116Q103 80 119 46L123 42Q124 81 129 120Q126 135 127 150L130 152H132ZM167 94Q174 93 182 90Q186
86 187 85L191 68Q191 58 189 54Q184 44 179 35Q167 24 154 32Q144 44 147 59Q148 76 158 89L167 94ZM170 86L166 85Q152 65 160 42Q163 39 167 39Q176 47 179 58Q179 72 175 84L171 86H170ZM186 19L188 20Q192 14 188 9Q184 7 181 6Q161 8 144 13Q142 15 146 18Q154
19 163 19Q167 19 172 22L174 20L176 22Q178 18 183 22L186 19Z" />
<glyph unicode="&#x2121;" glyph-name="null" horiz-adv-x="256" d="M6 175V192H113V175H69V3H49V175H6ZM101 135H162V119H119V79H159V63H119V20H165V4H101V135ZM183 134H201V19H244V3H183V134Z" />
<glyph unicode="&#x2122;" glyph-name="null" horiz-adv-x="256" d="M3 181V194H86V181H52V105H37V181H3ZM94 106V194H113L141 127L168 194H187V106H172L173 175L145 105H136L107 175V106H94Z" />
<glyph unicode="&#x2126;" glyph-name="null" horiz-adv-x="256" d="M13 4V21H64Q20 54 17 95T34 162T90 191T150 183T186 147T192 86T148 21H199V4H129V21Q165 48 172 82T170 136T141 167T92 174T48 145T38 87T83 22V4H13Z" />
<glyph unicode="&#x212e;" glyph-name="null" horiz-adv-x="256" d="M12 79Q15 114 33 131T74 150T114 144T142 120T154 74H43L42 25Q59 9 76 8T110 14T136 40L146 35Q135 17 122 9T86 -2T38 13T12 79ZM123 123Q112 135 97 139T64 137T43 122V84H123V123Z" />
<glyph unicode="&#x215b;" glyph-name="null" horiz-adv-x="256" d="M169 194H190L71 -1H50L169 194ZM187 120T203 116T224 101T225 78T206 60Q228 54 231 33T213 2T172 0T150 28T176 60Q155 69 155 87T171 112ZM189 103T182 99T174 85T191 68Q206 74 207 83T206
95T196 101ZM191 51Q171 45 170 34T179 17T202 15T213 32T191 51ZM18 170V186L60 198V92H86V78H19V92H43V177L18 170Z" />
<glyph unicode="&#x215d;" glyph-name="null" horiz-adv-x="256" d="M22 194H83V177H40V149Q63 152 76 143T90 118T82 90T52 76T20 81V101Q30 92 44 92T66 99T71 118T58 132T22 133V194ZM170 194H189L72 -1H53L170 194ZM189 120T205 116T226 101T227 78T208 60Q229
54 232 33T214 2T174 0T153 28T177 60Q157 69 157 87T172 112ZM191 103T184 99T176 85T193 68Q208 74 208 83T207 95T198 101ZM193 51Q174 45 173 34T182 17T203 15T214 32T193 51Z" />
<glyph unicode="&#x2160;" glyph-name="null" horiz-adv-x="256" d="M153 163L157 157L152 151L145 149Q144 147 143 144T142 103T139 56T134 33Q140 32 143 32T149 31T154 27L150 18Q127 17 116 16T103 16T98 20L101 27Q111 30 120 33Q123 48 126 57T129 97T130
134T130 146L114 147L109 155Q112 158 114 160T121 162T133 161T151 163H153V163Z" />
<glyph unicode="&#x2161;" glyph-name="null" horiz-adv-x="256" d="M177 163L175 155L161 153Q159 143 152 110T139 55T133 33T134 30L147 28L151 23L145 15Q139 16 135 16T107 16T81 15T78 18L80 25L92 26Q94 30 97 32T106 70T116 121T121 141T122 153Q115 154
111 154T105 154T100 158L103 163Q112 165 118 166T143 167T165 166T172 168L177 163V163ZM137 154Q134 142 131 134T125 106T118 68T109 29H119Q120 34 122 39T135 86T146 135T146 151L143 154H137Z" />
<glyph unicode="&#x2164;" glyph-name="null" horiz-adv-x="256" d="M92 168Q94 163 96 159T97 117T97 72T99 61T99 40H102L107 50L112 55Q121 68 141 111T164 161L169 164L174 160Q171 150 170 143T156 109T127 58T107 29T95 17L88 21Q81 92 83 113T84 149T84
165T88 169L92 168Z" />
<glyph unicode="&#x2175;" glyph-name="null" horiz-adv-x="256" d="M184 132L179 124L172 125L168 133L175 141L181 139L184 132ZM141 102Q140 95 140 91T136 79T127 64T112 43Q100 27 82 20L74 27Q72 35 72 40T75 68T76 95T72 102L80 107L88 104Q89 95 88 90T86
63T85 35Q87 35 88 35T93 39T105 50Q115 65 119 70T124 80T128 92L125 99L132 108L141 102ZM173 103Q174 98 172 93T166 73T158 42L161 40L173 45L177 42L171 33L151 22Q148 25 147 26T145 35T163 99L169 104L173 103Z" />
<glyph unicode="&#x2178;" glyph-name="null" horiz-adv-x="256" d="M100 129L91 121L84 129L91 136H96L100 129ZM177 107L181 103Q177 97 174 95T164 82T160 61T165 46Q173 52 177 55T182 59T185 58L187 53L172 37Q168 33 166 31T161 28T154 29L149 50H145L136
37L123 25L118 30L145 67Q144 75 144 78T141 84T137 90L130 86Q131 80 127 76L121 73L116 81L128 96L140 103L148 100L156 84Q163 95 174 107H177V107ZM92 102Q93 94 91 87T86 69T82 49T80 35L94 39L96 34Q90 29 88 27T81 24T74 22T70 23Q69 27 69 30T74 62T82
94T87 103L92 102Z" />
<glyph unicode="&#x2190;" glyph-name="null" horiz-adv-x="256" d="M9 111Q42 122 61 153H71Q63 133 52 115H246V97H52Q63 81 71 61H61Q39 93 9 105V111Z" />
<glyph unicode="&#x2191;" glyph-name="null" horiz-adv-x="256" d="M84 148V157Q111 179 126 209H132Q146 179 174 157V148Q155 157 136 172H120Q102 157 84 148ZM137 -12H119V181H137V-12Z" />
<glyph unicode="&#x2196;" glyph-name="null" horiz-adv-x="256" d="M46 154L56 164Q71 150 87 149T124 154L129 138Q109 131 88 134L212 10L200 -2L76 121Q78 96 71 81L56 86Q62 105 61 121T46 154Z" />
<glyph unicode="&#x2198;" glyph-name="null" horiz-adv-x="256" d="M45 152L169 29Q148 32 128 24L133 9Q175 23 202 0L211 10Q187 33 201 77L186 82Q179 63 182 41L57 165L45 152Z" />
<glyph unicode="&#x2202;" glyph-name="null" horiz-adv-x="256" d="M98 169L101 188Q126 199 146 195T178 174T189 123T180 60T148 9T94 -7T60 34T71 98T121 131T170 105Q174 141 167 157T143 179T98 169ZM166 84Q147 119 123 116T86 86T77 37T99 10T139 24T166 84Z" />
<glyph unicode="&#x2206;" glyph-name="null" horiz-adv-x="256" d="M118 191H137L209 12V4H46V12L118 191ZM127 170L69 20H186L127 170Z" />
<glyph unicode="&#x220f;" glyph-name="null" horiz-adv-x="256" d="M54 197H207V-12H189V181H72L71 -12H53L54 197Z" />
<glyph unicode="&#x2212;" glyph-name="null" horiz-adv-x="256" d="M56 76V91H194V76H56Z" />
<glyph unicode="&#x2215;" glyph-name="null" horiz-adv-x="256" d="M145 202H164L58 1H39L145 202Z" />
<glyph unicode="&#x2219;" glyph-name="null" horiz-adv-x="256" d="M109 85Q109 91 114 96T126 101Q132 101 137 96T142 85Q142 78 137 73T126 68Q119 68 114 73T109 85Z" />
<glyph unicode="&#x2223;" glyph-name="null" horiz-adv-x="256" d="M136 -37H121V178H136V-37Z" />
<glyph unicode="&#x222e;" glyph-name="null" horiz-adv-x="256" d="M172 202V187Q139 195 131 164V25Q130 -7 114 -17T71 -22V-7Q105 -17 115 19L114 165Q115 180 128 193T172 202ZM122 140Q144 140 161 124T178 84Q178 61 162 45T122 27Q96 28 81 45T65 85Q65
108 81 124T122 140ZM122 127Q102 128 90 115T78 85Q77 66 89 54T122 40Q140 41 152 53T165 84Q165 101 153 114T122 127Z" />
<glyph unicode="&#x2234;" glyph-name="null" horiz-adv-x="256" d="M166 29Q166 35 170 39T181 44Q187 44 191 40T196 29Q196 22 192 18T181 14Q174 14 170 18T166 29ZM110 134Q110 140 114 144T125 149Q131 149 135 145T140 134Q140 127 136 123T125 119Q118
119 114 123T110 134ZM53 30Q53 36 57 40T68 45Q74 45 78 41T83 30Q83 23 79 19T68 15Q61 15 57 19T53 30Z" />
<glyph unicode="&#x2235;" glyph-name="null" horiz-adv-x="256" d="M171 135Q171 141 175 145T186 150Q192 150 196 146T201 135Q201 128 197 124T186 120Q179 120 175 124T171 135ZM49 134Q49 140 53 144T64 149Q70 149 74 145T79 134Q79 127 75 123T64 119Q57
119 53 123T49 134ZM110 30Q110 36 114 40T125 45Q131 45 135 41T140 30Q140 23 136 19T125 15Q118 15 114 19T110 30Z" />
<glyph unicode="&#x2237;" glyph-name="null" horiz-adv-x="256" d="M59 114Q59 120 63 124T74 129Q80 129 84 125T89 114Q89 107 85 103T74 99Q67 99 63 103T59 114ZM59 15Q59 21 63 25T74 30Q80 30 84 26T89 15Q89 8 85 4T74 0Q67 0 63 4T59 15ZM162 114Q162
120 166 124T177 129Q183 129 187 125T192 114Q192 107 188 103T177 99Q170 99 166 103T162 114ZM162 15Q162 21 166 25T177 30Q183 30 187 26T192 15Q192 8 188 4T177 0Q170 0 166 4T162 15Z" />
<glyph unicode="&#x223d;" glyph-name="null" horiz-adv-x="256" d="M65 101H81Q85 76 99 76T130 90T169 100T193 61H178Q175 87 162 87T131 74T92 63T65 101Z" />
<glyph unicode="&#x2248;" glyph-name="null" horiz-adv-x="256" d="M70 88H55Q57 114 71 122T100 127T128 113T154 106T170 131H184Q181 99 161 93T119 101T84 112T70 88ZM70 32H55Q57 58 71 66T100 71T128 57T154 50T170 75H184Q181 43 161 37T119 45T84 56T70 32Z" />
<glyph unicode="&#x224c;" glyph-name="null" horiz-adv-x="256" d="M59 55V70H193V55H59ZM59 14V29H193V14H59ZM62 130H78Q82 105 96 105T127 119T166 129T190 90H175Q172 116 159 116T128 103T89 92T62 130Z" />
<glyph unicode="&#x2252;" glyph-name="null" horiz-adv-x="256" d="M63 144Q63 150 67 154T78 159Q84 159 88 155T93 144Q93 137 89 133T78 129Q71 129 67 133T63 144ZM65 99V116H191V99H65ZM64 44V61H190V44H64ZM161 17Q161 23 165 27T176 32Q182 32 186 28T191
17Q191 10 187 6T176 2Q169 2 165 6T161 17Z" />
<glyph unicode="&#x2261;" glyph-name="null" horiz-adv-x="256" d="M66 138V155H180V138H66ZM66 84V101H180V84H66ZM66 29V46H180V29H66Z" />
<glyph unicode="&#x2295;" glyph-name="null" horiz-adv-x="256" d="M122 153Q157 153 183 128T208 66Q209 31 184 5T122 -22Q82 -20 58 6T34 67Q34 102 59 127T122 153ZM122 140Q89 141 68 118T47 67Q46 36 67 15T122 -9Q153 -8 174 14T195 66Q196 96 175 118T122
140ZM41 60V73H204V60H41ZM133 -15H120V146H133V-15Z" />
<glyph unicode="&#x22a5;" glyph-name="null" horiz-adv-x="256" d="M136 10H120V163H136V10ZM37 2V17H217V2H37Z" />
<glyph unicode="&#x22bf;" glyph-name="null" horiz-adv-x="256" d="M213 174L214 2H42L213 174ZM199 18V138L80 18H199Z" />
<glyph unicode="&#x2462;" glyph-name="null" horiz-adv-x="256" d="M127 191Q168 191 198 163T229 91Q230 50 200 20T127 -12Q81 -10 53 20T25 91Q25 131 54 161T127 191ZM127 180Q86 181 61 154T36 91Q35 54 60 28T127 -1Q166 0 192 27T218 91Q217 128 191 154T127
180ZM111 144T111 144T109 148T107 152T113 157T120 161T126 161T131 161T136 156T142 151T144 144T144 133T135 120T120 104Q131 108 139 108T154 105T162 100T167 94T165 77T150 55T128 35T109 21T97 16L92 24Q97 28 103 33T118 48T135 65T147 78T152 86T152
90T148 92T139 94T125 91T99 86L94 94Q105 106 112 114T123 127T130 138Q132 143 131 143T128 145T122 146T115 145Z" />
<glyph unicode="&#x2466;" glyph-name="null" horiz-adv-x="256" d="M127 191Q168 191 197 163T229 91Q230 50 200 20T127 -11Q81 -10 53 20T25 91Q25 131 54 161T127 191ZM127 181Q86 181 61 154T35 91Q35 54 60 27T127 -1Q166 -1 193 26T219 91Q218 128 191
154T127 181ZM90 131L88 141Q96 143 108 146T135 151T152 153T167 150V143Q159 140 159 139T153 129T139 100T125 62T115 23L118 18L110 13L103 19Q102 29 104 39T112 66T124 101T139 137Q121 134 110 133T90 131Z" />
<glyph unicode="&#x2467;" glyph-name="null" horiz-adv-x="256" d="M127 191Q168 191 198 163T229 91Q230 50 200 20T127 -12Q81 -10 53 20T25 91Q25 131 54 161T127 191ZM127 180Q86 181 61 154T36 91Q35 54 60 28T127 -1Q166 0 192 27T218 91Q217 128 191 154T127
180ZM103 122T103 129T108 144T113 154T129 161L136 160L149 152Q153 142 153 140T148 123H138Q142 136 142 138T140 146L134 149Q125 144 119 133Q119 124 119 123T124 116T141 101T159 79T157 51T136 27T109 18T89 26T83 48T90 74T106 94T126 107T151 115L155
106Q141 103 132 96T116 83T105 70T98 53T101 33Q119 29 127 36T142 54T146 73T132 91T112 111Z" />
<glyph unicode="&#x2468;" glyph-name="null" horiz-adv-x="256" d="M127 191Q168 191 198 163T229 91Q230 50 200 20T127 -12Q81 -10 53 20T25 91Q25 131 54 161T127 191ZM127 180Q86 181 61 154T36 91Q35 54 60 28T127 -1Q166 0 192 27T218 91Q217 128 191 154T127
180ZM125 101Q113 102 105 105T94 110T90 120T88 131T94 142T100 151T111 157T121 161T130 160T139 158T149 150T158 132T155 114T147 102T140 79T135 46T135 24L128 19L121 25Q120 30 121 46T123 70T127 91Q120 88 108 86T91 85T82 90L84 97Q87 94 91 94T106 96T125
101ZM126 150T125 150T117 146T106 138T101 127T109 117T137 111Q143 120 143 124T143 134T142 139T134 145Z" />
<glyph unicode="&#x247c;" glyph-name="null" horiz-adv-x="256" d="M132 99Q120 100 112 103T102 108T98 117T96 128T102 138T109 147T119 152T129 156T138 155T146 153T156 146T165 129T162 112T153 100T147 79T142 48T142 26L135 21L129 27Q128 32 129 47T131
70T134 90Q128 86 117 85T100 84T91 88L93 95Q96 93 100 93T115 94T132 99ZM133 145T132 145T125 142T114 134T109 124T117 115T144 109Q150 118 150 122T150 130T149 135T141 140ZM67 172Q71 173 79 170Q71 161 68 156T59 142T52 124T48 108T46 89Q48 76 53 64T66
40T80 23L79 17Q75 13 73 14Q68 17 65 19T53 33T39 60T33 89Q33 97 34 106T38 127T47 147T56 161T67 172ZM190 172Q196 170 201 166Q215 155 220 135T225 99T220 69T209 40T194 16Q188 13 184 15L182 20Q188 29 195 44T207 73T212 99T210 128T193 158L185 165Q187
168 190 172Z" />
<glyph unicode="&#x2480;" glyph-name="null" horiz-adv-x="256" d="M110 161Q109 150 107 130T102 75T98 31H92Q84 39 84 41T86 76T91 132T100 164L110 161ZM144 147T143 147T141 151T139 155T146 159T153 163T159 163T165 163T170 158T176 154T178 148T178 137T169
125T153 111Q165 115 173 115T188 112T197 107T202 101T200 86T185 66T162 47T142 34T129 30L123 37Q129 41 135 45T151 59T169 75T181 87T186 94T186 98T182 100T173 102T158 99T131 94L125 102Q137 113 144 120T156 133T164 142Q166 146 165 146T161 148T155
149T148 148ZM66 172Q70 173 78 170Q70 161 67 156T58 142T51 124T47 108T45 89Q47 76 52 64T65 40T79 23L78 17Q74 13 72 14Q67 17 64 19T52 33T38 60T32 89Q32 97 33 106T37 127T46 147T55 161T66 172ZM201 172Q207 170 212 166Q226 155 231 135T236 99T231 69T220
40T205 16Q199 13 195 15L193 20Q199 29 206 44T218 73T223 99T221 128T204 158L196 165Q198 168 201 172Z" />
<glyph unicode="&#x2481;" glyph-name="null" horiz-adv-x="256" d="M102 163Q101 151 99 131T94 75T90 30H84Q76 38 75 40T77 76T82 133T92 165L102 163ZM139 164L145 160Q140 146 137 136T131 115T127 99T125 92T126 88T129 86T134 86T152 91T184 109Q180 115
175 121T168 132Q172 131 179 126T191 119T196 115T198 108T196 102T184 92T158 77T134 71T121 74T115 79T113 87T114 101T118 121T125 143T139 164ZM160 155T161 156T164 159T168 160T170 151T171 138T170 129T169 125T167 115T162 89T159 71T159 65T157 54T152
29L144 34Q143 44 144 55T149 85T154 120T158 146ZM65 172Q69 173 77 170Q69 161 66 156T57 142T50 124T46 108T44 89Q46 76 51 64T64 40T78 23L77 17Q73 13 71 14Q66 17 63 19T51 33T37 60T31 89Q31 97 32 106T36 127T45 147T54 161T65 172ZM195 172Q201 170 206
166Q220 155 225 135T230 99T225 69T214 40T199 16Q193 13 189 15L187 20Q193 29 200 44T212 73T217 99T215 128T198 158L190 165Q192 168 195 172Z" />
<glyph unicode="&#x2483;" glyph-name="null" horiz-adv-x="256" d="M105 165Q104 153 102 133T97 79T93 36H87Q79 44 79 46T80 81T85 136T95 167L105 165ZM158 170L167 169L168 162Q159 149 154 141T144 119T136 94Q149 100 158 100T175 98T185 93T190 86T193
78T189 67T180 53T164 41T144 35T128 38T121 43T118 52T117 72T122 95T131 122T142 149T158 170ZM141 82T140 81T137 75T129 70Q128 59 134 50Q143 47 144 47T153 51T163 56T167 62T174 71T178 77T176 81T174 85T164 87T148 86ZM64 172Q68 173 76 170Q68 161 65
156T56 142T49 124T45 108T43 89Q45 76 50 64T63 40T77 23L76 17Q72 13 70 14Q65 17 62 19T50 33T36 60T30 89Q30 97 31 106T35 127T44 147T53 161T64 172ZM198 172Q204 170 209 166Q223 155 228 135T233 99T228 69T217 40T202 16Q196 13 192 15L190 20Q196 29
203 44T215 73T220 99T218 128T201 158L193 165Q195 168 198 172Z" />
<glyph unicode="&#x2484;" glyph-name="null" horiz-adv-x="256" d="M106 166Q105 154 103 134T98 80T94 37H88Q80 45 79 47T81 82T87 137T96 168L106 166ZM118 143L116 153Q124 155 135 158T160 163T177 165T192 162V155Q183 152 183 151T178 142T165 114T151
79T142 43L145 38L137 33L130 39Q129 49 131 58T138 83T149 115T164 149Q147 146 137 145T118 143ZM60 174Q64 175 72 172Q64 163 61 158T52 144T45 126T41 110T39 91Q41 78 46 66T59 42T73 25L72 19Q68 15 66 16Q61 19 58 21T46 35T32 62T26 91Q26 99 27 108T31
129T40 149T49 163T60 174ZM199 172Q205 170 210 166Q224 155 229 135T234 99T229 69T218 40T203 16Q197 13 193 15L191 20Q197 29 204 44T216 73T221 99T219 128T202 158L194 165Q196 168 199 172Z" />
<glyph unicode="&#x2486;" glyph-name="null" horiz-adv-x="256" d="M105 165Q104 153 102 133T98 77T94 32H88Q80 40 79 42T81 78T86 135T95 167L105 165ZM154 109Q141 110 132 113T121 118T117 128T115 140T121 151T128 161T139 167T150 171T160 170T169 168T179
160T189 141T186 122T177 110T169 87T164 53T164 29L157 24L150 30Q149 36 150 52T152 77T156 99Q149 95 137 93T119 92T109 97L111 105Q114 102 119 102T135 104T154 109ZM155 159T154 159T146 155T134 147T129 136T138 125T166 119Q173 129 173 133T173 143T172
148T163 154ZM66 172Q70 173 78 170Q70 161 67 156T58 142T51 124T47 108T45 89Q47 76 52 64T65 40T79 23L78 17Q74 13 72 14Q67 17 64 19T52 33T38 60T32 89Q32 97 33 106T37 127T46 147T55 161T66 172ZM194 172Q200 170 205 166Q219 155 224 135T229 99T224 69T213
40T198 16Q192 13 188 15L186 20Q192 29 199 44T211 73T216 99T214 128T197 158L189 165Q191 168 194 172Z" />
<glyph unicode="&#x2488;" glyph-name="null" horiz-adv-x="256" d="M189 23Q189 28 192 31T201 35Q206 35 209 32T213 23Q213 18 210 15T201 11Q196 11 193 14T189 23ZM140 152Q139 140 136 119T130 62T125 17H119Q111 25 110 27T113 64T120 122T130 154L140 152Z" />
<glyph unicode="&#x2489;" glyph-name="null" horiz-adv-x="256" d="M189 23Q189 28 192 31T201 35Q206 35 209 32T213 23Q213 18 210 15T201 11Q196 11 193 14T189 23ZM117 138L116 147Q128 155 132 155T140 154T149 151T155 149T161 138T160 114T147 85T130
58T117 42T113 37T116 36T133 38T154 39T174 34L167 21Q162 23 154 23T134 23T114 21T102 20T95 19T91 22T93 30T102 45T118 65T135 91T145 116T148 133T141 140T133 142T117 138Z" />
<glyph unicode="&#x248a;" glyph-name="null" horiz-adv-x="256" d="M190 22Q190 27 193 30T202 34Q207 34 210 31T214 22Q214 17 211 14T202 10Q197 10 194 13T190 22ZM116 140T116 140T114 145T112 149T118 153T125 157T130 157T135 157T140 152T146 148T148
141T148 130T139 117T125 102Q135 106 143 106T157 103T165 98T170 92T169 76T154 55T133 35T114 21T103 17L97 24Q103 28 108 33T123 47T140 64T151 77T155 85T155 89T151 91T143 92T129 90T105 84L99 92Q110 104 117 112T128 125T135 135Q136 139 136 139T132
141T127 142T120 141Z" />
<glyph unicode="&#x248c;" glyph-name="null" horiz-adv-x="256" d="M191 23Q191 28 194 31T203 35Q208 35 211 32T215 23Q215 18 212 15T203 11Q198 11 195 14T191 23ZM119 163L126 162Q124 149 124 149T132 150T150 153T161 154T162 149T161 143T152 142T135
139T123 133L117 113Q127 115 139 114T159 104T168 83T161 57T142 34T122 23T109 20T102 21T96 27L101 37Q105 33 109 33T119 34T131 42T143 57T152 78T149 95T136 102T127 103T120 101T101 98Q103 109 106 125T119 163Z" />
<glyph unicode="&#x248d;" glyph-name="null" horiz-adv-x="256" d="M191 24Q191 29 194 32T203 36Q208 36 211 33T215 24Q215 19 212 16T203 12Q198 12 195 15T191 24ZM134 163L143 162L144 154Q135 141 130 133T120 110T112 84Q125 91 134 91T151 88T161 84T166
76T169 68T165 56T156 41T140 29T120 23T104 27T97 32T94 41T93 62T98 86T107 113T118 141T134 163ZM117 71T116 70T113 64T105 59Q104 48 110 39Q119 35 120 35T129 40T139 45T143 51T150 61T154 67T152 71T150 75T140 77T124 75Z" />
<glyph unicode="&#x248e;" glyph-name="null" horiz-adv-x="256" d="M186 22Q186 27 189 30T198 34Q203 34 206 31T210 22Q210 17 207 14T198 10Q193 10 190 13T186 22ZM93 133L91 143Q99 145 111 147T138 152T155 155T169 152V145Q161 142 161 141T156 132T142
103T128 67T119 30L122 25L114 20L107 26Q106 35 108 45T115 71T127 104T142 139Q124 135 113 134T93 133Z" />
<glyph unicode="&#x2494;" glyph-name="null" horiz-adv-x="256" d="M203 21Q203 26 206 29T215 33Q220 33 223 30T227 21Q227 16 224 13T215 9Q210 9 207 12T203 21ZM101 153Q100 141 98 121T92 65T88 20H82Q74 28 73 30T75 66T81 123T91 155L101 153ZM139 141T139
141T137 145T135 149T141 153T147 157T153 157T158 157T163 152T168 148T170 141T170 130T161 118T147 103Q158 107 165 107T179 104T187 99T191 93T190 78T176 57T155 37T138 24T126 20L121 27Q126 30 131 35T146 49T162 66T173 79T177 86T177 90T173 92T165 93T152
91T128 85L123 93Q133 105 139 112T150 125T157 135Q159 140 158 140T155 141T149 142T143 142Z" />
<glyph unicode="&#x2495;" glyph-name="null" horiz-adv-x="256" d="M193 20Q193 25 196 28T205 32Q210 32 213 29T217 20Q217 15 214 12T205 8Q200 8 197 11T193 20ZM94 153Q93 141 91 121T85 65T81 20H75Q67 28 66 30T68 66T74 123T84 155L94 153ZM135 154L141
150Q136 136 133 126T127 105T122 89T120 82T121 78T124 76T130 76T148 81T180 99Q177 105 172 111T164 122Q168 121 176 116T188 109T193 105T194 98T193 92T181 82T153 67T129 61T117 64T111 69T109 77T110 91T113 111T120 133T135 154ZM156 145T157 146T160
149T164 150T166 141T167 128T166 119T165 115T163 105T158 79T155 61T155 55T153 44T148 19L140 24Q139 34 140 45T145 75T150 110T154 136Z" />
<glyph unicode="&#x2496;" glyph-name="null" horiz-adv-x="256" d="M198 20Q198 25 201 28T210 32Q215 32 218 29T222 20Q222 15 219 12T210 8Q205 8 202 11T198 20ZM105 156Q104 144 102 124T96 68T91 23H85Q77 31 77 33T79 69T85 126T95 158L105 156ZM141 161L150
159Q148 148 148 148T155 149T172 152T184 153T186 147T184 140T174 139T159 136T147 130L140 114Q150 116 162 115T183 105T192 86T185 60T166 37T146 26T132 23T124 23T117 29L122 41Q128 37 132 37T142 39T153 46T165 60T174 79T171 95T159 101T150 102T143
100T122 97Q124 110 128 124T141 161Z" />
<glyph unicode="&#x2497;" glyph-name="null" horiz-adv-x="256" d="M197 21Q197 26 200 29T209 33Q214 33 217 30T221 21Q221 16 218 13T209 9Q204 9 201 12T197 21ZM96 156Q95 144 93 123T87 65T83 19H77Q69 27 69 29T71 66T76 125T86 158L96 156ZM156 156L164
155L165 148Q156 135 152 127T142 105T135 80Q147 86 156 86T172 84T181 79T186 72T189 64T185 53T176 39T161 27T143 21T127 24T120 29T118 38T117 58T121 81T130 108T141 135T156 156ZM139 68T138 67T135 61T128 56Q127 45 133 36Q141 33 142 33T151 37T160 42T164
48T171 57T175 63T173 67T171 71T162 73T146 72Z" />
<glyph unicode="&#x25c6;" glyph-name="null" horiz-adv-x="256" d="M128 207L243 92L128 -23L13 91L128 207Z" />
<glyph unicode="&#x3001;" glyph-name="null" horiz-adv-x="256" d="M45 32Q52 26 60 24L66 21L69 9L70 2Q64 -3 57 0L52 12Q44 20 34 27L32 31L35 32H45Z" />
<glyph unicode="&#x3004;" glyph-name="null" horiz-adv-x="256" d="M120 178V201Q75 192 45 164T11 103T17 42T52 -5T94 -26T120 -19T127 3T107 30T87 52T94 61T115 40H135V97Q148 89 166 99T176 163Q201 149 211 125T220 74T207 33T181 8T131 -8V-28Q169 -26
190 -12T222 16T237 47T241 93T222 150T157 193V134Q160 116 146 116T135 134H114V76Q100 85 86 82T66 61T75 31T100 5T94 -3T62 15T37 49T32 99T62 150T120 178Z" />
<glyph unicode="&#x3006;" glyph-name="null" horiz-adv-x="256" d="M55 8L40 22Q63 68 77 98T101 132T120 133T146 114L208 166L223 149L162 97L179 76L162 62L144 82L55 8ZM82 58L130 99Q121 110 116 110T106 104T82 58Z" />
<glyph unicode="&#x3009;" glyph-name="null" horiz-adv-x="256" d="M44 136L70 111L83 99Q90 92 94 83L86 73L81 65Q75 56 70 48Q67 40 64 32Q58 20 51 11Q51 6 48 4Q44 1 40 3Q36 5 37 10Q46 22 55 36Q57 47 63 57L78 84L77 87Q60 103 45 121L33 133V138L37
140L44 136Z" />
<glyph unicode="&#x300c;" glyph-name="null" horiz-adv-x="256" d="M211 152Q215 150 219 149V146Q212 143 205 141Q197 142 190 139Q188 124 186 111V33Q185 19 188 7H187Q183 0 178 2L176 7Q174 39 175 73Q175 100 178 121V141L181 145Q193 146 205 148L211 152Z" />
<glyph unicode="&#x300d;" glyph-name="null" horiz-adv-x="256" d="M78 147L80 137Q78 117 77 98Q78 59 79 39L76 28Q78 14 77 0L72 -1L65 2Q53 1 42 0L34 1Q32 3 35 6Q49 6 64 9Q67 20 68 33V108Q68 126 70 145L75 148L78 147Z" />
<glyph unicode="&#x300e;" glyph-name="null" horiz-adv-x="256" d="M216 160Q218 158 222 157V153L218 150L217 144Q217 138 216 133H211L207 129L205 130L196 129Q196 120 193 112L195 104Q193 93 192 83Q192 77 193 59L192 53Q194 28 192 5L193 0L192 -5L188
-8Q184 -6 181 -1L177 -9H171Q166 0 168 12Q168 27 171 44L170 45L172 56Q171 92 168 113L171 123Q169 140 171 154H176L180 150Q198 154 216 160ZM204 147Q193 145 183 143L180 141Q180 126 179 112Q180 103 181 94Q178 90 180 86L182 60Q178 53 179 46Q179 25
178 5L181 3Q182 5 183 9Q180 16 183 23Q183 38 183 54L185 59Q182 91 185 108L183 111Q186 119 188 128L185 130L186 133Q196 134 205 139V146L204 147Z" />
<glyph unicode="&#x3010;" glyph-name="null" horiz-adv-x="256" d="M218 155Q216 150 221 146L219 144L209 143L204 134L200 122Q198 105 196 96Q196 84 194 74Q198 43 198 31L205 8L208 7Q208 3 211 0H214L216 -5L215 -7L209 -10Q193 -5 171 -7L169 -10Q164
-10 161 -11Q156 -6 157 0Q161 8 161 15T161 30Q157 93 161 144Q157 146 158 150L160 154Q183 153 205 153L218 155Z" />
<glyph unicode="&#x3013;" glyph-name="null" horiz-adv-x="256" d="M44 131V170H212V131H44ZM44 18V57H212V18H44Z" />
<glyph unicode="&#x3015;" glyph-name="null" horiz-adv-x="256" d="M46 162Q59 149 75 142Q73 131 71 121L73 100Q72 84 74 68Q72 30 75 6L71 1Q57 -2 44 -8H37L33 -3L35 0Q48 7 61 9L64 14Q62 36 64 73L61 80L62 93L61 123L62 140Q51 145 40 154L38 160L41 162H46Z" />
<glyph unicode="&#x3222;" glyph-name="null" horiz-adv-x="256" d="M55 176Q59 177 67 174Q59 164 56 158T47 143T40 124T36 106T34 85Q36 71 41 58T54 32T68 13L67 7Q63 2 61 3Q56 7 53 9T41 24T27 54T21 85Q21 94 22 104T26 127T35 149T44 164T55 176ZM198
179Q204 177 209 172Q223 160 228 138T233 98T228 65T217 33T202 6Q196 3 192 5L190 10Q196 20 203 37T215 69T220 99T218 131T201 164L193 171Q195 175 198 179ZM118 83Q108 83 107 83T100 92L111 102L143 109H148Q147 102 151 96L124 90L118 83ZM88 128L92 137Q116
143 126 146T146 156H163Q165 145 145 137T88 128ZM68 40V53Q83 57 99 60T131 63T166 63L164 83Q173 70 186 68L190 45Q170 53 160 53T135 52T104 44T68 40Z" />
<glyph unicode="&#x3225;" glyph-name="null" horiz-adv-x="256" d="M55 176Q59 177 67 174Q59 164 56 158T47 143T40 124T36 106T34 85Q36 71 41 58T54 32T68 13L67 7Q63 2 61 3Q56 7 53 9T41 24T27 54T21 85Q21 94 22 104T26 127T35 149T44 164T55 176ZM198
178Q204 176 209 171Q223 159 228 137T233 97T228 64T217 32T202 5Q196 2 192 4L190 9Q196 19 203 36T215 68T220 98T218 130T201 163L193 170Q195 174 198 178ZM55 84V95Q68 87 73 89T94 99T124 116T152 130T176 140L195 136L191 123Q174 114 161 107T133 95Q144
108 151 120Q155 118 149 117T129 107T99 89T75 78T55 84ZM102 141L105 151L114 158H129L131 146L122 137L117 146L102 141ZM149 72Q159 79 161 79T178 76L184 62Q178 53 175 47T170 39T153 24Q166 45 166 48T169 55T167 65Q157 66 149 72ZM103 69T104 71T107 73T114
79L124 71Q121 65 119 62T114 51Q118 37 118 36T112 34T104 33T97 44Q103 69 104 71Z" />
<glyph unicode="&#x3228;" glyph-name="null" horiz-adv-x="256" d="M59 182Q63 183 71 180Q63 169 60 163T51 147T44 127T40 108T38 86Q40 71 45 57T58 29T72 10L71 3Q67 -2 65 -1Q60 3 57 5T45 21T31 53T25 86Q25 95 26 106T30 130T39 153T48 169T59 182ZM198
181Q204 179 209 174Q223 161 228 138T233 97T228 62T217 28T202 1Q196 -3 192 -1L190 5Q196 16 203 33T215 66T220 97T218 131T201 165L193 173Q195 176 198 181ZM98 159L109 166Q120 157 119 148T118 133T116 118T111 92T103 61T97 44T87 31L78 40Q87 56 91 68T98
100T102 134T98 159ZM89 82T78 72L64 76V85Q80 93 90 100T115 120T141 139L147 133Q145 124 144 107T138 70T133 43T137 26Q138 28 140 29T151 36T186 66Q187 82 189 97Q194 93 196 91T200 86T204 78T205 62Q194 56 181 45T157 28T140 19T130 17T126 19T124 24T125
42T129 73T132 122Q122 108 109 98T92 85Z" />
<glyph unicode="&#x3229;" glyph-name="null" horiz-adv-x="256" d="M57 179Q61 180 69 177Q61 167 58 161T49 145T42 125T38 107T36 86Q38 71 43 58T56 31T70 11L69 5Q65 0 63 1Q58 5 55 7T43 23T29 53T23 86Q23 95 24 105T28 128T37 151T46 166T57 179ZM198
181Q204 179 209 174Q223 161 228 138T233 97T228 62T217 28T202 1Q196 -3 192 -1L190 5Q196 16 203 33T215 66T220 97T218 131T201 165L193 173Q195 176 198 181ZM116 160Q125 168 127 169T139 166Q144 151 142 138T140 99T142 48T156 13L141 -1Q131 5 130 5T127
8T113 28Q121 26 131 25Q125 73 125 96T127 133T125 151T116 160ZM67 81L52 92Q82 95 100 98T141 107T183 123L174 128Q182 135 184 135T196 132L200 117Q193 111 181 106T152 97T122 89T99 85T67 81Z" />
<glyph unicode="&#x3231;" glyph-name="null" horiz-adv-x="256" d="M46 198H66Q33 155 27 116T27 38T66 -35H46Q17 -4 10 31T7 110T46 198ZM188 198H208Q244 150 248 104T241 22T208 -35H188Q215 -5 224 30T229 108T188 198ZM36 133V149H105V133H36ZM81 -2H62V184H81V-2ZM44
53L30 63Q43 86 47 97T62 145L78 142Q68 105 62 90T44 53ZM62 114L72 127Q88 115 105 92L92 79Q78 99 62 114ZM124 178L137 170Q133 154 128 140T114 113L101 122Q108 133 113 146T124 178ZM122 138V154H208V138H122ZM168 -4H150V184H168V-4ZM106 91V107H215V91H106ZM114
12L100 22Q118 45 124 56T140 100L156 96Q147 65 139 50T114 12ZM156 80L167 94Q189 73 213 38L200 24Q179 56 156 80Z" />
<glyph unicode="&#x32a3;" glyph-name="null" horiz-adv-x="256" d="M128 212Q177 212 213 177T249 91Q251 41 215 5T128 -33Q73 -31 40 5T6 91Q6 140 41 176T128 212ZM128 199Q81 200 50 167T19 91Q18 46 48 14T128 -20Q173 -19 205 13T236 91Q236 135 205 167T128
199ZM57 145V164H200V145H57ZM141 24H120V157H141V24ZM130 85V104H199V85H130ZM90 25H69V120H90V25ZM52 16V35H206V16H52Z" />
<glyph unicode="&#x338e;" glyph-name="null" horiz-adv-x="256" d="M221 117V138H236L237 7Q234 -27 218 -39T184 -52T150 -41L149 -26Q166 -37 181 -37T206 -30T219 -9T220 33Q212 14 197 10T166 13T145 47T145 94T163 126T191 137T221 117ZM223 103T212 114T189
124T169 112T160 85T161 53T172 28T196 22T221 54Q223 103 212 114ZM9 138H24V115Q28 126 34 130T47 136T62 133T74 110Q83 130 92 133T111 134T125 124T131 94V10H115V94Q114 114 107 120T91 122T78 93V10H62Q63 95 61 105T56 119T47 123T35 120T24 98V10H9V138Z"
/>
<glyph unicode="&#x338f;" glyph-name="null" horiz-adv-x="256" d="M45 7H29V199H45V7ZM98 137H119L67 74L123 7H101L48 73L98 137ZM205 117V139H220L221 5Q218 -29 202 -41T166 -54T131 -44L130 -29Q147 -39 163 -39T190 -32T203 -11T204 32Q195 13 180 8T147
11T126 46T126 93T144 126T173 137T205 117ZM207 103T196 114T171 124T150 112T141 85T142 51T154 26T179 21T205 53Q207 103 196 114Z" />
<glyph unicode="&#x339c;" glyph-name="null" horiz-adv-x="256" d="M14 138H29V115Q31 126 35 130T47 136T61 134T71 110Q79 130 87 134T103 135T116 124T122 94V10H106V94Q105 114 99 119T85 121T75 93V10H59Q60 94 59 104T55 119T47 123T36 120T30 97L29 10H14V138ZM138
138H154V115Q156 126 160 130T171 136T186 134T196 110Q204 130 212 134T228 135T241 124T247 94V10H231V94Q230 114 224 119T210 121T200 93V10H184Q185 94 184 104T180 119T172 123T161 120T155 97L154 10H138V138Z" />
<glyph unicode="&#x339d;" glyph-name="null" horiz-adv-x="256" d="M101 127V111Q76 122 57 116T31 91T29 54T53 27T101 32V17Q69 4 46 13T15 43T13 88T44 126T101 127ZM113 132H128V110Q133 121 139 125T153 131T169 129T182 106Q192 125 202 129T222 130T236
119T243 90V8H227V90Q225 109 217 114T200 116T186 89V8H170Q171 90 169 100T162 114T153 118T140 115T129 92L128 8H113V132Z" />
<glyph unicode="&#x33d1;" glyph-name="null" horiz-adv-x="256" d="M106 138H122V112Q141 131 149 134T170 137T196 126T210 80V3H193V80Q192 101 185 111T165 122T137 114T122 77V3H106V138ZM64 4H48V205H64V4Z" />
<glyph unicode="&#x4e00;" glyph-name="null" horiz-adv-x="256" d="M37 71V84Q52 76 58 77T85 85T124 99T160 111T193 117L214 113L210 98Q185 92 169 86T136 75Q149 90 160 99Q162 97 155 96T130 87T92 72T61 64T37 71Z" />
<glyph unicode="&#x4e05;" glyph-name="null" horiz-adv-x="256" d="M32 137V148Q45 140 53 142T83 152T125 168T162 182T199 191L218 187L214 174Q187 166 170 159T138 148Q149 161 164 172Q162 170 156 169T130 159T88 141T55 131T32 137ZM114 140L129 156L135
152Q135 137 136 105T138 43T139 6T140 -6T139 -20L133 -26Q122 -12 118 -7T116 8T121 26Q122 19 124 23Q123 71 122 95T119 123T114 140Z" />
<glyph unicode="&#x4e07;" glyph-name="null" horiz-adv-x="256" d="M24 132V146Q40 137 46 138T72 148T109 165T144 179T175 188L198 183L193 167Q171 160 156 153T121 141Q135 157 144 167Q148 164 140 163T116 153T78 135T49 125T24 132ZM104 138L119 141Q132
148 127 135T116 119T110 105T104 80T95 58T89 45T77 29L66 40Q77 59 81 66T89 90T97 120T104 138ZM105 95Q111 110 118 118T139 127T162 129T173 134T192 134Q204 124 205 122T200 100T188 69T177 35T172 4T159 -24Q142 -17 140 -14T137 -5T127 20Q140 7 151 4Q154
23 160 35T172 66T181 98T184 114T182 117T175 119T161 117T140 112T105 95Z" />
<glyph unicode="&#x4e09;" glyph-name="null" horiz-adv-x="256" d="M109 70Q97 70 96 71T88 81L101 93L150 104H157Q155 95 160 88L116 79L109 70ZM61 132L67 145Q106 156 125 161T157 174H180Q182 158 151 147T61 132ZM32 7V23Q51 27 79 33T132 39T193 39L190
64Q202 48 223 45L227 17Q197 27 180 27T138 26T85 13T32 7Z" />
<glyph unicode="&#x4e0a;" glyph-name="null" horiz-adv-x="256" d="M118 106L115 115Q122 121 127 124T136 128T149 131L158 126L162 115Q152 103 148 95T124 80Q143 107 143 117Q131 108 118 106ZM92 177L102 187Q113 185 117 181T122 174T120 161T116 123T116
79T116 55T121 40L108 29Q98 40 98 45T97 53T101 64Q99 93 99 124T102 156T104 162T92 177ZM23 -8L19 5Q36 5 40 5T77 16T139 35T176 42T195 50Q206 47 212 48T238 40L240 20L225 13Q209 29 201 30T154 23T82 2T42 -11T23 -8Z" />
<glyph unicode="&#x4e0b;" glyph-name="null" horiz-adv-x="256" d="M42 125L26 132L28 150L44 157Q49 145 54 145T104 160T163 186T197 196H208Q208 187 205 179T196 168T174 156L160 159L177 178L175 180Q153 163 42 125ZM132 150L146 165L152 161Q152 147 152
113T152 39T151 -2T150 -8T149 -21L143 -27Q132 -14 131 -14T129 -4T132 15Q133 8 138 9Q138 77 138 103T136 134T132 150ZM148 99T141 94Q145 101 146 103Q159 112 161 112T167 109T215 95L213 78Q179 69 161 67Q166 73 182 86Q172 93 161 98Q152 92 149 92T147
95Z" />
<glyph unicode="&#x4e11;" glyph-name="null" horiz-adv-x="256" d="M70 114L58 128Q62 145 64 147T85 159T122 175T146 183T161 177T173 168T176 159T172 136T161 103T144 66T122 39T99 39T85 54T77 74Q87 65 90 60T100 49T113 50T126 72T143 102T154 160V165Q138
166 134 167T115 160T90 145T79 137T79 130T70 114ZM104 134T127 123Q122 95 111 76T92 47L85 54Q94 59 94 59T96 78T99 113T102 132ZM81 65L76 74Q95 93 106 106T137 121L139 106Q126 94 115 88T81 65ZM18 -11L15 2Q38 7 47 8T74 18T101 29T124 32T160 36T205
41L212 53Q235 46 248 46Q243 36 243 24Q230 26 218 26T195 26T164 24T123 18T82 5T58 -9T43 -13T18 -11Z" />
<glyph unicode="&#x4e13;" glyph-name="null" horiz-adv-x="256" d="M113 174L105 188L115 201L130 197L136 187Q140 174 141 160T136 122T125 91T109 64Q129 66 133 66T159 68L163 55Q158 42 154 37T141 28T119 16Q134 11 146 8T198 -10L196 -29L146 -12L148
-6Q133 2 123 1T107 -3T92 -4L90 3Q94 7 100 12T113 22T129 35T144 48T148 57Q140 56 135 55T124 51T88 33L82 43Q96 68 99 72T109 87T122 121T129 170L128 176L113 174ZM92 133L88 142Q96 148 101 151T124 160T151 168L160 162L164 151Q140 134 136 126T97 106Q131
138 145 153Q105 135 92 133ZM23 49L21 62Q31 65 42 70T72 81T121 95T195 114L178 126Q197 128 200 129T211 128T233 123L231 106Q205 99 180 95T129 83T77 65T23 49Z" />
<glyph unicode="&#x4e15;" glyph-name="null" horiz-adv-x="256" d="M26 -14L23 -2Q45 3 54 4T78 14T102 25T123 28T156 30T197 32L204 45Q226 37 238 37Q233 27 233 15Q221 18 209 18T188 19T160 18T123 13T86 1T64 -12T51 -16T26 -14ZM36 157L44 167Q60 159
67 159T87 165T108 173T133 180T166 189H178L176 175Q166 167 155 160T140 149T121 128T97 98T62 54L50 58Q71 88 83 103T104 134T115 156T117 162T122 161T128 160T139 167L135 171Q114 161 97 153T62 146T36 157ZM110 122L118 130L127 128Q136 110 136 103T133
92T128 75T128 57T131 46T122 33Q114 39 113 43T113 53T114 74T113 99T110 122ZM132 126H161Q178 114 187 111T209 102L205 83L182 87Q182 95 181 95T175 99T132 126Z" />
<glyph unicode="&#x4e16;" glyph-name="null" horiz-adv-x="256" d="M135 166Q149 164 151 162T152 145T148 113T146 74Q153 102 161 128T171 160T178 162T178 154T169 122T160 82T146 48L134 51Q134 73 134 86T134 117T135 166ZM169 173T172 180T179 192T183
198T187 192T192 182T190 158T183 113T179 77T192 56L183 43Q162 38 152 43L149 52Q157 55 166 62Q166 69 166 78T168 107T170 150ZM77 167L113 160L105 155Q98 135 101 109T102 67T99 45T100 20Q111 15 116 7T128 -1T155 5T193 18L183 36L231 31V11Q213 11 198
5T156 -9T119 -14T93 5Q89 11 88 30T86 63T84 102T77 167ZM19 51L16 64Q57 79 95 91T143 107T199 124Q167 128 156 135Q167 137 193 139T234 137L232 124Q224 114 192 106T152 94T104 77T19 51Z" />
<glyph unicode="&#x4e17;" glyph-name="null" horiz-adv-x="256" d="M16 57L13 68Q34 73 44 75T72 87T98 99T120 103T157 109T203 118L210 130Q230 123 244 125Q239 116 239 104Q226 104 215 104T192 104T161 99T120 90T79 75T54 59T39 54T16 57ZM130 182L139
180Q144 172 146 165T147 119T144 53T146 15T151 -1L134 -8L123 10L129 13Q131 78 129 119T127 169T130 182ZM175 177L182 183L197 172Q199 157 195 132T191 72T192 26T193 9T190 -4L183 -2Q177 19 169 43L181 35Q178 99 177 130T175 177ZM72 168L108 161L101 156Q92
136 93 110T91 68T87 46T83 20Q94 15 99 7T111 -1T138 3T178 15L167 33L216 28V8Q198 8 182 2T139 -10T102 -14T76 5Q75 12 74 31T73 65T75 103T72 168Z" />
<glyph unicode="&#x4e18;" glyph-name="null" horiz-adv-x="256" d="M108 77L103 86Q130 99 146 108T182 119L184 104Q171 92 155 90T108 77ZM138 97L148 99Q158 72 147 28L132 23Q134 68 138 97ZM19 -20L14 -15L24 -1Q72 11 111 22T186 36T240 45L244 30Q240
25 233 24T193 21T124 9T60 -8T19 -20ZM129 182L134 196L150 184Q150 174 148 166T131 147T86 110Q99 96 99 94T96 71T93 21L80 16Q73 31 76 41T79 69T75 92Q53 86 44 95Q70 113 88 128T119 154T134 179L129 182Z" />
<glyph unicode="&#x4e1a;" glyph-name="null" horiz-adv-x="256" d="M23 -8L18 6Q36 6 40 6T77 11T138 17T176 17T195 25Q206 23 212 24T238 14L240 -6L225 -13Q209 3 201 5T154 5T83 -4T42 -11T23 -8ZM82 138L88 148H107Q109 129 109 108T110 69T110 48T103 33L88
45Q90 56 91 70T93 102T92 124T82 138ZM124 169T123 169T121 172T121 176T125 183T128 189T133 190T141 189T146 186T151 177T150 163T148 129T151 80T152 50T152 39T156 28Q150 20 144 16Q133 28 128 45T119 73Q126 69 137 59Q135 103 134 126T133 154T135 173Q124
169 123 169ZM138 58Q155 72 167 86T200 114L206 111Q201 89 198 87T182 75T168 63T145 51L138 58ZM39 65L33 81L46 87Q55 81 65 82T81 84T103 88L106 78Q97 69 91 68T74 66T39 65Z" />
<glyph unicode="&#x4e1b;" glyph-name="null" horiz-adv-x="256" d="M77 143L60 163L77 180L100 158Q94 132 89 126T76 97T61 59T43 34L34 43Q45 60 51 72T65 104T77 143ZM147 166L140 174L155 191L168 188Q173 179 169 166T155 135T117 59Q116 63 124 68Q122
58 122 50T109 33L99 38Q104 71 108 75T119 100T132 125T147 166ZM62 75L65 85Q80 85 84 82T99 74L104 86L114 68Q114 61 109 48L99 43Q89 56 86 60T77 68T62 75ZM134 91L139 102V101H162Q178 87 186 82T196 74T205 71T213 72T231 71V66Q222 64 223 61T211 58T194
56T179 64T168 78T163 82T130 89L134 91ZM30 -10L25 4Q43 4 47 4T81 13T136 28T171 33T190 41Q201 39 206 41T232 31L234 11L219 4Q203 20 196 21T152 16T87 -1T49 -13T30 -10Z" />
<glyph unicode="&#x4e1c;" glyph-name="null" horiz-adv-x="256" d="M96 59L101 54Q101 45 100 40T86 26T52 -3L39 3Q60 26 73 41T96 59ZM151 56H180Q199 45 210 43T233 34L229 15L206 19Q206 27 205 27T197 30T151 56ZM123 117T124 120T128 124T134 126T146 119Q148
98 147 92T144 45T149 -6L141 -21Q134 -19 131 -17T127 -13T119 -2T113 22T110 49L115 51Q117 36 121 28T129 13T130 8Q127 89 125 103ZM92 177L98 190L119 185Q126 181 127 178T127 167T125 149T111 117T91 87Q145 107 149 109T156 116T179 120V105Q173 95 162
95T118 80T78 60L64 71Q70 79 79 89T96 121T110 151T113 161T106 169T92 177ZM50 111L32 125Q65 134 85 142T130 161T176 187L166 189Q176 198 179 198T192 198L196 180Q187 173 175 164T144 148T110 135T84 126T50 111Z" />
<glyph unicode="&#x4e1d;" glyph-name="null" horiz-adv-x="256" d="M25 -17L23 -4Q46 1 53 2T77 11T103 22T123 25T156 28T195 32L203 44Q226 37 238 37Q233 27 233 14Q221 16 208 16T187 17T160 15T123 10T86 -3T64 -16T51 -20T25 -17ZM56 83L43 94L53 104Q60
125 67 134T74 147T72 178H93L101 163Q89 144 79 125L91 129L105 119Q92 87 79 66L94 68L113 66L107 51Q85 49 59 25L44 29Q62 62 68 73T84 108Q77 100 56 83ZM154 164L144 170L142 183L150 191L171 189Q173 170 172 167T150 136L154 134Q162 144 175 146Q179 129
178 126T169 107T143 58Q171 79 177 82T188 87T197 84T194 75T182 69T174 59T159 48T129 34L114 51Q126 66 137 81T162 127Q148 111 136 99L125 107Q131 130 154 164Z" />
<glyph unicode="&#x4e24;" glyph-name="null" horiz-adv-x="256" d="M14 61V74Q33 66 53 46L51 35L44 30Q24 51 14 61ZM139 145L150 140Q152 111 151 107T130 69L116 73Q133 106 134 111T139 145ZM135 73T135 74T137 79T140 83T144 83T159 81T177 77T183 74T182
67T178 61T169 64T153 69T140 72ZM86 108Q86 121 88 122T101 121Q109 96 109 91T105 74T100 55T98 42T84 27L77 35Q81 48 85 60T91 82T93 94T86 108ZM82 153L75 161Q89 174 103 180T137 191L142 180Q139 169 122 164Q121 169 119 170T109 166T82 153ZM50 49L41
61Q46 71 48 73T63 82T92 98T133 116T183 124T216 120T228 114T235 101Q236 72 222 54T197 20T162 -18L137 -12Q136 -1 134 1T131 14T126 40T120 58T112 77L123 82Q131 67 134 46T145 10L153 -1Q164 3 170 8T184 29T204 59T218 86T221 101T218 106T213 110T208
109T182 107T136 101T97 86T74 72T63 64T50 49ZM95 73T95 73T97 77T100 81T104 81T112 81T121 79T124 77T123 70T119 65T113 66T107 69T100 72Z" />
<glyph unicode="&#x4e25;" glyph-name="null" horiz-adv-x="256" d="M57 141L54 152Q81 161 90 164T120 176T167 196L176 192Q167 181 169 172L145 163L140 170Q113 156 102 150T83 141T57 141ZM107 77L117 80L120 75L124 74Q120 64 121 59T117 41T106 18T89 -8T76
-26T65 -34T47 -43T35 -48T21 -51Q31 -43 39 -37T57 -21T69 -7T79 4T92 22T103 42T106 59T107 77ZM113 168T121 174L128 171Q134 159 129 143T120 121T116 112T120 97L113 91L103 98Q105 105 108 118T112 149ZM147 167L157 165Q157 155 157 142T153 116T137 90Q139
110 140 121T142 139T143 151T147 167ZM46 48V57Q71 72 91 78T129 90T157 104T176 112T188 114T198 114V103Q193 99 187 96T167 88T138 78T100 68T46 48ZM84 111T81 111T69 115L67 122Q79 122 95 123T141 137T178 150T187 152T189 134Q181 127 177 127T165 121T147
112L144 121Q156 126 158 127T161 132L164 139Q125 116 117 115T96 112ZM82 109L80 119L90 116Q110 104 123 106Q131 116 138 123H141Q134 111 134 105T131 89L121 87Q116 94 109 96T82 109Z" />
<glyph unicode="&#x4e28;" glyph-name="null" horiz-adv-x="256" d="M122 185L136 192Q143 179 144 173T145 161T145 142T144 112T141 83T141 51T140 15T144 -3T134 -20L126 -13Q117 5 118 21T119 49Q124 32 126 34Q128 74 126 102T123 147T122 185Z" />
<glyph unicode="&#x4e2b;" glyph-name="null" horiz-adv-x="256" d="M115 120L129 127Q138 119 139 113T140 101T141 87T141 69T139 47T139 24T137 -3T141 -21T131 -38L123 -31Q114 -13 113 -1T111 23Q116 6 123 16Q126 38 124 59T119 92T115 120ZM174 183L165
186L175 198Q184 201 186 200T194 191T194 175T177 157T154 128L144 130Q157 151 163 158T171 171T174 183ZM55 176L63 183Q79 166 87 160T97 151T101 136Q92 134 88 135T78 142T70 151T55 176Z" />
<glyph unicode="&#x4e2c;" glyph-name="null" horiz-adv-x="256" d="M74 108L81 121Q107 114 108 112T109 104T108 96T104 92T95 90T83 91Q89 94 94 103L74 108ZM134 198L151 192Q157 175 153 165T149 144T150 116T151 81T151 42T149 11T152 -17L139 -27L129 -25Q131
6 133 34T134 81T132 115T133 152T134 198ZM89 15L81 28Q89 43 96 52T119 104L121 86Q113 52 111 44T107 31T89 15Z" />
<glyph unicode="&#x4e2d;" glyph-name="null" horiz-adv-x="256" d="M106 127V145Q124 156 136 166V171Q167 174 177 177T206 182Q216 169 215 162T209 155T193 142T173 119T155 101T134 87Q156 94 173 105Q168 111 164 124T151 154Q161 141 172 134T187 122T191
110T184 94T169 85T144 75T96 54L86 51L94 67Q115 82 127 90T147 108T164 125T182 144T200 163L195 169Q188 165 178 163T160 158T139 148T106 127ZM47 100L52 114Q57 114 60 113T87 90L83 80L47 100ZM121 194T125 197T132 199T138 195T142 190T140 182T137 158T138
106T141 43T138 1T142 -27H135L131 -39L118 -29Q120 -11 122 1T125 43T124 106T121 166Z" />
<glyph unicode="&#x4e32;" glyph-name="null" horiz-adv-x="256" d="M124 201L139 195Q143 175 140 166T136 143T135 109T136 72T136 26T133 -11T136 -35L125 -44L116 -43Q117 -15 119 18T121 71T120 108T121 149T124 201ZM42 61L67 66L71 63Q73 61 83 71T111
91T133 105T143 112T159 116T178 120T205 125Q205 112 203 106T192 100Q191 99 190 96T194 77Q155 58 145 52T99 30L94 40Q114 55 124 60T143 67T176 82H177L162 75L150 63H135Q140 73 148 77T164 87Q156 100 150 105L160 108L164 105L179 102L188 112Q188 113
176 115T152 108T139 94T125 89T103 81T86 65T81 48L66 43L48 53L42 61ZM70 140L75 145L92 132L100 147Q103 137 104 134T100 113L75 125L70 140ZM110 170L107 176Q144 198 152 198T168 194Q185 176 181 169T169 155T156 147T152 143T158 129L146 114Q143 121 126
129L129 148L139 144Q152 153 160 159T157 181L110 170Z" />
<glyph unicode="&#x4e34;" glyph-name="null" horiz-adv-x="256" d="M130 188T135 189T149 184Q149 160 145 156T130 133T97 92L93 90Q107 113 113 131T122 160T128 179ZM131 134V145Q138 147 162 152T204 160L202 146L190 139Q182 142 178 143T160 137T142 130T131
134ZM148 106V121Q165 115 181 98L179 85L170 79Q154 98 148 106ZM103 44L118 39Q127 16 136 7L134 -13L126 -15Q119 2 103 44ZM127 36L117 41L120 51Q148 67 176 72T208 80T228 75Q230 50 224 35T196 -5L175 0Q157 -12 140 -8L138 2Q153 10 165 12T193 12Q200
27 205 40T212 59T213 65T184 59T127 36ZM148 40L160 59L173 55Q175 40 175 35T175 23T169 9T151 -8Q158 7 158 12T159 22T160 40H148ZM65 183Q74 191 76 192T87 186Q92 171 90 153T86 101T85 31T98 -14L83 -28Q73 -22 72 -21T69 -17T55 3Q63 1 73 -2Q70 67 71
98T74 148T73 171T65 183ZM28 114T28 115T30 120T34 123T43 121Q49 114 48 106T44 88T45 72T49 57T40 43L31 47Q31 56 31 66T32 86T33 100T30 109Z" />
<glyph unicode="&#x4e36;" glyph-name="null" horiz-adv-x="256" d="M79 113H107Q127 104 138 102T162 94L158 75L135 79Q135 87 135 87T126 90T79 113Z" />
<glyph unicode="&#x4e38;" glyph-name="null" horiz-adv-x="256" d="M61 73T45 59L26 64V78Q48 89 65 98T107 129T148 159L156 151Q153 137 153 113T151 60T149 20T158 -3Q158 1 162 2T178 15T217 64Q215 86 218 108Q226 102 229 100T234 92T242 81T244 58Q228
50 215 32T187 2T161 -13T147 -16T142 -14T138 -6T138 19T139 64T134 135Q111 108 90 95T65 77ZM85 192L98 201Q109 184 108 174T106 150T103 126T98 86T91 31T86 1T74 -15L63 -4Q74 15 77 39T83 95T87 151T85 192ZM61 39L59 50Q68 56 71 57T90 52Q114 49 115 47T120
36L111 14V38Q92 39 89 40T77 41T61 39Z" />
<glyph unicode="&#x4e39;" glyph-name="null" horiz-adv-x="256" d="M73 157T74 159T77 163T81 165T89 163Q100 146 99 134T99 111T99 91T93 60T85 20T76 -6L59 -17Q67 1 70 20T75 44T78 67T81 92T81 116T76 144ZM104 152L99 165Q112 168 126 182T149 201L174
191Q176 172 173 154T171 107T175 44T190 -15L182 -31Q167 -27 161 -23T135 3L130 16Q155 0 165 -4Q165 9 164 41T159 104T153 178L145 182Q133 161 126 159T104 152ZM32 44L30 55Q38 60 48 64T75 76T120 93T188 118L172 129Q190 131 193 132T203 130T222 126L221
111Q198 104 175 99T127 83T79 62T32 44ZM111 127L108 136Q117 145 122 145T141 138Q145 129 143 127T136 118T125 109T114 96L111 103Q116 113 128 126Q121 126 111 127Z" />
<glyph unicode="&#x4e3f;" glyph-name="null" horiz-adv-x="256" d="M132 170L128 180Q134 189 135 190T148 185Q157 172 159 162T160 139T150 107T137 69T120 26T88 -21L81 -12Q94 14 104 35T122 74T134 108T141 132T142 146T141 168L132 170Z" />
<glyph unicode="&#x4e47;" glyph-name="null" horiz-adv-x="256" d="M88 117L95 126L107 121Q120 105 113 69T104 26T104 16T111 8T118 2T141 3T220 6Q217 40 220 60T229 98Q229 80 231 62T238 28T241 -8Q225 -10 196 -10T143 -12T109 -11T93 2T87 16T91 29T93
70T88 117ZM48 52T41 52T12 65Q33 65 40 66T64 74T103 96T134 114H143V93Q134 89 113 78T70 60ZM95 180L115 192H124Q124 168 120 162T109 148T97 135T88 127T74 122Q81 134 85 141T92 150T95 156T95 180Z" />
<glyph unicode="&#x4e48;" glyph-name="null" horiz-adv-x="256" d="M104 170L116 183L135 181L143 177Q141 168 137 155T129 137T114 119T91 91T62 54T43 29T36 27L32 31Q68 87 79 100T100 125T122 166L104 170ZM139 108L152 106Q148 89 139 71T103 16Q125 35
152 51L157 70L176 66Q193 44 198 36T221 14L215 -5L206 -7Q186 11 169 26L184 30Q182 33 180 35T170 45Q171 42 168 41T150 31T126 11T90 -3L82 10Q92 28 104 44T126 76T139 108Z" />
<glyph unicode="&#x4e4c;" glyph-name="null" horiz-adv-x="256" d="M101 178T97 198L109 206L120 194Q113 171 95 152Q116 163 125 165T152 161L156 152Q151 133 141 120T119 97L104 96L100 104L109 108Q116 116 123 126T140 152L135 153Q123 148 110 142T81
128L72 135Q74 149 87 163ZM96 126T98 127T108 125T115 118T103 98T70 61Q109 80 139 87T186 93T211 91T225 78T230 64T219 50T205 27T192 11T158 -21L140 -24Q127 -10 131 1T137 29Q140 12 141 9T145 -1H156Q177 18 181 23T192 41T203 57T209 66T212 73T211 76T205
79T188 81T144 78T88 53T41 32L32 36Q54 70 69 81T90 109ZM58 6T53 6T32 10L36 21Q45 23 61 25T96 33T124 41T144 49T168 55T186 55T196 45L190 29Q163 38 151 35T127 28T97 21T69 12Z" />
<glyph unicode="&#x4e4e;" glyph-name="null" horiz-adv-x="256" d="M28 51L24 64Q41 64 45 64T80 76T140 98T177 106T195 113Q206 111 211 113T236 104L238 85L224 79Q209 94 201 95T155 86T86 63T47 48T28 51ZM68 88Q61 99 62 109T65 121T73 123T79 125T95 109Q132
131 135 135T159 157L170 155Q175 150 176 142T171 127T160 113T145 101T125 82Q130 94 137 106T157 128L150 141Q141 135 140 127T108 98L95 91L77 104L68 88ZM112 144T112 146T116 150T121 152T132 145Q138 115 137 110T136 47T145 -20L137 -33Q132 -31 125 -29T117
-25T107 -11T95 21T89 51L92 53Q94 40 101 26T115 2T128 -8Q119 108 116 126ZM142 200L147 195Q147 186 146 181T130 169T94 147L81 153Q103 171 118 183T142 200Z" />
<glyph unicode="&#x4e4f;" glyph-name="null" horiz-adv-x="256" d="M92 66L82 74Q100 95 105 93T118 100T137 108T160 100Q152 85 150 83T142 75T123 55T97 31Q131 28 145 28T172 20T190 10T212 14T255 33Q237 4 217 -4T189 -5T172 6T142 13T111 15T89 6T69 -3T52
-19L39 -11L52 20Q70 24 73 26T85 35T108 57T128 81T136 95Q124 87 112 78T92 66ZM93 125L98 134L131 133L127 118L108 109L105 112L110 120L93 125ZM122 193T123 195T129 198T136 197T138 190T135 177T121 160T96 138T81 126T69 119L64 126Q71 136 84 147T107
172T119 189Z" />
<glyph unicode="&#x4e50;" glyph-name="null" horiz-adv-x="256" d="M123 186H121L114 198L124 205L144 197Q146 177 131 160T103 131T67 112Q75 106 76 104T80 97T82 90T85 87T99 91T127 109T156 129Q145 128 134 126L132 137Q143 139 149 143T181 149L188 136Q169
117 162 115T138 95T85 71L69 74Q66 95 64 97T54 102L61 123Q81 133 94 146T115 168T123 186ZM88 64H95L102 56Q100 47 95 46T85 39T72 29T56 23T46 8L35 4L29 13Q39 23 46 29T63 43T88 64ZM120 141T121 144T125 148T131 150T143 143Q145 115 144 109T140 51T144
-10L136 -25Q129 -23 125 -21T120 -16T112 -3T105 26T101 57L106 59Q108 44 113 32T121 12T125 4Q124 106 122 123ZM149 40L175 45Q183 47 195 44T211 42T248 30L244 11L201 26V33Q202 28 188 30T149 40Z" />
<glyph unicode="&#x4e52;" glyph-name="null" horiz-adv-x="256" d="M116 103L111 112Q127 127 136 137T164 149L165 135Q153 124 145 120T116 103ZM128 122L141 134L150 132Q153 115 152 108T146 73L129 68Q136 103 135 107T128 122ZM20 20L15 25L25 39Q71 52
108 62T181 77T233 87L238 72Q233 67 226 66T187 62T121 49T60 33T20 20ZM120 192L129 203L147 196Q147 181 146 175T135 161T109 135Q117 126 117 123T114 104T111 61L98 56Q91 72 93 79T96 102T98 117Q80 109 70 119Q92 139 103 149T122 168T130 187L120 192ZM67
-19L61 -15Q70 -4 75 3T85 17T94 28T99 35T105 31T109 25T106 19T102 11T95 5T87 -5T82 -10T67 -19Z" />
<glyph unicode="&#x4e53;" glyph-name="null" horiz-adv-x="256" d="M116 103L111 112Q126 126 135 136T164 149L166 134Q153 122 144 119T116 103ZM127 122L141 135L151 133Q155 116 154 108T149 74L130 68Q136 102 135 107T127 122ZM21 21L16 26L27 42Q72 54
110 64T182 78T236 89L241 73Q236 68 228 67T189 62T123 50T63 34T21 21ZM116 189L126 201L145 193Q145 178 144 172T134 159T108 135Q117 126 117 123T114 104T111 63L98 57Q90 74 93 81T96 102T97 116Q78 109 68 119Q91 139 102 148T120 166T128 184L116 189ZM143
17T143 18T146 23T150 28T154 28T173 21T197 9T205 2T203 -6T199 -13T187 -8T166 6T149 16Z" />
<glyph unicode="&#x4e56;" glyph-name="null" horiz-adv-x="256" d="M126 201L141 211H149Q149 192 145 187T133 176T119 165T110 158T99 154Q105 163 110 169T121 177T126 183T126 201ZM32 95L29 110Q50 115 76 124T120 137T145 143T174 141V124Q155 125 132
122T83 109T49 99T32 95ZM57 62V78L64 85L77 77Q79 56 76 48T74 34T59 17L56 33Q67 48 66 56L61 64L57 62ZM54 14V27Q79 45 106 63L108 48Q90 34 71 18L54 14ZM92 106L101 105Q106 97 108 90T108 75T104 65T105 53T109 38L98 33L78 61L92 55Q91 63 90 74T89 93T92
106ZM116 159T117 161T121 165T126 167T137 160Q140 125 139 120T136 47T141 -30L133 -44Q128 -42 124 -39T119 -33T113 -25T107 -8T105 14L108 16Q110 3 114 -3T120 -12T124 -17Q121 118 119 138ZM147 99H161Q164 78 165 64T174 38Q189 28 215 43Q210 46 211 49T212
68L221 65Q224 49 230 47T237 31Q220 27 196 23T157 28Q157 38 156 46T150 69T147 99ZM190 104H203Q201 85 198 80T191 75T186 72T181 66T167 57Q175 72 176 76T180 85T190 104Z" />
<glyph unicode="&#x4e5c;" glyph-name="null" horiz-adv-x="256" d="M45 40L23 52L28 71Q47 81 68 94T115 122T149 142T164 150T188 158L201 153Q193 136 189 123T178 94T171 66T162 44L138 42Q128 52 129 56T129 70T130 104Q139 85 139 80T152 64Q158 77 162
93T176 139Q167 137 153 128T116 105T79 84T60 69T45 40ZM83 157L89 165L98 161Q110 140 104 93T97 33T97 17T102 11T108 6T130 6T204 13Q201 61 204 87T210 129Q210 113 212 89T218 41T221 2Q208 0 181 -3T132 -7T101 -5T87 5T82 17T86 35T88 93T83 157Z" />
<glyph unicode="&#x4e5d;" glyph-name="null" horiz-adv-x="256" d="M54 66T38 52L19 58V71Q41 81 59 92T101 121T142 148L150 140Q147 127 146 104T141 55T136 18T143 -4Q147 -1 151 0T170 12T230 54Q229 75 231 96Q239 91 241 89T247 81T254 70T257 49Q241 41
219 25T178 -1T150 -13T135 -16T128 -15T124 -8T125 16T128 58T129 124Q106 103 84 88T58 70ZM84 187L97 196Q107 182 106 172T103 151T99 130T93 94T85 48T79 23T67 7L56 18Q67 36 71 55T79 103T83 152T84 187Z" />
<glyph unicode="&#x4e5e;" glyph-name="null" horiz-adv-x="256" d="M68 163L60 170Q75 187 76 191T90 192L102 180Q99 168 96 163T90 149T81 133T67 114T55 100T44 88L37 95Q44 110 52 121T67 143T77 164T80 170L68 163ZM80 125L75 140Q86 142 92 141T105 144T116
150T128 157T144 163T157 165T171 163Q171 152 167 149T159 141T152 136T124 124L131 148Q124 135 93 123L80 125ZM83 72T76 65L64 76L71 88Q76 92 84 93T112 104T134 113T153 113Q153 104 153 96T146 81T124 54T107 23T108 5T122 -2T152 4T187 15T216 30Q207 33
204 40T200 55T204 97Q210 67 213 62T223 51T232 41T235 38T234 24Q223 12 217 12T199 7T161 -7T116 -16T93 -1T93 28T109 58T137 92Q105 88 94 80Z" />
<glyph unicode="&#x4e5f;" glyph-name="null" horiz-adv-x="256" d="M69 167H85L103 148Q96 146 94 142T90 123T87 67T86 21T89 12T96 5T117 3T171 17T211 33Q208 56 213 88Q224 53 230 49T237 42T238 22Q216 15 177 4T116 -8T91 -10T81 -7T73 6T71 55T71 121T69
167ZM40 52L19 63L24 82Q42 91 63 105T109 133T143 153T159 162T182 170L193 166Q187 150 183 138T172 110T164 84T154 64L131 61Q122 71 123 73T123 85T124 117Q133 99 133 95T145 82Q152 94 157 109T171 152Q161 149 147 139T111 116T74 95T54 80T40 52ZM108
168T110 173T115 179T120 180T124 177T127 169T129 139T125 109T121 58L114 51L106 55Q108 115 108 141Z" />
<glyph unicode="&#x4e69;" glyph-name="null" horiz-adv-x="256" d="M46 184L52 193H69Q71 175 72 149T75 101T76 75T70 62L56 72Q58 83 58 101T58 144T55 170T46 184ZM67 113L41 89V93Q61 130 74 145T98 166T111 175T116 169T119 159T108 151T67 113ZM19 25L24
44L37 31L41 44Q71 85 76 87T129 98L131 83Q121 57 113 45T97 21T84 -3L57 -10L53 -1Q82 23 85 33T95 54T108 81Q88 72 82 69T52 31L47 12L30 8L19 25ZM77 -3L70 12Q92 24 116 26L118 17Q98 5 77 -3ZM146 176T146 178T155 187L162 186Q170 174 172 172T175 167T174
161T173 122T168 63T172 20Q171 10 183 9T217 15Q217 30 222 54T227 87L234 81Q234 74 237 52T238 22T234 4Q221 0 208 -2T188 -6T152 6Q153 12 151 16T150 28T153 64T155 122T152 158T148 169Z" />
<glyph unicode="&#x4e89;" glyph-name="null" horiz-adv-x="256" d="M123 189L116 193Q127 202 130 203T139 201T144 198T143 191T138 182T122 168Q132 173 139 174T157 176Q157 169 159 166Q151 156 145 150T125 126L108 122Q128 151 133 155T138 161T135 162T128
156T100 137L92 144Q108 168 112 174T123 189ZM68 91L55 94V102Q66 107 88 119T135 136T171 145T196 151L207 150Q207 137 197 125T175 101T155 83V77Q141 58 119 50T74 36L71 42Q79 52 86 55T111 62T140 79L139 87Q155 102 164 112T190 137Q165 135 135 124T68
91ZM35 56L31 69Q93 92 124 103T178 120T211 126L213 113Q204 105 196 102T142 77Q184 107 202 117Q160 98 132 93T98 83T35 56ZM122 120L134 125L143 115Q141 103 140 86T140 28T141 -18T137 -25T122 -27T100 -18T87 -4T80 20Q89 8 91 6T102 -4T127 -11Q132 -4
127 35T121 92T122 120Z" />
<glyph unicode="&#x4e8e;" glyph-name="null" horiz-adv-x="256" d="M78 154L71 162Q93 178 114 187T162 202L167 191Q164 180 141 173Q140 178 138 179T120 172T78 154ZM54 64T43 59L36 68Q45 77 46 78T79 94T187 147Q145 139 141 144T134 160Q145 149 206 161L208
138Q117 98 86 81ZM127 162L133 164L144 145Q142 138 138 125T141 47T149 -26L134 -35Q122 -30 109 -22T89 -4T78 19Q85 13 97 3T122 -9Q134 6 128 58T122 128T125 148T127 162Z" />
<glyph unicode="&#x4e8f;" glyph-name="null" horiz-adv-x="256" d="M126 135L158 126Q145 111 142 107T128 83Q155 103 167 103T187 94T197 74T193 50T178 23T158 -6T139 -23T126 -26T109 -19T93 -9T92 -1T92 13T100 45Q100 18 102 12T113 -3Q123 -6 131 -2T148
11T164 29T178 52T182 80Q165 90 162 87T142 73T103 52L94 66Q103 88 110 96T124 109T126 135ZM28 78L24 90Q32 97 39 102T55 107T77 113T112 131T146 146T169 154T187 160T199 163T216 162L214 145Q203 141 196 138T161 132L165 145Q162 138 150 133T112 116T67
96T28 78ZM85 173L87 177Q103 177 112 180T123 186T133 182T137 171T119 164T99 163T85 173Z" />
<glyph unicode="&#x4e91;" glyph-name="null" horiz-adv-x="256" d="M141 103L163 100Q160 91 143 69T100 9Q102 7 110 13T134 33T158 53Q170 48 183 41T221 21L214 4Q190 19 167 31Q158 24 144 14T122 -1T88 -13L76 0Q83 12 97 29T123 70T141 103ZM77 147L73
156Q82 158 87 159T101 161T112 167T123 176T149 179V164Q130 158 121 154T105 149T93 146T77 147ZM46 47T39 47T19 60Q62 78 50 68T72 73T144 110T190 136H199V115Q190 111 154 93T82 61Z" />
<glyph unicode="&#x4e92;" glyph-name="null" horiz-adv-x="256" d="M121 85L115 101L121 114Q133 122 151 121L173 108Q178 90 175 84T160 67T146 48T135 32T116 11L102 27Q114 29 122 40T139 60T149 74T162 90L153 103Q144 102 142 102T136 99T121 85ZM81 136T75
136T48 147Q68 147 74 148T93 154T122 172T148 188H155V169Q148 165 131 156T98 142ZM42 -6T36 -6T12 -1L17 11Q27 13 51 13T103 18T146 25T178 30T209 32T230 32T241 20L234 2Q205 12 185 12T148 11T105 6T60 -2ZM113 167L130 157Q129 127 93 69Q100 66 131 83L135
68Q109 51 103 51T87 44L72 50Q76 69 92 103T106 146T104 158T113 167Z" />
<glyph unicode="&#x4e95;" glyph-name="null" horiz-adv-x="256" d="M84 146L92 154L101 152Q109 124 109 118T105 100T99 66T98 32T100 15T91 2Q84 8 83 12T83 29T86 66T86 106T84 146ZM94 14L88 24Q94 35 97 36T107 47L108 34Q107 30 107 30T107 26T94 14ZM144
194T149 197T157 199T163 195T167 189T165 181T162 157T162 107T163 47T163 8T172 -23H164L160 -35L145 -25Q147 -4 146 7T145 48T145 108T144 166ZM31 42L29 53Q65 63 98 70T141 80T172 87Q153 89 143 94Q153 96 172 99T221 100L219 89Q195 77 176 75T150 69T107
57T31 42ZM74 119T69 120T54 128Q66 128 77 128T103 133T135 142T154 147T170 147L168 123Q127 110 117 100Q129 120 146 130Q126 121 113 120T87 119Z" />
<glyph unicode="&#x4e98;" glyph-name="null" horiz-adv-x="256" d="M54 142L51 155Q68 156 73 155T93 159T112 166T130 173T156 180T172 183T184 181Q184 172 177 168T165 159T159 154T134 143L140 165Q119 153 73 139L54 142ZM66 123L71 131H88Q89 114 89 98T90
70T89 53T83 40L69 50Q71 60 72 70T75 93T74 109T66 123ZM102 94L85 101Q102 113 108 117T127 127T145 135T161 133T170 111T171 70T165 32L128 44Q89 65 89 72T89 78T97 76T116 67T154 52Q155 84 151 119Q150 119 148 119T131 113T115 105T102 94ZM88 27L86 39Q97
43 110 47T131 55T144 59T161 58V44Q152 45 140 43T116 36T97 30T88 27ZM96 67L87 80Q103 87 113 90T126 94T137 93Q138 77 136 74T132 71T123 63H113Q122 76 124 77Q114 80 113 78T96 67ZM29 -8L25 3Q40 3 44 3T79 10T141 21T179 23T196 30Q205 28 211 27T235
15L237 -2L224 -8Q210 5 202 10T155 11T84 -1T45 -11T29 -8Z" />
<glyph unicode="&#x4e9a;" glyph-name="null" horiz-adv-x="256" d="M62 142V152Q74 145 77 146T92 154T115 167T137 179T154 186L171 182L168 170Q155 164 146 159T122 149Q132 162 134 170Q141 167 135 166T120 158T97 144T79 137T62 142ZM32 -27L19 -19L21
-8Q41 0 70 9T115 20T147 25T171 28T187 28T213 29T236 26L225 11Q191 15 181 16T155 15T122 9T75 -4T32 -27ZM79 50T75 49T60 54L57 63Q73 63 86 70T136 91T179 106T187 106T189 83Q187 77 174 67T135 33T99 6L95 17Q110 23 113 25T145 63L166 92Q117 67 106 65T87
57ZM132 157L143 156Q148 147 150 140T150 108T146 67T147 40T152 23L135 17L100 52L130 39Q133 80 131 107T130 143T132 157ZM93 154L110 162Q116 156 114 141T113 113T113 90T110 71T111 55T113 39T105 25H98Q93 39 95 50T97 77T97 107T96 129T93 154Z" />
<glyph unicode="&#x4e9b;" glyph-name="null" horiz-adv-x="256" d="M179 165H193Q191 144 188 139T177 130T164 120T155 111T139 101Q147 118 152 126T164 143T179 165ZM66 160T67 162T71 168T76 172T81 170T84 167T86 161T89 149T88 142T85 137T84 126T82 117T79
107T81 94T83 84T78 77L65 83Q65 100 66 107T69 125T69 138T67 150ZM91 128L86 143Q97 156 113 157L116 148Q104 141 91 128ZM38 121H56Q61 108 61 102T61 87T63 72Q70 82 80 98T103 129T132 154Q123 138 112 123T91 91T78 67T58 49L42 61Q44 79 42 91T38 121ZM127
183T137 188L146 183Q139 144 140 127T146 92Q161 76 171 85T189 103Q195 110 186 119Q198 115 206 120L211 100Q199 90 199 89T192 83T177 72T152 67T132 88T128 121T125 149T124 172ZM89 57V68Q101 65 106 65T128 72Q130 60 130 59T127 54T124 48T121 43T99 37L107
51Q100 50 89 57ZM41 -26L26 -18L28 -5Q48 3 77 12T122 23T154 27T178 29T194 29T219 28T245 24L232 7Q196 13 187 14T163 15T131 10T84 -3T41 -26Z" />
<glyph unicode="&#x4e9f;" glyph-name="null" horiz-adv-x="256" d="M58 156L64 172Q80 158 100 173T150 200Q157 182 157 180T147 167T126 145Q135 140 137 138T143 118T143 77T146 39L133 26Q117 44 102 57T85 72T87 77T91 81T130 51Q126 67 130 91T123 129L110
123L105 138Q122 157 139 175V182Q122 171 100 158T58 156ZM47 84V93L54 98L66 88Q63 76 69 69L81 76Q84 89 87 95T86 106Q79 100 77 99T73 95T70 87Q68 94 69 100T81 116H92Q100 110 101 106T102 98T95 84T86 54L74 44V56Q74 53 72 52T63 49L53 51Q52 64 53 70T54
82L47 84ZM169 114L162 121Q169 132 172 134T191 144L204 136Q204 129 205 126T200 112T188 92T176 75T161 63L147 71Q157 74 160 76T167 83T177 100T191 129L185 131Q180 123 169 114ZM147 102L159 110Q165 109 175 103T200 91T231 77L224 64Q210 64 198 72L201
77Q182 85 171 89T147 102ZM41 -18L28 -10L30 1Q49 6 76 13T118 22T147 26T169 28T185 28T209 30T232 28L220 13Q188 16 179 16T155 15T125 10T81 0T41 -18Z" />
<glyph unicode="&#x4ea2;" glyph-name="null" horiz-adv-x="256" d="M100 180L107 191L130 186L126 169L112 159L107 164V171L100 180ZM27 89L23 101Q31 110 39 115T57 120T81 126T116 143T147 157T169 168T183 175T190 176T208 175L206 156Q194 152 193 150T163
146L167 161Q162 148 152 143T117 126T70 107T27 89ZM97 71Q98 86 99 95T125 112L132 118Q141 103 141 99T137 82T133 54T136 26T144 10T150 5T161 6T224 22Q222 39 225 52T229 87Q237 63 239 51T255 18L246 5Q174 -10 160 -10T140 -7T132 -3T127 7T122 25T119
52T117 92L121 93Q111 83 106 74L97 71ZM69 62T69 66T73 74T77 79T83 79T90 74T92 67T90 56T86 41T86 30T85 14T83 -2T78 -9T71 -13T66 -8T64 2T67 16T72 38T72 56Z" />
<glyph unicode="&#x4ea5;" glyph-name="null" horiz-adv-x="256" d="M102 182L106 194L116 202L141 200L143 186L133 176L127 186L102 182ZM72 119T66 119T41 130Q59 130 65 131T88 139T127 160T156 176H163V158Q156 154 135 144T93 127ZM119 150L131 144Q131
133 114 114T70 76L74 70Q92 86 112 97T139 119L151 111Q145 100 127 89T96 67T62 53L49 66Q62 82 74 92T98 123T119 150ZM149 119T149 119T157 126Q164 120 164 118T154 96T139 73T112 48T60 3L52 13Q78 36 100 59T127 89T140 107ZM154 74T155 76T161 79T168 78T169
67T164 51T144 30T104 -4T79 -23T67 -30L62 -23Q69 -13 91 5T130 41T150 66ZM109 11L114 22L117 19H138Q160 9 171 5T186 -1T197 -4T207 -4T226 -6V-11Q217 -13 216 -15T203 -17T185 -18T164 -12T147 -1T140 2T108 8L109 11Z" />
<glyph unicode="&#x4ea6;" glyph-name="null" horiz-adv-x="256" d="M94 194Q100 198 102 197T110 194T132 192Q134 177 133 174T131 169T124 162T111 152T98 143T75 132Q93 153 102 160T113 170T115 182Q104 181 94 194ZM54 20L43 26Q59 54 60 56T82 76L91 71Q72
33 54 20ZM153 57T153 58T156 63T160 68T164 68T183 64T207 58T215 54T213 46T209 39T197 42T176 50T159 56ZM100 116T109 122L116 119Q122 106 120 81T116 43T113 27T117 11L110 5L100 13Q101 20 102 40T102 88ZM140 130L150 136H156Q159 132 161 117T163 97T161
81T157 30T163 -19L157 -22L159 -29Q150 -27 149 -27T137 -12T123 15T118 31L122 33Q128 26 133 15T146 -3Q144 71 144 83T142 108T140 130ZM28 84L24 96Q32 103 39 108T56 113T78 117T115 132T152 144T176 151T195 156T208 157T225 156L223 139Q212 135 204 133T169
129L173 142Q168 135 155 131T115 116T68 100T28 84Z" />
<glyph unicode="&#x4ea7;" glyph-name="null" horiz-adv-x="256" d="M67 63L66 74Q82 82 108 97T192 133L193 118Q145 95 119 82T87 67T67 63ZM102 87L112 89Q118 71 114 63T110 52T108 43T98 22T80 -4T69 -20T53 -28T35 -34T24 -35Q31 -30 44 -19T68 5T84 29T93
53T102 87ZM91 185L107 196L127 193L130 178L114 168Q112 181 110 182T91 185ZM81 136L75 144Q96 158 119 167T167 185L171 175Q168 165 146 158Q145 162 144 162T124 154T81 136ZM96 131L103 136L109 125Q119 135 131 143T145 153T161 157Q163 144 161 139T151
126T119 96H114Q134 124 141 138L139 139Q130 129 127 126T117 104L95 119L96 131Z" />
<glyph unicode="&#x4eac;" glyph-name="null" horiz-adv-x="256" d="M110 192L115 201L142 197L139 183L123 174L120 177L123 185L110 192ZM26 105V118Q41 110 48 113T77 127T119 147T157 164T193 177L214 173L210 158Q183 148 166 140T132 128Q145 143 158 155Q158
148 151 147T125 135T83 114T51 101T26 105ZM165 19T165 20T168 25T172 30T176 30T198 25T225 18T235 13T233 5T229 -2T216 1T191 11T171 18ZM92 41L98 39Q103 33 103 29T99 20T91 11T70 -14L59 -16L54 -8Q78 21 82 27T92 41ZM127 71L138 83L147 71Q144 59 142
42T140 7T141 -23L132 -33Q126 -29 121 -25T113 -19T105 -7T89 25L98 33Q110 13 116 0L126 -9Q128 24 127 71ZM121 98L117 104Q131 119 135 121T146 124T156 126T162 122T165 117T162 109T157 99T149 94T144 90T154 86V74Q139 72 134 67T107 56L103 65Q119 77 126
86T140 101T149 113L147 115Q140 108 121 98ZM81 103H91L95 90L100 99L104 92Q104 82 96 67L85 65Q80 82 81 103Z" />
<glyph unicode="&#x4ead;" glyph-name="null" horiz-adv-x="256" d="M108 198L113 207L142 205L138 191L122 184L119 187L122 193L108 198ZM74 137L60 143L62 158L89 168Q79 154 84 154T101 160T128 174T163 184H172Q172 177 170 170T160 160T135 148L124 150L142
168L140 169Q117 155 74 137ZM87 135L95 142L102 135Q123 137 135 145L150 142L153 134L126 116L140 121L147 115L143 113L147 108Q127 100 106 99L102 106Q117 121 127 126T139 139L126 130Q108 119 107 115T105 110L98 106L89 107Q92 116 92 119T87 135ZM27 36V55Q41
63 68 75T150 104T220 121L222 102Q218 96 212 92T195 81T172 64Q178 77 182 87T191 100L189 105Q100 76 81 65T60 50T52 36H27ZM81 47L77 56Q92 60 97 60T113 64T132 73T147 83T170 86V72Q153 66 140 61T117 53T102 48T81 47ZM119 55L137 67Q140 58 140 53T137
23T144 -25L138 -28L134 -37Q125 -32 114 -24T100 -11L103 -8Q108 -11 115 -14T128 -17Q126 -3 123 20T119 55Z" />
<glyph unicode="&#x4ebf;" glyph-name="null" horiz-adv-x="256" d="M44 69Q50 78 52 82T56 86T67 82Q73 71 70 54T71 15L60 2L50 8Q52 33 54 67L44 69ZM60 147T59 151T57 176Q70 168 71 166T75 157T78 143T73 131T66 114T58 94T15 41L6 49Q41 101 46 108T54 123T58
139ZM104 120T97 113L85 125L92 137Q97 142 102 146T115 156T126 163T146 163Q146 153 146 145T143 126T133 93T122 52T122 26T137 15T170 22T207 37T236 55Q227 64 224 74T221 96T225 144Q232 113 235 104T245 85T254 73T256 66T256 48Q244 35 238 34T219 27T179
11T131 0T107 19T107 58T116 97T129 141Q122 143 113 132Z" />
<glyph unicode="&#x4ec4;" glyph-name="null" horiz-adv-x="256" d="M129 128L140 130Q148 109 143 100T137 87T134 76T124 53T108 23T98 4T88 -5T77 -11T64 -12Q72 -7 79 5T94 33T108 61T117 88T129 128ZM102 29L114 40Q125 42 129 39T147 28T174 17T200 13T236
13V4Q214 -3 198 -6T170 -4T143 11T102 29ZM46 112T47 116T50 123T54 127T60 127T66 122T67 109T63 92T60 78T56 57T48 20T44 -5T39 -12T33 -15T28 -10T25 -1T32 23T43 64T47 99ZM49 150V165L58 170Q68 161 77 163T104 168T141 182T170 193T184 195T198 194Q191
182 190 180T183 169T162 157T125 139L123 149Q140 162 161 173Q126 158 108 156T74 151T49 150Z" />
<glyph unicode="&#x4ec5;" glyph-name="null" horiz-adv-x="256" d="M119 125T104 119L113 146Q124 166 143 173T169 179T187 175Q197 167 198 166T198 159T197 138T186 102T167 63T144 20T116 -9L105 -7Q101 -1 101 13T107 48Q109 29 116 8Q139 51 152 76T170
112T182 154L174 162Q171 163 165 163T144 154T124 135ZM103 94L106 101Q118 103 122 100T144 74T178 41T212 26T258 22V13Q230 6 210 5T174 18T140 56T103 94ZM46 94Q52 103 54 107T58 111T69 107Q75 96 74 66T77 2L66 -11L56 -5Q57 32 56 92L46 94ZM57 159T56
163T54 188Q67 180 68 178T72 169T75 155T71 145T66 133T58 115T18 71L9 79Q41 122 46 129T53 142T56 153Z" />
<glyph unicode="&#x4ec6;" glyph-name="null" horiz-adv-x="256" d="M128 183L146 200L152 196Q152 178 156 134T163 47T166 -6T167 -22T166 -38L160 -44Q147 -29 142 -20T139 1T144 23Q146 14 148 17Q142 87 139 123T134 163T128 183ZM165 95T163 95T159 100T159
107T173 108T188 108T204 103T233 90L231 69L200 76V84Q188 90 177 92ZM70 161T72 164T83 174L95 166Q85 157 78 132T55 79T34 50T10 33Q25 58 39 83T61 135ZM40 59L32 69Q36 78 44 83T60 90T81 100Q89 92 89 91T89 81T89 60T93 42T96 33T93 19L88 18V13L79 10L70
19Q71 24 74 27T77 39T75 58T70 78Q72 83 68 82T56 74T40 59Z" />
<glyph unicode="&#x4eca;" glyph-name="null" horiz-adv-x="256" d="M107 151L92 154V164Q100 166 103 169T114 173T125 173T131 169T155 150T191 125T218 111T237 104V89Q229 89 227 88T213 91T182 108T148 133T128 150T122 154T103 160L107 151ZM74 32T62 34V44Q72
49 89 56T116 64T136 66T161 69T177 67T187 52Q185 44 184 42T168 23T142 -3T121 -24L108 -19V-4L118 1Q140 23 145 26T170 49L162 59Q149 54 137 54T112 49T87 38ZM106 202L116 196Q122 175 118 169T110 159T100 147T80 117T49 76T30 49L9 53Q17 64 33 83T65 127T86
162T94 179T106 202ZM88 82L98 104L114 105L124 96L93 38Q108 80 108 85T104 86L88 82Z" />
<glyph unicode="&#x4ecb;" glyph-name="null" horiz-adv-x="256" d="M102 196L112 202Q121 196 122 194T126 188T129 177T113 139T79 85T49 47T31 32T12 28Q24 39 32 51T46 71T69 98T94 144T106 180T102 196ZM97 136L110 147Q121 149 125 146T144 132T174 115T203
108T242 106V97Q218 91 201 89T170 94T141 115T97 136ZM88 72L95 78Q101 70 102 68T102 60T101 46L117 64L111 42Q105 23 104 21T92 13L82 23Q84 33 84 43T88 72ZM132 93H150Q152 77 152 70T150 53T148 36T148 9T161 -21L153 -25L152 -34H143Q137 -18 136 4T131
50T132 93Z" />
<glyph unicode="&#x4ecf;" glyph-name="null" horiz-adv-x="256" d="M162 181L173 177Q173 154 173 145T158 103T125 21Q131 21 133 22T156 37T178 54T178 78L194 85Q221 59 234 44L242 22L234 15Q225 20 218 26T200 54Q190 39 164 22T119 0L105 8Q110 24 121
50T153 147L146 145L144 158L162 181ZM48 94Q54 103 56 107T60 111T71 107Q77 96 76 65T79 -1L68 -14L58 -8Q59 30 58 92L48 94ZM59 162T58 166T56 191Q69 183 70 181T74 172T77 158T73 148T69 135T62 117T26 71L17 79Q45 124 50 131T56 144T58 156Z" />
<glyph unicode="&#x4ed3;" glyph-name="null" horiz-adv-x="256" d="M99 193L109 199Q118 193 118 191T119 181T117 166T103 137T74 93T46 58T29 44T12 40Q23 51 30 62T43 81T64 106T86 142T95 169T99 193ZM88 132L86 142L98 161Q112 161 115 159T129 145T158
123T186 110T234 109V95Q214 92 205 92T184 95T148 108T107 144L88 132ZM78 71L72 77Q78 94 96 100T120 110T136 113T149 111T154 100T142 74T106 41L92 44Q119 63 125 76T133 95T132 101T125 98T107 87T78 71ZM84 62T84 64T95 73Q104 62 107 59T111 56T112 51T111
37T106 27T105 15T107 5T116 -1T152 -3T208 10Q209 32 209 61Q218 39 225 25T231 -4Q213 -4 196 -9T153 -16T118 -16T105 -13T97 -7T92 2T90 19T89 39T86 54Z" />
<glyph unicode="&#x4ed4;" glyph-name="null" horiz-adv-x="256" d="M95 145L100 162Q127 185 148 192T171 200T177 190T177 172T165 136Q182 111 183 105T184 68T183 -14H173V-26Q150 -14 138 2T100 69L113 63Q139 23 166 1Q172 45 170 68T165 99T156 116T147
133T162 181Q134 166 95 145ZM85 66L82 81Q105 86 136 97T187 113T214 120T247 119V102Q224 102 198 98T143 82T104 70T85 66ZM67 153T67 154T54 162L58 172L71 171Q82 161 83 158T79 143T62 116T33 77Q42 90 51 93T72 96Q73 59 64 -3L51 1Q57 55 54 83Q50 81 44
75T19 58L9 64Q22 86 31 97T51 122T64 144Z" />
<glyph unicode="&#x4ed5;" glyph-name="null" horiz-adv-x="256" d="M72 150T72 151T60 159L64 169L76 168Q87 158 88 155T84 140T68 113T40 74Q48 87 57 90T77 93Q78 56 70 -6L57 -2Q62 52 59 80Q56 78 51 72T26 55L16 61Q29 83 38 94T57 119T69 141ZM90 63L85
68L95 82Q120 95 146 106T195 120T234 127L239 112Q234 107 227 106T201 105T159 94T120 76T90 63ZM156 188T166 195L175 191Q182 176 179 137T172 74T169 47T174 28L165 21L153 30Q155 38 156 71T157 146ZM116 -6L113 9Q130 11 149 15T180 21T199 23T223 17V-1Q209
5 192 5T157 0T129 -6T116 -6Z" />
<glyph unicode="&#x4ed6;" glyph-name="null" horiz-adv-x="256" d="M80 73H67Q71 97 72 98T85 114T120 144T158 162T181 164T190 160T193 147T186 122T169 92T157 71T144 59Q135 61 131 69T135 96Q139 76 142 78Q150 89 156 100T169 124T178 149Q172 154 166
150T148 143T124 130T101 108T90 95T80 73ZM89 131T90 134T95 148L104 150Q110 139 111 135T112 101T113 44T116 13T129 5T171 9T228 26Q225 63 217 86Q234 69 241 55T249 35T251 13Q232 13 219 8T175 -4T129 -8T100 3Q97 18 95 44T91 101ZM121 193L138 190Q143
178 143 161T139 115T129 71L115 63Q101 81 99 87T100 101T107 105T115 83Q118 92 118 101T119 127T120 160T121 193ZM63 162L74 157Q74 146 73 139T58 118T27 72L42 87H56Q57 81 59 67T63 17L52 7Q46 56 45 62T45 71Q24 45 20 43Q8 39 7 40T5 48T6 59T9 68T20
88T40 124T63 162Z" />
<glyph unicode="&#x4ed8;" glyph-name="null" horiz-adv-x="256" d="M120 72V90Q129 88 133 84T143 80L146 69L137 62L120 72ZM85 93L83 104Q89 106 99 110T122 118T157 126T188 138L173 149Q190 151 193 152T203 150T239 147L238 132Q198 124 190 123T164 116T126
104T85 93ZM156 191Q166 201 167 202T178 196Q180 191 181 182T180 155T175 105T176 34T179 -11T178 -18T167 -31Q156 -19 137 1L128 18L160 2Q160 71 160 102T159 152T160 177T156 191ZM51 94Q57 103 59 107T63 111T74 107Q80 96 79 68T82 8L71 -5L61 1Q62 36
61 92L51 94ZM62 157T61 161T59 186Q72 178 73 176T77 167T80 153T76 144T71 132T63 115T22 73L13 81Q46 122 51 129T58 141T61 152Z" />
<glyph unicode="&#x4ed9;" glyph-name="null" horiz-adv-x="256" d="M91 87L101 91L112 87L106 35L111 22Q122 23 133 35T169 64T218 98V91Q198 72 181 58T154 34T136 18T119 7T101 8T91 17T91 29T91 87ZM206 102T215 108L223 105Q229 91 226 66T220 28T218 13T222
-4L214 -10L204 -2Q205 5 206 25T207 74ZM129 159Q129 176 135 188L148 195Q159 185 160 184T160 149T157 80T168 27L159 16L140 27Q132 53 131 63T129 89Q135 79 137 71T146 44Q143 112 143 173L129 159ZM43 90Q49 99 51 103T55 107T66 103Q72 92 71 64T74 6L63
-7L53 -1Q54 33 53 88L43 90ZM54 151T53 155T51 180Q64 172 65 170T69 161T72 147T68 138T64 128T57 111T21 69L12 77Q40 118 45 125T51 137T53 146Z" />
<glyph unicode="&#x4ee1;" glyph-name="null" horiz-adv-x="256" d="M111 171L104 178Q118 195 119 198T133 200L144 188Q142 176 139 171T133 158T125 143T113 125T103 112T92 100L85 107Q92 121 98 132T111 152T120 171T123 178L111 171ZM123 133L118 148Q125
148 131 147T141 148T150 152T159 157T170 161T181 162T195 160Q195 149 193 146T186 139T180 134T153 123L159 146Q158 137 132 129L123 133ZM124 79T118 72L107 83L113 94Q118 99 123 99T143 104T160 110T178 110Q178 101 178 93T173 79T154 54T139 24T138 5T148
-4T170 -4T197 2T219 11Q211 16 210 24T208 41T214 84Q220 55 221 49T228 35T236 24T238 20T237 5Q226 -7 222 -6T209 -7T179 -14T143 -18T125 -1T125 29T139 58T163 90Q141 91 133 85ZM61 153T63 156T74 166L86 158Q76 149 69 126T46 78T26 51T2 34Q17 59 30 82T52
129ZM31 59L23 69Q26 77 35 81T51 87T72 96Q80 88 80 87T80 77T80 56T84 38T87 29T84 16L79 15V10L70 7L61 16Q62 21 65 24T68 35T66 54T61 74Q63 80 59 79T46 72T31 59Z" />
<glyph unicode="&#x4ee4;" glyph-name="null" horiz-adv-x="256" d="M76 135L79 158L93 165L117 153Q118 151 120 147T136 137T167 126T201 120T227 119T242 120L244 113Q240 111 239 109T224 107T202 104T163 111T123 128T95 147L76 135ZM88 51Q101 60 109 63T130
64L143 48Q141 37 139 33T128 20T114 2Q121 1 128 2T146 3T168 -3L165 -18Q152 -18 143 -16T126 -14T107 -14T85 -7Q96 2 101 8T111 23T127 37L118 51Q110 47 92 45L88 51ZM89 100Q101 110 104 110T129 108L135 91Q127 79 123 74T117 66T95 46Q107 73 110 78T115
90T114 93Q99 93 89 100ZM88 172T89 175T86 186L102 195L111 188Q111 175 110 173T105 169T91 144T67 103T47 73T37 55T23 44L14 51Q25 69 35 82T56 116T78 154Z" />
<glyph unicode="&#x4ee5;" glyph-name="null" horiz-adv-x="256" d="M36 122L50 115Q45 95 45 82T43 55T45 27L46 23Q58 39 63 65T70 93T93 108Q94 93 96 91T109 86L112 74Q100 69 95 70T87 75T85 83Q62 24 61 20T58 15T41 6L30 12Q28 41 29 57T29 89T36 122ZM155
175T160 184L174 177Q180 153 176 147T160 118T135 65T115 19T100 1T77 0Q93 13 102 29T126 76T145 129T152 164ZM139 50L144 67Q164 50 180 42T212 37T247 43V28Q228 26 218 19T192 15T164 29T139 50Z" />
<glyph unicode="&#x4ee8;" glyph-name="null" horiz-adv-x="256" d="M148 68Q136 68 135 68T128 78L140 89L176 102H182Q180 94 185 88L154 76L148 68ZM109 131L114 143Q142 155 154 161T178 175H200Q202 161 178 149T109 131ZM88 -2V13Q105 17 125 25T163 34T207
39L205 62Q216 47 232 45L236 20Q211 28 199 27T170 22T131 6T88 -2ZM46 90Q52 99 54 103T58 107T69 103Q75 92 74 60T77 -8L66 -21L56 -15Q57 24 56 88L46 90ZM57 159T56 163T54 188Q67 180 68 178T72 169T75 155T71 145T66 131T59 113T21 66L12 74Q42 120 47
127T54 140T56 153Z" />
<glyph unicode="&#x4ee9;" glyph-name="null" horiz-adv-x="256" d="M44 89Q50 98 52 102T56 106T67 102Q73 91 71 60T74 -4L63 -17L53 -11Q54 26 54 87L44 89ZM57 155T56 159T54 184Q67 177 68 175T72 165T75 151T71 141T65 129T57 111T16 66L7 74Q40 118 45
125T52 138T56 149ZM141 189L152 188Q157 179 160 171T160 128T156 69T158 34T163 16L145 9L132 29L140 32Q141 90 140 128T138 175T141 189ZM107 -2T101 -3T82 2L86 11Q97 13 122 18T173 28T205 32T221 30T235 26T248 13L240 12L242 4Q237 4 233 4T217 4T192 8L188
16Q168 15 154 12T124 4ZM161 99L157 108Q165 114 170 118T179 122T192 125L201 119L205 108Q196 93 192 85T168 69Q187 97 186 110Q174 101 161 99Z" />
<glyph unicode="&#x4ef0;" glyph-name="null" horiz-adv-x="256" d="M63 156T63 157T50 165L54 175L67 174Q78 164 79 161T75 146T59 119T31 80Q40 93 49 96T70 99Q71 62 63 0L50 4Q55 58 52 86Q48 84 42 78T17 61L7 67Q20 89 29 100T48 125T61 147ZM116 189L115
195L120 200L134 195Q141 182 137 169T125 148T102 127Q112 119 112 108T108 62L114 64Q123 72 137 91L142 92Q134 72 133 69T118 45L106 39L97 45Q99 59 98 76T96 104L73 106Q89 125 98 132T115 150T127 171T125 186L116 189ZM142 109L135 118Q135 128 153 143T187
165T220 174L230 164Q232 128 224 112T198 62L187 60Q180 74 175 69Q177 34 177 16T177 -10T185 -28L178 -31L177 -41L166 -36Q156 -17 159 -11T164 14T162 58T162 130H177Q180 86 186 75L194 80Q197 100 202 106T209 119T212 132T220 154L215 162Q210 159 202
159T183 152T162 133T142 109Z" />
<glyph unicode="&#x4ef3;" glyph-name="null" horiz-adv-x="256" d="M85 131T84 135T87 153Q99 148 101 140T103 124T103 92T103 59T102 27Q108 54 110 56T117 64T128 74Q124 62 122 55T120 33T110 -3H93Q88 5 87 12T86 28T88 51T90 92T89 125ZM99 72L92 89Q108
107 126 112L128 103Q114 88 99 72ZM135 166T133 174L149 178Q149 168 153 151T156 93T160 42T168 29T187 26T231 41Q227 56 225 68T225 98Q229 88 237 76T247 61T253 31Q243 23 220 15T175 9T152 15T146 28T142 46T141 91T138 148ZM189 162T189 162T198 170Q206
163 206 161T202 144T194 126T179 107T150 72L142 82Q157 101 167 118T182 142T188 155ZM58 151T58 152T46 160L50 170L62 169Q73 159 74 156T70 141T54 114T26 75Q34 88 43 91T63 94Q64 57 56 -5L43 -1Q48 53 45 81Q42 79 37 73T12 56L2 62Q15 84 24 95T43 120T55
142Z" />
<glyph unicode="&#x4ef7;" glyph-name="null" horiz-adv-x="256" d="M133 199L142 204Q150 199 151 197T153 188T153 175T144 149T126 109T108 78T96 66T79 62Q90 73 92 82T100 99T116 122T127 153T131 178T133 199ZM133 160L144 169Q154 171 157 168T171 151T192
130T213 119T241 110V103Q224 101 212 101T190 112T168 137T133 160ZM126 88L133 95Q140 86 141 84T140 70T140 42H149L152 37Q145 17 144 15T131 5L119 17Q122 28 122 42T126 88ZM165 105H181Q179 88 179 82T178 67T175 47T174 10T185 -25L178 -29L177 -37H169Q164
-22 164 5T160 59T165 105ZM76 166T76 167T63 175L67 185L80 183Q90 174 91 171T87 156T71 129T42 90Q51 103 60 105T80 108Q81 72 73 11L60 14Q66 68 63 96Q59 94 53 88T28 72L19 78Q31 98 40 110T60 135T73 157Z" />
<glyph unicode="&#x4efb;" glyph-name="null" horiz-adv-x="256" d="M173 109T174 110T179 112T183 111T187 101T191 88T176 29L162 25Q170 85 171 97ZM156 1T149 -2T133 -1L131 6Q144 16 153 20T170 22T213 26L217 40Q230 32 232 31T234 13Q223 11 201 9T167
4ZM121 145L117 155Q125 161 131 165T156 174T185 182L195 176L199 164Q185 139 180 130T136 77Q175 143 179 166Q135 147 121 145ZM99 27V40Q137 60 204 91V103Q213 96 223 91L225 79Q213 75 179 58T99 27ZM60 58Q65 67 67 71T71 75T82 71Q87 60 85 44T86 8L76
-5L66 1Q68 25 69 56L60 58ZM91 173L104 182Q108 172 107 162T97 145T87 128T72 98T46 64T32 45T20 29L9 40Q20 59 32 72T58 107T78 146T91 173Z" />
<glyph unicode="&#x4eff;" glyph-name="null" horiz-adv-x="256" d="M144 87L149 106Q184 120 187 120T201 115T214 109T213 99T206 77T200 51T195 19T192 -4T183 -27L174 -29Q162 -17 148 0L147 13L177 -4Q175 13 180 28T185 63T188 88T192 94T185 98T144 87ZM132
184L137 191H160Q160 178 157 175T147 169T135 159Q138 166 143 181L132 184ZM146 129T147 131T158 134Q168 121 167 119T160 100T140 58T109 14L101 21Q116 46 128 71T143 112ZM84 108L80 119Q88 126 95 130T110 135T125 137T149 147T175 157T195 163T210 166T219
166T235 165L233 149Q223 145 219 144T188 140L192 153Q189 149 179 145T149 132T116 121T84 108ZM70 156T70 157T57 165L61 175L74 174Q85 164 86 161T82 146T65 119T36 80Q45 93 54 96T75 99Q76 62 67 0L54 4Q60 58 57 86Q53 84 47 78T22 61L12 67Q25 89 34 100T54
125T67 147Z" />
<glyph unicode="&#x4f01;" glyph-name="null" horiz-adv-x="256" d="M106 99Q112 108 114 112T118 116T129 112Q134 101 131 77T130 24L119 11L109 17Q113 49 116 97L106 99ZM103 57L107 66Q125 74 132 78T148 88H164Q166 77 150 69T103 57ZM75 75L86 86L94 84Q98
61 97 55T92 5L77 0Q83 50 82 54T75 75ZM38 -17L36 -4Q58 -3 91 6T146 18T174 22T208 18V3Q183 6 156 5T97 -6T58 -17T38 -17ZM159 31H187Q205 17 215 14T238 4L234 -15L211 -11Q211 -3 211 -3T203 1T159 31ZM96 126L94 136L106 155Q120 155 123 153T137 140T168
119T197 107T244 106V92Q225 89 216 89T195 92T159 104T115 138L96 126ZM112 201L122 196Q127 177 124 172T116 162T107 150T86 119T53 76T34 49L15 53Q23 62 40 81T73 126T94 163T102 180T112 201Z" />
<glyph unicode="&#x4f08;" glyph-name="null" horiz-adv-x="256" d="M100 80V87Q108 93 110 93T121 85T132 75T132 57T143 33T172 23T199 19Q196 31 197 47T204 76Q208 62 212 51T228 21L220 17L218 2Q194 6 176 7T142 16T118 47T108 74T100 80ZM88 136L111 125Q111
114 109 108T102 86T84 54L71 60Q79 79 84 93T89 111T87 121T88 136ZM133 122L127 136L139 142Q147 136 151 135T154 131T166 132L169 124Q160 115 155 114T147 115T133 122ZM180 139V148Q182 149 193 143Q201 143 203 142T210 136T228 119L223 101Q206 110 186
112L176 123H195V132L190 138L180 139ZM36 92Q42 101 44 105T48 109T59 105Q65 94 64 63T67 -1L56 -14L46 -8Q47 29 46 90L36 92ZM47 158T46 162T44 187Q57 179 58 177T62 168T65 154T61 144T57 132T50 114T14 69L5 77Q33 121 38 128T44 141T46 152Z" />
<glyph unicode="&#x4f0a;" glyph-name="null" horiz-adv-x="256" d="M140 136T140 138T143 143T148 145T157 142Q167 125 166 112T166 89T164 68T155 36T142 -4T130 -31L112 -43Q121 -23 127 -5T135 20T140 44T145 70T146 94T142 122ZM123 145L113 157Q117 170
119 172T136 179T170 186T195 189T208 185T218 177T221 172T220 156T214 131T200 103T180 85T162 85T150 96T143 113Q150 106 154 101T163 92T173 94T186 108T199 131T205 173L203 175Q187 175 183 176T165 175T140 168T130 164T130 158T123 145ZM111 51L109 60Q136
82 148 92T181 104L188 96Q177 75 160 68T111 51ZM128 108T129 110T143 121T159 130T173 126T184 119T161 105T135 93T130 101ZM75 163T77 166T88 176L100 168Q90 159 80 137T54 93T32 68T8 51Q23 76 38 97T64 140ZM38 74L30 84Q34 91 43 95T59 100T80 107Q88 99
88 98T87 88T84 68T86 51T88 42T84 30L79 29V24L70 21L61 30Q62 35 65 37T69 48T69 66T69 85Q71 93 67 92T54 85T38 74Z" />
<glyph unicode="&#x4f0d;" glyph-name="null" horiz-adv-x="256" d="M95 -17L80 -9L82 4Q97 12 119 20T153 31T177 33T197 34T211 32T230 29T252 24L240 7Q210 15 204 18T187 21T163 17T126 6T95 -17ZM114 155T102 157V174Q114 172 121 171T141 175T166 187Q183
187 184 185T185 177Q178 161 171 148T160 118T150 74T132 20Q117 28 112 33T105 48T98 69T93 83T100 106Q101 106 105 107T121 110T146 118T171 122T202 123Q195 102 193 98T183 81T163 55T134 31Q146 45 155 60T181 112Q178 112 172 109T152 104T126 98T113 90T111
83T110 74T114 61T119 50T122 41Q129 67 135 83T144 121T147 164Q132 153 123 154ZM54 159T56 162T67 172L79 164Q69 155 63 131T43 82T25 55T1 38Q16 63 27 86T46 134ZM29 63L21 73Q24 81 31 86T46 92T66 101Q74 93 74 92T74 82T73 61T77 43T80 34T77 20L72 19V14L63
11L54 20Q55 25 58 28T61 40T59 59T55 79Q58 85 54 84T43 76T29 63Z" />
<glyph unicode="&#x4f0f;" glyph-name="null" horiz-adv-x="256" d="M91 77L86 88Q100 92 106 93T123 98T140 108T155 120T183 123V106Q162 100 150 94T128 83T112 78T91 77ZM121 188L130 195H136Q145 186 146 184T148 172T150 151T151 120T143 86T131 52T113
13T97 -10T88 -18T71 -13L69 -2L80 -9Q92 5 93 7T104 27T118 61T126 90T131 117T134 136T132 153Q124 160 124 162T121 188ZM115 51L127 62Q138 64 142 61T160 43T187 21T214 12T250 8V-1Q228 -6 212 -7T183 1T156 27T115 51ZM171 160L176 176Q181 176 185 175T215
152L210 141L171 160ZM64 154T64 155T51 163L55 173L68 172Q79 162 80 159T76 144T59 117T30 78Q39 91 48 94T69 97Q70 60 61 -2L48 2Q54 56 51 84Q47 82 41 76T16 59L6 65Q19 87 28 98T48 123T61 145Z" />
<glyph unicode="&#x4f10;" glyph-name="null" horiz-adv-x="256" d="M87 120L85 131Q101 139 116 145T167 159L168 144Q142 134 126 130T105 124T87 120ZM101 181L112 186Q119 181 120 179T124 164T138 125T169 67T212 15Q212 37 212 60T213 93T216 92T221 60T229
25T240 -5L232 -18L225 -20Q200 5 190 18T157 65T122 123T105 158T101 181ZM168 113T168 113T177 121Q185 114 185 112T180 96T170 78T151 62T114 35L105 45Q124 60 138 74T158 95T165 108ZM152 189T152 190T155 196T159 202T164 202T180 198T197 191T203 186T201
177T196 169T185 172T172 181T159 188ZM68 156T68 157T55 165L59 175L72 174Q83 164 84 161T80 146T63 119T34 80Q43 93 52 96T73 99Q74 62 65 0L52 4Q58 58 55 86Q51 84 45 78T20 61L10 67Q23 89 32 100T52 125T65 147Z" />
<glyph unicode="&#x4f11;" glyph-name="null" horiz-adv-x="256" d="M103 115L98 120L108 134Q115 144 131 154T157 168T185 177L189 162Q185 157 178 156T164 153T144 142T124 126T103 115ZM136 188L150 203L156 199Q156 185 156 142T157 58T157 6T157 -10T156
-23L150 -29Q139 -16 137 -7T136 14T140 33Q141 26 143 27Q143 97 142 132T140 172T136 188ZM125 126T126 128T132 130T139 130T142 119T139 102T125 80T100 45T85 25T74 18L69 25Q76 34 89 53T111 91T123 117ZM136 96L130 111Q150 113 152 113T157 110T167 104T175
101T178 98T194 92T217 86T233 83T250 80L254 76Q245 74 242 74T229 73T209 72T190 74T171 82T161 93T156 98T136 96ZM63 167T65 170T76 180L88 172Q78 163 71 141T48 95T27 70T3 53Q18 78 32 99T54 144ZM33 77L25 87Q29 94 37 98T53 103T74 110Q82 102 82 101T82
91T82 71T86 53T89 44T86 31L81 30V25L72 22L63 31Q64 36 67 39T70 50T68 69T63 88Q65 96 61 95T49 88T33 77Z" />
<glyph unicode="&#x4f19;" glyph-name="null" horiz-adv-x="256" d="M76 120L81 125L98 109L107 124Q110 114 111 111T106 90L81 102L76 120ZM116 68L118 79Q132 77 139 74T147 65T158 54T175 41T192 29T214 23T258 18L254 11Q238 7 232 6T215 7T191 12T165 24T146
44T116 68ZM173 153L182 149Q178 124 173 118T159 100T137 69L115 78Q138 97 140 101T151 118T173 153ZM128 168V176L149 187L156 176Q153 163 146 135T131 85T119 56T110 18T104 -14T97 -13T90 -6T98 31T115 87T134 163L128 168ZM60 160T60 161T47 169L51 179L64
178Q75 168 76 165T72 149T55 120T26 79Q35 92 44 95T65 98Q66 60 57 -6L44 -2Q50 56 47 85Q43 83 37 77T12 60L2 66Q15 88 24 100T44 127T57 150Z" />
<glyph unicode="&#x4f1b;" glyph-name="null" horiz-adv-x="256" d="M88 153Q104 152 108 152T124 160T171 187L177 185V172Q158 150 156 148T150 145T125 129Q108 74 109 58T107 28T108 5Q125 9 181 20L185 30Q195 30 216 30T244 23V6Q235 8 215 9T162 2T101
-10L85 4Q85 9 89 26T95 60T102 134L121 136L139 154Q111 139 105 137T88 142V153ZM185 114T185 114T195 123Q204 115 204 113T199 98T188 81T171 65T138 37L129 48Q146 65 158 78T175 99T183 110ZM127 75L135 94Q152 94 157 94T173 87T193 76T221 66L219 53L188
49L192 57Q186 66 174 69T154 85L127 75ZM59 154T59 155T47 163L51 173L63 172Q74 162 75 159T71 144T55 116T27 76Q35 89 44 92T64 95Q65 58 57 -5L44 -1Q49 54 46 82Q43 80 38 74T13 57L3 63Q16 85 25 97T44 122T56 145Z" />
<glyph unicode="&#x4f1f;" glyph-name="null" horiz-adv-x="256" d="M124 138L120 143L125 153Q148 163 151 164T166 165Q168 154 167 152T147 127L163 120Q157 93 133 78L128 90Q140 100 146 106Q132 107 123 101L115 108Q120 117 127 124T148 144L145 147L124
138ZM74 38L71 55Q106 70 132 77T182 89T217 94T231 93T233 81T225 60T200 32T171 5H152Q144 18 144 27T145 45T151 78Q153 45 154 36T163 20Q166 19 183 34T210 65T218 83T209 84T177 76T134 64T74 38ZM131 200T135 202T141 204T146 201T150 196T148 189T146 163T146
107T148 41T146 -3T151 -32H144L140 -43L128 -34Q130 -16 132 -3T134 42T133 108T131 171ZM67 158T67 159T55 167L59 177L71 176Q82 166 83 163T79 148T63 119T34 79Q43 92 52 95T72 98Q73 61 65 -3L52 1Q57 57 54 85Q51 83 45 77T20 60L10 66Q23 88 32 100T52
126T64 149Z" />
<glyph unicode="&#x4f20;" glyph-name="null" horiz-adv-x="256" d="M140 173L132 187L142 202L159 198L162 188Q166 174 167 159T163 120T155 89T143 63Q155 65 158 65T181 67L185 52Q181 39 177 34T166 25T150 14Q160 9 170 6T212 -13L210 -34L166 -16L168 -9Q158
-2 151 -3T140 -7T124 -8L122 1Q126 5 130 10T140 20T152 33T165 47T168 55Q164 53 161 52T154 48T120 30L114 40Q129 67 130 70T137 85T147 119T153 169L157 175L140 173ZM123 146T112 151Q118 152 136 159T160 171T168 175T174 175T180 175T179 164T168 147T153
135T135 127T114 116Q124 127 133 133T153 151Q123 146 112 151ZM71 70L69 81Q99 89 126 95T163 104T187 109Q173 114 163 119Q173 121 189 122T231 121L229 110Q209 100 193 98T170 93T135 82T71 70ZM71 151T71 152T58 160L62 170L75 169Q86 159 87 156T83 141T66
114T37 75Q46 88 55 91T76 94Q77 57 68 -5L55 -1Q61 53 58 81Q54 79 48 73T23 56L13 62Q26 84 35 95T55 120T68 142Z" />
<glyph unicode="&#x4f22;" glyph-name="null" horiz-adv-x="256" d="M116 167L111 182Q121 182 127 181T139 181T149 185T161 190T175 194T185 195T199 193Q199 182 197 179T191 172T185 167T158 156L164 179Q157 170 128 163L116 167ZM125 154L131 162H158Q158
139 152 135T137 122T109 91Q149 106 197 117L185 126L189 132H230L232 113Q199 103 174 98T127 83T100 70T92 68T76 72Q95 93 105 106T125 130T137 147L125 154ZM165 140T166 142T170 146T175 148T186 141Q189 112 188 107T184 47T188 -16L180 -30Q175 -28 169
-25T162 -20T154 -7T145 23T141 52L144 54Q146 41 151 28T161 6T171 -3Q170 105 168 122ZM155 88T155 88T164 96Q172 89 172 87T168 73T158 57T142 43T109 19L100 30Q117 45 128 56T145 75T153 85ZM49 93Q55 102 57 106T61 110T72 106Q78 95 77 65T80 1L69 -12L59
-6Q60 31 59 91L49 93ZM60 158T59 162T57 187Q70 179 71 177T75 168T78 154T74 144T69 132T61 114T21 70L12 78Q44 121 49 128T56 141T59 152Z" />
<glyph unicode="&#x4f25;" glyph-name="null" horiz-adv-x="256" d="M85 71L83 82Q106 90 125 96T153 105T168 110Q161 114 151 119Q161 121 173 123T208 122L206 111Q190 100 180 99T162 94T134 83T85 71ZM101 190L109 201H118Q126 198 126 197T128 181T131 141T132
68T134 -3H140Q136 14 140 28T150 53H156Q152 36 152 24T150 -3T144 -24L125 -26Q121 -9 119 -3T118 13T119 71T115 142T108 173T104 184T101 190ZM172 176T172 176T181 184Q189 177 189 175T185 159T176 141T160 125T129 95L120 105Q136 122 147 136T164 158T170
171ZM141 66L145 81Q164 62 181 50T213 34T246 26V13Q229 17 218 17T194 22T167 39T141 66ZM68 151T68 152T55 160L59 170L72 169Q83 159 84 156T80 141T63 114T34 75Q43 88 52 91T73 94Q74 57 65 -5L52 -1Q58 53 55 81Q51 79 45 73T20 56L10 62Q23 84 32 95T52
120T65 142Z" />
<glyph unicode="&#x4f2b;" glyph-name="null" horiz-adv-x="256" d="M103 113L111 118L126 104L119 107Q127 114 138 120T165 135T205 154L216 156Q218 143 218 138T213 131T203 120T195 109T175 103Q179 111 184 122T191 135Q189 136 169 125T140 105T128 90T107
86L99 98L103 113ZM90 11L91 22Q106 17 115 12T136 14T196 31Q197 46 193 55Q200 46 206 45T218 40T233 35L231 16Q226 18 215 19T187 18T158 9T132 -2T106 -8L90 11ZM136 179L140 190Q154 186 161 186T172 186T180 174L165 157Q147 150 137 137L134 139Q147 159
154 172Q154 175 151 176T136 179ZM45 92Q51 101 53 105T57 109T68 105Q74 94 73 63T75 -1L64 -14L54 -8Q56 29 55 90L45 92ZM55 158T54 162T52 187Q65 179 66 177T70 168T73 154T70 144T65 132T58 114T23 69L14 77Q41 121 46 128T53 141T55 152Z" />
<glyph unicode="&#x4f2f;" glyph-name="null" horiz-adv-x="256" d="M135 175V188L149 194L164 188Q164 177 164 174T157 156T117 113Q123 110 128 105T132 76T132 40T134 23T135 15T127 1L115 -1Q116 23 117 39T116 73T110 98L91 102Q111 127 122 139T137 158T150
175H135ZM142 76L136 84Q138 98 154 111T182 129T197 134T208 137L227 118Q223 98 221 73T218 35T221 10Q213 -5 213 -13Q194 -9 175 6Q159 0 137 -8L133 3Q154 13 165 17Q161 26 155 45Q166 30 176 27T204 10Q202 23 204 36T208 77T204 120Q203 119 189 115T165
102T152 87T142 76ZM137 53V66Q156 79 164 81T187 81L189 64Q172 68 167 64T137 53ZM52 95Q58 104 60 108T64 112T75 108Q81 97 80 66T83 0L72 -13L62 -7Q63 31 62 93L52 95ZM63 164T62 168T60 193Q73 185 74 183T78 174T81 160T77 150T72 136T65 118T27 72L18
80Q48 125 53 132T60 145T62 158Z" />
<glyph unicode="&#x4f32;" glyph-name="null" horiz-adv-x="256" d="M200 109H209L217 98Q180 72 149 48L138 46L132 53Q167 87 200 109ZM94 116L105 123Q121 115 120 106T119 90T117 75T111 48T101 18T94 1T83 -14L73 -4Q83 13 89 24T99 56T102 91T94 116ZM118
72L127 98Q144 84 145 82T145 49T143 16T142 8T142 2T163 -2T225 1Q224 28 228 49Q240 30 242 22T245 10T244 -13Q234 -13 210 -15T165 -17T136 -14T126 -2T124 12T127 35T128 55T118 72ZM137 160L124 167L122 178Q136 182 143 187T153 191T173 179Q173 170 172
164T159 144T133 105H120Q138 132 143 145T151 163T154 169T148 170T137 160ZM114 85L105 108Q131 119 160 118L158 112Q140 92 114 85ZM42 88Q48 97 50 101T54 105T65 101Q71 90 69 59T71 -7L60 -20L50 -14Q52 24 52 86L42 88ZM54 156T53 160T51 185Q64 177 65
175T69 166T72 152T68 142T63 129T56 111T19 65L10 73Q39 118 44 125T51 138T53 150Z" />
<glyph unicode="&#x4f34;" glyph-name="null" horiz-adv-x="256" d="M150 206L165 200Q171 181 167 172T164 149T165 116T166 80T168 35T167 -1T170 -27L159 -37L149 -35Q151 -6 151 27T151 79T149 116T149 156T150 206ZM105 81L99 91L119 104Q126 100 130 101T141
107T154 114T176 127L183 123L181 108Q174 100 165 95T142 77L146 97Q132 85 105 81ZM114 34T99 19L85 25Q95 40 98 42T118 50T153 64T201 73Q192 91 183 114T172 152Q185 144 195 122T209 96T232 80L236 63Q211 65 197 61T162 53T128 41ZM119 143L126 154Q132
146 139 144Q154 156 166 165T184 178T194 169Q189 158 184 152T175 140T168 136T152 132Q156 139 159 142T166 150T168 158Q163 154 161 149T150 127Q137 125 133 128T125 134T119 143ZM75 153T75 154T62 162L66 172L79 171Q90 161 91 158T87 143T70 116T41 77Q50
90 59 93T80 96Q81 59 72 -3L59 1Q65 55 62 83Q58 81 52 75T27 58L17 64Q30 86 39 97T59 122T72 144Z" />
<glyph unicode="&#x4f36;" glyph-name="null" horiz-adv-x="256" d="M128 48L122 57Q135 67 140 67T154 64L169 45Q161 28 158 25T139 11Q153 5 164 5T197 -11L186 -12L192 -20L188 -26Q179 -22 168 -19T152 -11T142 -5T133 -4T115 -4L105 7Q118 13 123 18T131
23T137 27T146 37T149 43L141 54Q136 48 128 48ZM130 110L128 115L130 130Q143 132 148 132T159 125T168 112T186 100T201 92T208 87T218 84T227 86T249 88Q246 82 244 81T234 76T221 73T218 71T208 71T188 77T167 92T152 106T143 117L130 110ZM127 192L130 199Q149
199 152 183T155 164T148 153T140 137T127 111T105 74T93 51T80 43L72 51Q80 60 91 77T115 117T129 150T133 169T127 192ZM123 93Q135 103 138 103T153 101L158 88Q150 76 150 71T142 58T126 53Q141 75 139 75T138 79T138 86Q133 86 123 93ZM45 161L53 172L81 170Q81
155 79 150T66 132T43 97L48 93Q39 83 31 69L17 66Q15 77 16 80T23 92T37 112T53 139T63 160L45 161ZM39 84Q44 93 46 97T50 101T61 97Q66 86 65 58T68 -1L57 -14L47 -8Q49 27 48 82L39 84Z" />
<glyph unicode="&#x4f38;" glyph-name="null" horiz-adv-x="256" d="M126 75L121 79L125 90Q140 102 146 104T161 110T178 114T197 108Q195 95 192 93T180 84T158 65T140 47Q140 55 151 67T168 87T177 95T178 101Q153 95 144 87T126 75ZM151 195Q160 202 162 202T174
196Q178 181 176 159T173 99T171 18T183 -33L169 -46Q160 -40 157 -39T151 -35T139 -17Q146 -18 160 -21Q156 60 158 97T162 155T161 181T151 195ZM86 106L89 111L105 96L110 106Q132 133 157 140T216 153Q231 145 233 143T232 126T216 95T204 78T178 63L170 53L140
38L133 45Q159 67 162 69T176 78T191 88T204 105T217 136L213 139Q191 134 164 124T129 105T118 93T118 81T118 60L107 61Q95 80 86 106ZM55 159L49 166Q62 181 63 184T76 186L87 175Q84 164 80 157T74 141T64 123T45 98T32 82T22 71L15 77Q22 91 32 105T51 131T63
154T67 166L55 159ZM15 73Q25 88 27 91T41 101T56 109T67 107Q73 101 81 94Q77 42 77 25T77 3T78 -1T74 -14L61 -8Q61 3 61 25T63 67T61 90T56 92T42 87T15 73Z" />
<glyph unicode="&#x4f3c;" glyph-name="null" horiz-adv-x="256" d="M165 67L176 76Q186 78 189 75T201 57T217 35T234 25T257 21V14Q243 9 233 8T214 16T198 43T165 67ZM152 8T145 6T123 10Q140 29 148 49T168 98T181 154L177 158L179 175H188Q198 165 197 160T196
142T190 122T175 88T159 35ZM88 135L104 127Q99 105 99 92T98 66T100 40L99 36Q110 50 114 75T120 103T145 119Q144 104 147 102T160 97L163 84Q150 78 145 79T136 84T137 92Q115 34 115 31T112 27T93 17L83 23Q81 53 82 69T82 100T88 135ZM36 92Q42 101 44 105T48
109T59 105Q65 94 64 65T66 4L55 -9L45 -3Q47 33 46 90L36 92ZM46 155T45 159T43 184Q56 176 57 174T61 165T64 151T61 142T56 130T49 113T14 70L5 78Q32 120 37 127T44 139T46 150Z" />
<glyph unicode="&#x4f43;" glyph-name="null" horiz-adv-x="256" d="M88 107L97 113Q109 103 108 86T112 48T118 26T110 9L99 13Q94 66 88 107ZM137 117L129 123Q135 138 155 148T210 158L224 152Q228 113 221 85T191 19L169 21Q158 7 150 5L152 17Q141 17 128
23L136 36Q158 38 180 38Q199 71 204 91T210 137Q199 141 189 139T164 132T137 117ZM103 57L98 68Q111 72 117 73T133 77T150 86T164 97T195 100V83Q172 76 160 70T138 62T123 58T103 57ZM146 109L157 111Q171 81 162 31L144 24Q144 77 146 109ZM46 93Q52 102 54
106T58 110T69 106Q75 95 74 64T77 -2L66 -15L56 -9Q57 29 56 91L46 93ZM57 162T56 166T54 191Q67 183 68 181T72 172T75 158T71 148T66 134T58 116T18 70L9 78Q41 123 46 130T53 143T56 156Z" />
<glyph unicode="&#x4f46;" glyph-name="null" horiz-adv-x="256" d="M97 137H108Q121 124 116 106T116 70T109 44L100 50Q96 90 97 137ZM133 155L124 161L133 175L157 184Q175 185 179 179T186 160T188 122T186 84T190 59L180 46Q154 60 149 60T122 62V71Q147
77 151 78T169 72Q166 80 166 86T170 118T172 153T166 163T160 166T146 162L133 155ZM126 107T126 108T133 114T139 120T150 118T161 112T147 80Q159 77 159 73T157 68T152 65T142 65T127 65Q131 69 140 69L130 75L136 80Q126 107 126 108ZM106 1T101 1T79 6L84
17Q93 20 109 20T144 22T175 27T194 31T215 35T234 35T245 24L238 8Q211 17 201 16T177 14T145 10T117 5ZM41 149L57 163L70 158Q75 147 75 143T69 130T56 116T45 100T33 83T12 76Q21 90 29 101T45 125T57 147L41 149ZM36 90T31 95L34 99Q45 96 52 91T60 70T62
36T63 12T62 2T55 -9H45L37 -1Q44 3 44 4T45 12T46 35T44 65T40 85Z" />
<glyph unicode="&#x4f4e;" glyph-name="null" horiz-adv-x="256" d="M150 146L155 155H167Q177 138 182 127T187 107T198 58T228 -1Q232 52 234 63T241 92Q243 78 242 63T243 19T238 -24H228Q218 -14 210 2T185 59T163 117T150 146ZM141 191L143 198L157 204H170L174
191Q167 180 156 162T116 105L126 98Q125 56 122 18Q127 37 136 55L147 58Q142 26 120 -7L109 -1Q108 52 109 90L101 94Q95 90 87 96L93 107Q98 107 102 110T117 131T137 166T153 189L141 191ZM118 63Q118 77 124 86T136 98T151 106T176 126T219 146L221 131Q192
114 181 107T152 91T118 63ZM140 28L148 36L174 28L172 6Q164 1 154 -4Q159 9 157 21L140 28ZM50 89Q56 98 58 102T62 106T73 102Q79 91 78 60T81 -4L70 -17L60 -11Q61 26 60 87L50 89ZM61 155T60 159T58 184Q71 176 72 174T76 165T79 151T75 141T70 129T63 111T25
66L16 74Q46 118 51 125T58 138T60 149Z" />
<glyph unicode="&#x4f4f;" glyph-name="null" horiz-adv-x="256" d="M131 47L119 45L121 59Q129 69 135 73T151 84T182 90L180 70Q165 70 162 69T156 66T148 63T141 60T131 47ZM85 -12L83 1Q88 2 99 7T123 14T159 20T214 29L198 41Q216 43 219 44T230 42T248 35L246
18Q224 14 205 13T167 8T128 -2T85 -12ZM105 100V115Q127 129 136 131T163 130L166 110Q145 115 139 111T105 100ZM140 120L149 125H155Q165 97 167 89T164 65T160 35T158 9L141 11Q145 24 145 36T144 69T140 120ZM113 177Q125 187 128 187T149 182L158 165Q150
153 148 148T143 141T121 121Q138 148 137 149T138 156T134 167Q123 170 113 177ZM47 91Q53 100 55 104T59 108T70 104Q76 93 75 61T78 -7L67 -20L57 -14Q58 25 57 89L47 91ZM58 160T57 164T55 189Q68 181 69 179T73 170T76 156T72 146T67 132T60 114T22 67L13
75Q43 121 48 128T55 141T57 154Z" />
<glyph unicode="&#x4f50;" glyph-name="null" horiz-adv-x="256" d="M139 174T142 183T158 195Q160 174 158 168T150 128T133 68T113 31T96 8T87 -6T83 -12T69 -17Q76 -10 78 -3T87 13T99 38T114 72T128 102T135 143ZM88 112L83 123Q105 126 111 127T134 133T164
146T186 160T214 163V146Q193 140 174 132T139 118T117 112T88 112ZM145 64T139 64T121 83Q133 85 139 81T150 77T166 83T184 92H191V74Q184 71 175 69T155 66ZM151 73T161 80L170 76Q177 61 175 46T170 29T168 24T173 5L164 -2L152 7Q154 15 154 26T153 55ZM107
-10L102 4Q120 4 124 4T143 10T168 19T186 20T205 28Q216 26 216 27T237 18L239 -2L224 -9Q208 7 206 8T184 7T149 -4T126 -13T107 -10ZM38 89Q44 98 46 102T50 106T61 102Q67 91 66 60T69 -4L58 -17L48 -11Q49 26 48 87L38 89ZM49 155T48 159T46 184Q59 176 60
174T64 165T67 151T63 141T59 129T52 111T16 66L7 74Q35 118 40 125T46 138T48 149Z" />
<glyph unicode="&#x4f53;" glyph-name="null" horiz-adv-x="256" d="M87 104L82 109L93 125Q99 140 115 153T141 173T169 184L174 169Q169 164 162 163T148 156T128 139T109 118T87 104ZM130 193L143 203L151 197Q147 188 147 166T148 116T148 63T152 10T152 -30L138
-26Q133 -16 117 20L136 5Q131 29 131 59T131 115T130 193ZM113 42V55Q132 72 139 74T162 74L165 56Q146 61 142 56T113 42ZM116 124T117 126T123 129T130 128T132 117T128 100T115 78T93 43T80 22T68 15L63 22Q70 32 81 52T101 90T113 116ZM130 95L129 108Q138
113 147 107T164 98T178 93T190 87T204 80T225 78T256 73Q243 68 238 67T224 65T203 66T181 72T160 83T145 92T130 95ZM66 171T66 173T72 175T79 175T80 163T76 146T61 123T35 83T19 60T8 53L3 60Q10 69 24 91T48 133T62 161ZM41 90T41 91T43 96T47 100T56 97Q62
92 61 84T58 66T61 50T66 35T57 21L48 25Q48 34 47 44T46 63T45 77T42 86Z" />
<glyph unicode="&#x4f58;" glyph-name="null" horiz-adv-x="256" d="M64 35L63 46Q79 54 102 60T175 74L176 59Q136 50 113 46T84 39T64 35ZM82 71V86Q110 96 121 98T150 98L152 86Q133 83 124 79T82 71ZM182 21V36Q209 31 237 17L235 4L226 -2Q198 14 182 21ZM51
-15L40 -17L36 -9Q45 2 52 11T67 24T77 30T82 24T85 14T77 8T51 -15ZM116 57L128 64H135Q139 59 140 50T142 36T140 27T136 5T144 -22L137 -26L139 -34Q128 -32 127 -32T113 -18T99 2T94 13L99 15Q106 6 111 1T123 -3Q121 24 121 28T118 40T116 57ZM99 128L97 138L109
157Q123 157 126 155T138 141T162 120T186 107T232 106V92Q212 89 203 89T184 92T153 105T118 140L99 128ZM117 204L127 199Q133 180 129 174T121 165T111 152T90 120T58 76T39 49L20 53Q28 62 45 82T78 128T99 166T107 183T117 204Z" />
<glyph unicode="&#x4f59;" glyph-name="null" horiz-adv-x="256" d="M107 144T107 147T109 155T113 160T137 151T181 132T212 119T239 119L241 111L235 100Q214 103 207 105T174 117T128 136ZM85 181L82 189L95 200H114Q122 191 122 185T119 170T93 131T31 50L14
53Q55 104 59 109T80 141T105 182L104 185L85 181ZM88 95L84 104Q92 110 97 114T109 119T125 122L134 116L138 105Q132 100 128 92T105 79Q123 104 119 107Q101 97 88 95ZM73 44L58 57Q77 55 82 56T97 64T120 72L122 89L151 91L156 76Q137 66 125 60T99 48T73 44ZM112
100L124 107H131Q135 102 136 89T138 72T136 58T133 19T143 -21L136 -25L138 -33Q127 -31 126 -31T113 -16T100 7T95 21L100 23Q107 14 112 7T122 -2Q117 51 117 60T114 79T112 100ZM83 39T84 42T99 55L108 51Q103 35 99 29T83 18T50 -6L33 5Q63 24 73 31ZM144
46H172Q191 38 202 37T226 29L222 10L199 14Q199 22 199 22T190 24T144 46Z" />
<glyph unicode="&#x4f5c;" glyph-name="null" horiz-adv-x="256" d="M125 134L140 128Q145 117 142 108T139 91T141 70T145 43T148 14T147 -10T149 -34L139 -43L130 -41Q132 -15 132 6T130 43T126 69T125 98T125 134ZM181 84T172 82L160 96Q167 105 168 106T180
108T192 110T209 102Q202 91 201 84T187 68T158 48Q181 59 200 65T235 73L238 71Q224 62 210 56T189 46T173 38T153 33T139 34T137 42T145 55T159 64T176 74T187 85T191 90Q181 84 172 82ZM118 186T127 200L138 198Q137 190 138 184T144 176T159 173T181 171T202
172T212 170T211 159T205 144T189 139T165 128Q172 143 190 153Q167 153 155 155T129 161Q123 155 115 140Q112 157 115 171ZM85 167L95 163Q95 153 94 147T78 125T44 78L62 97H75Q78 91 80 79T86 34L75 25Q67 68 66 74T65 82Q42 53 36 51Q25 47 24 48T22 55T23
66T27 74T39 95T61 131T85 167Z" />
<glyph unicode="&#x4f5d;" glyph-name="null" horiz-adv-x="256" d="M112 86L121 95L130 86Q150 89 160 96L178 92L180 78L153 54L176 60L185 53L180 50L185 44Q155 34 117 29L112 38Q142 60 151 67T162 85L153 80Q138 66 137 62T134 49L125 44L114 46Q118 63
118 67T112 86ZM121 169H114L118 190L128 199L143 191Q143 167 138 157T118 121Q138 136 158 146T194 157T220 154Q222 142 222 136T219 117T218 92T220 52T222 6T221 -17T212 -30Q201 -24 190 -22T165 -11T137 21Q158 4 171 -1T192 -7T203 -7T206 9T207 49T205
89T201 137Q186 144 169 135T142 117T123 106T104 95L96 104Q103 123 113 135T124 156T126 174L121 173V169ZM54 92Q60 101 62 105T66 109T77 105Q83 94 82 63T85 -1L74 -14L64 -8Q65 29 64 90L54 92ZM65 158T64 162T62 187Q75 179 76 177T80 168T83 154T79 144T74
132T67 114T29 69L20 77Q50 121 55 128T62 141T64 152Z" />
<glyph unicode="&#x4f5e;" glyph-name="null" horiz-adv-x="256" d="M109 162L108 171Q146 189 148 190T168 191Q171 181 170 176T165 168T155 157T130 137Q143 149 149 158T155 170L109 162ZM84 102L82 113Q99 121 129 131T223 155L224 140Q170 125 140 117T104
106T84 102ZM134 95L144 107Q156 107 156 97Q156 87 154 82T147 68T143 53T139 39T138 26Q136 27 151 25T172 20T194 14T217 3L212 -14Q200 -9 187 -5T167 2T148 7T130 8T114 17Q125 32 126 44T132 65T137 80T139 87T137 99L134 95ZM106 45T101 45T81 49L85 60Q94
62 109 63T141 70T168 77T186 84T208 89T226 89T235 79L229 64Q204 72 193 69T170 64T143 58T116 50ZM173 78H197Q195 61 194 54T187 40T176 21T168 5T154 -6T135 -17T124 -22T118 -22T114 -20T109 -14T104 -5T104 12Q107 5 112 -3T121 -12Q137 -3 146 9T163 30T174
45T175 57T173 78ZM42 88Q48 97 50 101T54 105T65 101Q71 90 70 61T72 0L61 -13L51 -7Q53 29 52 86L42 88ZM52 151T51 155T49 180Q62 172 63 170T67 161T70 147T67 138T62 126T55 109T20 66L11 74Q38 116 43 123T50 135T52 146Z" />
<glyph unicode="&#x4f5f;" glyph-name="null" horiz-adv-x="256" d="M151 155T137 144L130 153Q146 162 150 166T166 177Q178 170 188 170Q186 158 180 151T161 120T133 76T111 46T99 31H74Q75 34 73 42L87 56Q87 44 86 44T86 45T98 56T118 84T142 125T166 158Q151
155 137 144ZM119 193L132 202Q142 201 141 191T138 181T135 172T130 154T124 144T120 137T108 121L97 132Q108 150 110 151T115 163T119 182T119 193ZM102 102L100 117Q113 119 123 113T145 98T164 87T179 79T198 70T218 64T249 58Q234 51 228 50T217 49T197 53T169
63T141 80T121 95T102 102ZM134 49L128 57L139 66L158 59L160 35L147 24L144 14Q146 12 154 9T196 -3L189 -23L165 -25L146 -9L159 -5Q157 -7 153 -6T142 -3T130 0T120 7Q136 20 139 22T142 28T143 33T143 50L134 49ZM65 139T65 140T52 148L56 158L69 157Q80 147
81 144T77 130T60 103T31 65Q40 78 49 81T70 84Q71 47 62 -14L49 -10Q55 43 52 71Q48 69 42 63T17 46L7 52Q20 74 29 85T49 109T62 131Z" />
<glyph unicode="&#x4f65;" glyph-name="null" horiz-adv-x="256" d="M94 123L92 132L103 150Q117 150 120 148T133 133T161 108T187 94T231 93V79Q213 77 204 77T185 80T152 95T112 134L94 123ZM109 208L118 203Q123 185 120 180T113 171T104 152T85 107T56 50T39
16L21 20Q28 29 43 55T73 115T92 165T99 188T109 208ZM75 69L73 80Q90 88 102 94T147 107L148 92Q126 83 113 79T95 73T75 69ZM89 17L74 33L71 49L81 52L94 34L117 45L113 23L89 17ZM52 -21L50 -10Q57 -8 67 -4T92 1T133 5T193 9L177 20Q195 22 198 23T208 21T226
11L225 -4Q203 -5 182 -4T140 -6T96 -12T52 -21ZM174 67H187Q185 48 182 43T167 31T145 14T132 2T118 -7Q126 8 135 19T155 41T174 67ZM130 65L139 67Q148 55 137 31L123 26Q126 52 130 65Z" />
<glyph unicode="&#x4f67;" glyph-name="null" horiz-adv-x="256" d="M93 76L90 91Q110 95 135 103T176 115T200 120T228 117V100Q210 102 188 100T142 89T109 79T93 76ZM116 188L121 197H137Q139 180 141 162T145 130T147 111T141 98L128 108Q130 118 130 130T128
158T125 176T116 188ZM140 90L149 88Q154 80 156 73T156 46T152 15T153 -7T158 -23L141 -30L130 -12L136 -9Q139 23 138 46T137 77T140 90ZM156 139T150 137T136 138L135 144Q146 152 153 155T163 159T182 168L186 179Q197 173 198 172T200 156Q191 155 178 152T161
144ZM140 57L163 62Q172 58 182 55T198 48T232 31L228 14L191 27V33Q189 41 177 43T140 57ZM51 90Q57 99 59 103T63 107T74 103Q80 92 78 63T81 1L70 -12L60 -6Q61 30 61 88L51 90ZM64 154T63 158T61 183Q74 175 75 173T79 164T82 150T78 141T72 129T64 112T23
68L14 76Q47 119 52 126T59 138T63 149Z" />
<glyph unicode="&#x4f69;" glyph-name="null" horiz-adv-x="256" d="M114 153H101Q115 171 119 175T134 183T157 191T178 185T184 153T180 106T179 61T188 25T208 7T228 12Q228 23 230 31T226 54L232 59Q242 41 244 35T248 24T249 5Q241 -6 230 -8T201 -8T175
14T166 55T164 104T166 147T167 167T161 173T145 172T114 153ZM79 115Q87 109 92 110Q92 97 94 88T97 72T97 60T94 51T88 37L76 34Q78 54 79 64T80 87T79 115ZM89 67L94 79L104 76Q125 92 128 95T162 99L167 83Q164 66 158 57T148 46T133 45V52Q138 60 141 63T148
71T153 85L147 88Q142 86 133 83T114 67L112 58L105 49Q96 54 89 67ZM114 103L119 111H135Q137 95 137 67T136 16T136 -12T130 -24L118 -15Q119 -5 120 16T123 63T123 91T114 103ZM136 147H149Q147 129 144 124T133 114T120 101T111 91T97 82Q105 97 110 106T122
124T136 147ZM59 154T59 155T47 163L51 173L63 172Q74 162 75 159T71 145T55 118T26 80Q35 93 44 96T64 99Q65 62 57 1L44 5Q49 58 46 86Q43 84 37 78T12 61L2 67Q15 89 24 100T44 124T56 146Z" />
<glyph unicode="&#x4f6f;" glyph-name="null" horiz-adv-x="256" d="M142 128L147 136H163Q165 120 167 78T170 -1T170 -41T164 -53L152 -44Q153 -34 154 -1T154 73T151 116T142 128ZM173 198T177 199T188 194Q185 177 181 174T164 158T131 126L127 124Q139 143
149 155T163 177T169 192ZM113 171L107 185L119 191Q127 185 134 182T142 178T158 179L161 171Q152 162 147 161T136 162T113 171ZM92 23L90 36Q92 36 105 41T126 50T156 58T216 72L179 95Q204 88 207 87T220 84T235 83L233 65Q214 55 197 53T165 45T131 33T92
23ZM123 119L120 136Q158 141 164 144T188 143Q190 122 188 117T179 110T160 99Q180 100 191 94V83Q182 81 167 81T133 78L126 86Q137 97 149 103T166 114T175 128L169 131L123 119ZM76 156T76 157T62 165L66 175L80 174Q91 164 92 161T88 146T70 119T39 80Q49
93 59 96T81 99Q82 62 72 0L59 4Q66 58 63 86Q57 84 51 78T25 61L15 67Q28 89 38 100T59 125T73 147Z" />
<glyph unicode="&#x4f74;" glyph-name="null" horiz-adv-x="256" d="M86 26L82 30L91 43Q116 53 141 62T188 73T225 81L229 67Q225 63 218 62T194 60T153 50T115 36T86 26ZM99 155L95 164Q111 167 116 168T135 172T159 180T177 190T203 193V178Q184 172 168 167T139
159T122 155T99 155ZM135 110V121Q143 126 161 138Q172 134 176 127Q163 110 154 102L171 95L169 90Q149 75 136 65Q147 79 144 86Q140 86 131 91Q140 103 144 108T154 118Q150 119 148 117T135 110ZM117 138Q122 147 124 150T128 154T138 151Q144 140 141 121T140
78L130 66L121 71Q123 98 126 137L117 138ZM166 172L179 182L187 176Q183 167 183 146T183 99T180 49T183 -2T184 -41L170 -37Q165 -27 149 8L168 -6Q162 16 163 45T166 97T166 172ZM47 92Q53 101 55 105T59 109T70 105Q76 94 74 64T76 0L65 -13L55 -7Q57 30 57
90L47 92ZM59 157T58 161T56 186Q69 178 70 176T74 167T77 153T73 143T68 131T60 113T21 69L12 77Q43 120 48 127T55 140T58 151Z" />
<glyph unicode="&#x4f76;" glyph-name="null" horiz-adv-x="256" d="M115 39L133 42L129 35Q144 40 150 43T171 49T194 52T219 49Q218 32 215 27T203 16T177 4Q191 7 208 7L219 -4L208 -13Q190 -8 181 -11T163 -16T139 -12L137 -3Q154 1 159 4T171 12T188 22T201
32T204 40Q192 39 177 36T155 28T144 23T138 19T139 4L130 -7L117 4Q111 28 115 39ZM104 49L99 54L110 70Q125 75 145 82T181 90T214 96L219 81Q214 76 207 75T188 73T158 68T130 58T104 49ZM155 196L164 194Q169 186 171 179T171 150T168 115T169 91T174 75L157
68L146 86L152 89Q155 125 153 150T152 183T155 196ZM87 101L82 112Q107 115 113 116T138 121T173 131T197 143T227 146V129Q205 122 184 116T143 106T119 101T87 101ZM63 155T65 158T76 168L88 160Q78 151 71 126T48 74T27 45T3 28Q18 53 32 78T54 129ZM33 54L25
64Q29 72 37 77T53 83T74 92Q82 84 82 83T82 73T82 51T86 32T89 23T86 9L81 8V3L72 0L63 9Q64 14 67 17T70 29T68 49T63 70Q65 76 61 75T49 67T33 54Z" />
<glyph unicode="&#x4f7c;" glyph-name="null" horiz-adv-x="256" d="M122 175L126 189L138 198L152 199L155 182L143 170L136 182L122 175ZM78 105L76 117Q94 125 113 137T178 165L180 149Q145 132 125 122T98 109T78 105ZM98 47V62Q102 73 104 77T119 115L134
108Q136 97 130 91T122 81T120 71T115 60L122 51Q113 45 98 47ZM147 100V113Q162 124 166 124T186 122L188 104Q171 109 169 107T147 100ZM165 86T169 94L182 88Q187 73 183 68T166 48T139 16T115 -12T99 -23T78 -24Q92 -11 102 -1T130 27T153 59T162 79ZM105 44L103
50L105 66Q119 68 125 68T137 59T147 41T167 26T185 16T199 11T216 12T228 16T252 18Q248 12 246 10T235 5T220 -1T211 -6T195 -8T171 0T145 20T129 39T119 52L105 44ZM66 151T66 152T53 160L57 170L70 169Q81 159 82 156T78 141T61 114T32 75Q41 88 50 91T71 94Q72
57 63 -5L50 -1Q56 53 53 81Q49 79 43 73T18 56L8 62Q21 84 30 95T50 120T63 142Z" />
<glyph unicode="&#x4f7e;" glyph-name="null" horiz-adv-x="256" d="M105 94L111 102H128Q130 85 130 71T129 45T127 29T121 16L107 26Q109 36 111 45T114 66T114 80T105 94ZM146 98L140 108Q150 123 161 126T176 129T190 115Q186 94 184 85T185 59T188 31T190
13T201 -15L191 -27Q166 -17 162 -10T152 3T142 9T134 33Q145 14 148 15T160 9T178 6Q176 18 175 36T173 74T171 107L165 113Q157 106 146 98ZM125 69L122 86Q134 92 140 94T163 93Q165 73 163 69T160 65T154 62Q156 67 167 61V50Q158 48 152 46T128 42L120 49Q131
60 139 64T147 68T150 79L145 82L125 69ZM134 199L144 194Q149 175 146 170T138 160T132 150T120 126T99 91T85 68L66 72Q74 81 85 96T107 133T119 164T124 178T134 199ZM142 147L152 170Q173 170 176 170T189 161T207 145T239 132L236 117L197 111L202 122Q202
134 191 139T175 160L142 147ZM65 151T65 152T52 160L56 170L69 169Q80 159 81 156T77 141T60 114T31 75Q40 88 49 91T70 94Q71 57 62 -5L49 -1Q55 53 52 81Q48 79 42 73T17 56L7 62Q20 84 29 95T49 120T62 142Z" />
<glyph unicode="&#x4f7f;" glyph-name="null" horiz-adv-x="256" d="M122 190L130 197H136Q144 188 146 187T148 176T152 154T158 120T157 84T148 48T126 7T106 -17T96 -23T78 -19L76 -9L87 -15Q102 -2 103 -1T118 20T136 57T142 88T141 118T139 138T132 157Q125
164 125 166T122 190ZM86 104L93 113L103 108Q126 118 130 120T146 126T166 134T198 143L206 134Q200 120 197 115T180 105Q192 106 195 106T213 105L214 92L203 88Q192 93 184 89T156 76T132 67T118 67L116 75Q127 81 143 90T169 107T183 119T192 130Q177 124
168 123T148 116T129 105T118 96T112 80L106 71L94 76Q91 88 86 104ZM88 139L92 152Q104 149 116 150T139 157T161 171T189 176L187 159Q173 155 165 152T145 145T119 136T88 139ZM91 45L103 56Q114 58 118 55T139 40T171 21T202 12T243 8V-1Q218 -6 200 -7T167
1T135 23T91 45ZM66 154T66 155T53 163L57 173L70 172Q81 162 82 159T78 144T61 117T32 78Q41 91 50 94T71 97Q72 60 63 -2L50 2Q56 56 53 84Q49 82 43 76T18 59L8 65Q21 87 30 98T50 123T63 145Z" />
<glyph unicode="&#x4f88;" glyph-name="null" horiz-adv-x="256" d="M157 122L155 133Q159 139 184 145Q186 135 187 131T182 118T158 84Q179 91 197 100T220 111T237 112Q241 104 238 97T228 84T214 72T198 52T179 24T158 -4T130 -30L117 -32L98 -24L96 -17L115
-21Q126 -18 128 -16T141 1T164 30T187 60T208 89Q184 82 174 76T147 59L135 63Q143 82 151 95T173 128Q162 124 157 122ZM133 194T137 209Q150 201 150 197T146 184T132 153L151 160L164 154Q167 129 159 120T143 101T134 88T121 85L110 92V100L119 96Q121 97
123 99T129 107T140 123T147 141Q136 136 123 128L110 136Q115 149 120 160T129 182ZM129 45T129 46T132 52T136 58T141 58T158 55T178 51T185 47T183 38T178 30T166 32T150 39T136 44ZM106 101V114Q124 129 130 133T152 135L154 118Q137 122 133 116T106 101ZM72
157T74 160T85 170L97 162Q87 153 78 130T52 82T30 55T6 38Q21 63 36 86T62 133ZM37 63L29 73Q33 81 43 85T60 91T83 100Q91 92 91 91T91 81T91 60T95 42T98 33T95 20L90 19V14L81 11L72 20Q73 25 76 28T79 39T76 58T72 78Q72 84 68 83T54 76T37 63Z" />
<glyph unicode="&#x4f89;" glyph-name="null" horiz-adv-x="256" d="M121 57L111 66Q130 77 143 86T174 93Q174 79 162 69T149 55Q164 64 172 66T186 68T203 64L212 57Q209 35 201 19T185 -6T174 -31Q155 -37 146 -29T129 -14L125 -7Q140 -14 146 -14T166 -12Q171
-6 177 6T187 30T199 54Q196 57 193 58T186 59T174 57T155 48T140 37T116 34L112 40Q126 49 127 53T134 61T143 72Q137 60 121 57ZM114 90L111 99Q118 105 123 108T135 116T151 122L160 117L164 106Q152 90 148 82T121 63Q143 94 145 108Q127 92 114 90ZM100 148L96
157Q108 161 113 162T128 167T143 178T155 189T180 192V177Q162 171 151 165T132 154T119 149T100 148ZM140 198L151 200Q158 191 157 182T150 165T142 149T129 121T108 88T96 70T85 55L75 65Q85 82 95 95T117 129T132 166T140 198ZM133 135L132 148Q139 152 148
147T163 137T176 131T187 124T199 117T218 114T248 108Q235 103 230 102T217 101T199 103T179 110T160 122T146 132T133 135ZM68 150T68 151T54 159L58 169L72 168Q83 158 84 155T80 140T63 113T33 74Q42 87 52 90T73 93Q74 56 64 -6L51 -2Q58 52 55 80Q50 78 44
72T19 55L9 61Q22 83 31 94T52 119T65 141Z" />
<glyph unicode="&#x4f97;" glyph-name="null" horiz-adv-x="256" d="M135 141V150Q151 168 159 177T176 191T197 191T211 185T212 168T212 122T215 49T225 -14L213 -30Q193 -23 188 -11T177 16T164 56Q179 34 185 25T195 10T200 5T201 32T198 97T196 152T195 171T185
174T166 166T135 141ZM92 136Q101 128 107 130Q107 115 109 103T113 85T114 69T111 56T104 41L91 37Q93 60 93 74T93 103T92 136ZM122 106L118 115Q125 119 130 119T141 122T148 129T157 138T182 141V126Q164 121 157 117T145 111T136 107T122 106ZM122 73V86H135L137
81Q145 92 161 105L174 106L183 102V83L171 75L183 73L189 58Q166 50 150 49V60Q150 69 158 77T168 93Q165 92 162 91T157 90T145 79L147 73Q141 64 139 54L130 52Q124 66 122 73ZM46 98Q52 107 54 111T58 115T69 111Q75 100 74 69T77 5L66 -8L56 -2Q57 35 56 96L46
98ZM57 164T56 168T54 193Q67 185 68 183T72 174T75 160T71 150T66 138T59 120T22 75L13 83Q42 127 47 134T54 147T56 158Z" />
<glyph unicode="&#x4fa0;" glyph-name="null" horiz-adv-x="256" d="M100 134L96 143Q108 147 113 148T128 150T143 155T156 163T182 166V151Q163 145 152 142T132 138T119 135T100 134ZM130 36L142 47Q153 49 157 46T173 31T196 14T218 6T249 2V-7Q230 -12 216
-13T192 -7T169 15T130 36ZM173 125T177 126T190 121Q192 112 188 108T178 100T150 76L146 74Q159 95 162 98T168 111T172 123ZM77 36L72 45Q100 55 125 64T193 77L180 87L185 92L218 85L216 68Q201 64 181 62T134 52T77 36ZM131 179L127 188Q133 197 134 197T149
191Q159 178 161 169T163 145T155 110T142 70T124 25T92 -24L85 -15Q99 12 110 34T127 75T139 111T145 138T145 154T142 175L131 179ZM111 92L106 105L117 110Q124 105 127 105T132 103T146 105L149 97Q141 89 136 88T126 89T111 92ZM64 154T64 155T51 163L55 173L68
172Q79 162 80 159T76 144T59 117T30 78Q39 91 48 94T69 97Q70 60 61 -2L48 2Q54 56 51 84Q47 82 41 76T16 59L6 65Q19 87 28 98T48 123T61 145Z" />
<glyph unicode="&#x4fa6;" glyph-name="null" horiz-adv-x="256" d="M87 106L93 116H112Q114 97 115 81T118 53T118 37T111 23L96 34Q98 45 99 54T100 76T97 92T87 106ZM135 87L118 94Q134 104 139 108T158 117T177 125T192 123T202 102T203 63T196 27L179 34Q157
50 156 56T156 62T164 60T175 53T187 47Q187 76 184 110Q182 110 180 109T163 104T147 96T135 87ZM150 84L160 86Q167 67 163 59T158 50T158 44T148 26T129 5T118 -9T102 -14T85 -18T74 -19Q81 -14 94 -5T116 14T133 33T141 52T150 84ZM148 18L159 25Q167 23 178
18T205 8T241 -5L233 -22Q217 -21 203 -11L206 -5Q184 -2 171 3T148 18ZM144 145L140 154Q148 160 153 164T168 169T187 172L196 166L200 155Q193 152 189 144T163 131Q184 156 181 157Q157 147 144 145ZM112 180L131 196L149 193Q151 153 152 144T150 128T143
111L129 117Q132 130 133 139T135 152T135 180H112ZM71 158T71 159T58 167L62 177L75 176Q86 166 87 163T83 148T66 119T37 78Q46 91 55 94T76 97Q77 59 68 -5L55 -1Q61 55 58 84Q54 82 48 76T23 59L13 65Q26 87 35 99T55 125T68 149Z" />
<glyph unicode="&#x4fa7;" glyph-name="null" horiz-adv-x="256" d="M124 138L111 142L115 153L134 165H145Q150 130 150 106T148 36L145 34L127 46L117 76L119 82L127 66L132 62Q132 82 133 103T132 146L124 138ZM72 146L77 154H94Q95 137 95 118T96 82T95 62T89
49L75 59Q77 69 78 82T81 113T80 132T72 146ZM103 101L115 106Q120 96 122 92T122 76T116 57T112 44T101 29T87 11L74 16Q79 24 88 37T100 58T104 77T103 101ZM119 29V42Q148 34 181 13L179 2L172 -3Q139 19 119 29ZM217 201L222 199Q226 181 227 176T223 163T216
122T216 58T224 15T238 -14H230L224 -28Q203 -16 195 -4T180 13L186 15Q193 11 211 1Q209 13 207 21T203 58T203 123T206 173T207 192T217 201ZM159 110L162 117Q175 124 177 125T189 124Q192 112 192 110T192 101T193 92T195 83T188 71L177 74Q177 85 177 92T175
110H159ZM54 157T54 158T43 166L47 176L58 175Q69 165 70 162T66 147T51 120T27 81Q33 94 41 97T60 100Q61 63 53 1L40 5Q45 59 42 87Q41 85 37 79T13 62L3 68Q16 90 24 101T40 126T51 148Z" />
<glyph unicode="&#x4fa9;" glyph-name="null" horiz-adv-x="256" d="M134 63Q127 75 132 84T139 92T149 98Q161 96 163 95T173 87Q166 78 164 72T155 60T146 51Q144 54 149 54T164 51V32Q156 40 155 35T120 13L111 20Q132 46 137 52T147 64T154 76T151 79Q148
78 146 77T142 73T134 63ZM156 51T167 57Q167 47 167 40T167 29T164 22T154 17L152 5Q158 15 159 16T160 27L179 33L209 11L203 -12L175 10Q169 2 161 -6T143 -16L130 -10Q135 13 142 19T151 27T155 40ZM153 198L163 192Q168 174 165 169T157 159T148 143T131 105T104
55T87 25L69 29Q76 38 90 61T118 113T136 157T143 177T153 198ZM141 134L139 149Q143 150 153 144T167 130T178 120T190 112T200 101T216 95T248 89Q233 82 227 81T215 80T199 85T179 95T163 113T151 127T141 134ZM71 154T71 155T58 163L62 173L75 172Q86 162 87
159T83 143T66 114T37 73Q46 86 55 89T76 92Q77 54 68 -12L55 -8Q61 50 58 79Q54 77 48 71T23 54L13 60Q26 82 35 94T55 121T68 144Z" />
<glyph unicode="&#x4fae;" glyph-name="null" horiz-adv-x="256" d="M137 108L152 106L145 107Q156 108 163 112T182 116T205 115Q211 101 211 96T210 82T205 63T197 39L214 35V18Q199 16 197 14T191 9T165 -26Q146 -24 140 -20T129 -9T115 15Q128 2 133 -1T143
-8T159 -9Q167 3 170 7T171 20Q132 10 123 11T106 13L98 24Q105 43 107 48T118 76T137 108ZM134 82Q122 48 120 43T115 30Q132 25 150 28T173 33T176 35L168 49L182 52Q185 50 189 59T194 74T195 88T196 100Q190 102 181 102T165 97T155 88V69L149 65L134 82ZM78
38L75 49Q96 54 101 54T118 58T137 65T153 67T178 67T206 69L213 81Q233 74 243 75Q238 66 238 54Q229 55 218 55T201 56T182 56T153 53T125 46T111 37T101 35T78 38ZM154 69V81Q165 79 175 74L173 63L166 58Q157 66 154 69ZM140 39L145 46L166 48Q166 35 163 32T155
28T145 20Q148 27 149 38L140 39ZM120 184V191L139 200L145 191Q143 180 136 166T123 141T112 123T103 102T96 85T90 86T84 91T92 112T108 142T126 180L120 184ZM127 123L122 140Q146 152 155 156T187 154Q179 141 177 136T165 123T150 106T132 82H123Q133 105
140 113T153 130T160 140T156 142T150 140T127 123ZM69 154T69 155T56 163L60 173L73 172Q84 162 85 159T81 144T64 117T35 78Q44 91 53 94T74 97Q75 60 66 -2L53 2Q59 56 56 84Q52 82 46 76T21 59L11 65Q24 87 33 98T53 123T66 145Z" />
<glyph unicode="&#x4fbf;" glyph-name="null" horiz-adv-x="256" d="M86 133L96 139L105 128Q130 140 151 143T177 149T201 144Q213 133 212 130T206 113T193 88T183 75T174 76T150 69T109 62L104 70Q124 78 161 91V99Q173 95 176 98T182 108T194 130Q188 136
183 136T160 131T130 123T115 116T112 107T110 79H101Q96 98 86 133ZM120 102T121 104T135 112T151 118T161 115T169 111T148 99T125 90T122 97ZM91 37L96 54Q121 36 144 24T189 8T235 0V-15Q211 -11 195 -11T164 -6T129 11T91 37ZM90 148L88 159Q113 167 119 169T141
179T181 195L189 191Q181 180 183 172L162 165L157 171Q138 161 130 156T114 148T90 148ZM139 157L148 162Q156 157 156 155T158 143T157 127T147 95T126 43T107 2T95 -14T79 -18Q89 -8 92 5T101 25T117 54T131 99T137 130T139 157ZM65 151T65 152T52 160L56 170L69
169Q80 159 81 156T77 141T60 114T31 75Q40 88 49 91T70 94Q71 57 62 -5L49 -1Q55 53 52 81Q48 79 42 73T17 56L7 62Q20 84 29 95T49 120T62 142Z" />
<glyph unicode="&#x4fc3;" glyph-name="null" horiz-adv-x="256" d="M139 111L148 116H153Q162 92 164 85T162 65T159 41T157 15L142 22Q145 34 145 42T144 68T139 111ZM138 61L142 70Q157 77 161 80T175 90H192Q193 79 180 71T138 61ZM98 60L113 73L126 69Q130
58 130 54T124 41T112 28T101 12T89 -4T68 -11Q77 2 85 13T100 36T113 58L98 60ZM102 16L96 31Q116 33 118 33T125 30T137 24T146 19T151 15T171 7T201 1T223 2T242 1L246 -3Q237 -5 232 -7T216 -10T193 -13T167 -11T143 0T129 13T122 18T102 16ZM82 138T88 151L102
145Q128 174 136 179T177 185L182 169L162 145L178 147L176 133Q146 111 123 100L116 109Q135 129 146 140L161 167Q147 161 142 159T125 145T112 132T114 110L102 105Q86 133 84 135ZM61 151T61 152T48 160L52 170L65 169Q76 159 77 156T73 141T56 114T27 75Q36
88 45 91T66 94Q67 57 58 -5L45 -1Q51 53 48 81Q44 79 38 73T13 56L3 62Q16 84 25 95T45 120T58 142Z" />
<glyph unicode="&#x4fc4;" glyph-name="null" horiz-adv-x="256" d="M151 151L156 156L164 154Q168 140 169 125T181 82T204 31T224 0Q221 10 221 32T221 61T222 62T228 37T238 7T242 -24L234 -31Q225 -22 216 -11T193 24T168 77T156 122T151 151ZM86 110L80 117Q88
133 97 142T115 162T124 176T122 191L132 195H140L147 190Q143 178 141 172T129 155T115 139T109 128T100 116T86 110ZM117 129L131 142Q139 127 140 121T142 109T139 98T140 54T144 9T140 0T133 -4T119 -2T106 10T98 26L95 36Q105 28 110 22T118 14T124 11T129
12T127 55T122 102T119 113T117 129ZM183 104L189 103Q193 97 193 93T188 75T178 57T147 5L137 4L133 11Q166 66 171 81T183 104ZM106 32Q100 32 97 33T93 38T94 45T107 59T124 83T133 99T138 100T143 93T144 87T135 74T106 32ZM68 55L64 64Q84 68 89 69T110 79T139
101T159 119T184 122V107Q166 101 148 88T114 66T95 56T68 55ZM168 165L171 176Q184 176 190 175T196 168T198 162T211 156L204 142Q196 147 187 152T168 165ZM64 155T64 156T51 164L55 174L68 173Q79 163 80 160T76 145T59 118T30 79Q39 92 48 95T69 98Q70 61
61 -1L48 3Q54 57 51 85Q47 83 41 77T16 60L6 66Q19 88 28 99T48 124T61 146Z" />
<glyph unicode="&#x4fce;" glyph-name="null" horiz-adv-x="256" d="M46 152L57 164L74 162L82 159Q80 150 79 143T74 130T66 116T54 98T42 73T34 56T27 54L23 58Q37 98 43 106T52 123T62 148L46 152ZM48 102T40 102Q50 106 56 109T62 112T69 112T77 112T86 105T100
95L96 82Q72 78 69 80Q74 83 77 90Q71 101 68 102T57 103ZM43 72L53 83L70 82L77 78Q75 70 74 64T70 53T61 41T50 25T38 4T30 -11T23 -13L19 -9Q34 26 39 33T48 47T58 68L43 72ZM48 26T40 26Q50 30 54 33T59 36T66 36T75 36T83 31T95 22L92 9Q69 7 65 9Q71 12 72
17Q68 24 65 24T55 25ZM152 156L146 166Q156 181 167 185T182 188T196 174Q191 148 189 135T189 104T190 72T190 47T201 16L191 4Q166 14 162 23T149 48T135 72T125 107Q136 88 141 79T157 54T178 37Q177 55 177 77T177 124T177 166L171 172Q163 164 152 156ZM122
75L120 112Q133 115 138 119T151 123T161 120T172 111Q167 97 166 94T159 85T145 72L157 67L160 52Q130 49 116 55Q126 68 134 75T148 89T155 97T155 107L139 102L122 75ZM108 131L113 139H130Q131 122 131 98T132 55T132 32T126 19L112 29Q114 39 115 55T117 93T116
117T108 131ZM93 -20L78 -12L80 1Q96 6 118 13T151 22T174 26T194 28T207 28T226 29T248 27L236 10Q206 13 200 14T184 13T160 8T124 -2T93 -20Z" />
<glyph unicode="&#x4fcf;" glyph-name="null" horiz-adv-x="256" d="M146 102L137 109Q164 126 175 135Q188 130 201 126Q198 101 199 68T206 10T217 -27L208 -38L160 -21Q129 -4 126 22Q144 6 167 -7L198 -18Q185 29 183 62T181 121Q177 117 146 102ZM112 123T113
125T117 131T122 135T127 133T130 130T130 122T129 108T127 100T123 92T122 79T120 64T116 50T118 37T120 27T113 19L100 25Q102 43 104 54T107 78T108 95T110 111ZM120 74L117 89Q139 94 145 96T167 95Q168 77 167 73T162 68T152 65Q162 69 172 64V54Q163 52 154
50T128 46L121 53Q131 63 139 67T149 72T155 82L150 85L120 74ZM153 194T153 195T157 196T162 196T167 187T172 174T166 117L153 114Q152 171 152 182ZM111 155L118 160L136 146Q154 160 175 172T197 185T213 189Q215 176 213 171T196 153T146 108H141Q172 146
192 170L191 171Q165 154 162 151T144 125L122 140L111 155ZM79 154T79 155T66 163L70 173L83 172Q94 162 95 159T91 144T74 117T45 78Q54 91 63 94T84 97Q85 60 76 -2L63 2Q69 56 66 84Q62 82 56 76T31 59L21 65Q34 87 43 98T63 123T76 145Z" />
<glyph unicode="&#x4fd0;" glyph-name="null" horiz-adv-x="256" d="M217 199L222 197Q226 179 227 174T223 161T216 121T216 59T224 16T238 -12H230L224 -26Q203 -14 196 -3T182 14L188 16Q195 12 211 3Q209 15 207 23T203 58T203 122T206 171T207 190T217 199ZM161
109L164 116Q177 123 179 124T190 123Q194 111 194 109T193 100T194 91T196 83T188 71L178 74Q178 85 178 92T177 109H161ZM103 176Q114 185 117 185T136 183L141 170Q135 159 131 155T125 148T105 130Q120 154 121 155T124 161T123 170Q112 170 103 176ZM92 77T86
75T72 75L70 82Q82 91 89 94T103 99T137 118L140 130Q152 123 154 122T156 106Q146 104 128 97T101 84ZM119 142L131 148Q136 138 137 133T138 122T138 108T138 85T136 62T136 36T135 7T138 -8T130 -23L123 -17Q116 -1 116 12T117 35Q121 20 123 24Q125 54 123
76T120 112T119 142ZM108 78T108 78T116 85Q123 79 123 77T120 63T113 48T100 34T77 9L69 19Q81 33 88 45T101 64T107 74ZM118 66T118 67T120 72T124 77T128 77T143 73T160 66T166 61T164 53T160 47T150 51T136 59T123 65ZM59 148T59 149T48 157L52 167L63 166Q74
156 75 153T71 138T56 109T32 69Q38 82 46 85T65 88Q66 51 58 -13L45 -9Q50 47 47 75Q46 73 42 67T18 50L8 56Q21 78 29 90T45 116T56 139Z" />
<glyph unicode="&#x4fd1;" glyph-name="null" horiz-adv-x="256" d="M103 104T105 109T110 115T115 116T119 112T120 110T120 82T117 47T117 -5L110 -11L102 -8Q102 51 102 77ZM143 94Q147 102 148 105T152 108T161 105Q166 96 166 59T173 -16L164 -27L156 -23Q154
19 150 93L143 94ZM113 10L106 25Q149 49 193 57L195 48Q155 30 113 10ZM142 58Q131 58 130 59T124 68L135 78L181 88H187Q185 80 190 74L148 66L142 58ZM128 93T125 93T113 101L111 110Q128 102 154 113T195 131T215 138T228 125Q222 117 218 106T216 68T223 23T227
1T225 -6T216 -22Q201 -10 194 -3T180 13T161 42Q179 23 185 19T207 9Q206 42 204 68T201 117Q189 114 159 104ZM103 157L99 166Q143 186 165 192T195 200L202 194Q198 187 197 182T188 172T160 155Q168 148 177 141Q167 124 154 109L145 116Q147 126 148 129Q138
127 133 124L125 131Q130 136 138 143T158 162T174 178T177 183T163 179T103 157ZM74 152T74 153T60 161L64 171L78 170Q89 160 90 157T86 142T69 114T38 74Q48 87 58 90T79 93Q80 56 70 -7L57 -3Q64 52 61 80Q56 78 50 72T24 55L14 61Q27 83 37 95T58 120T71 143Z"
/>
<glyph unicode="&#x4fd7;" glyph-name="null" horiz-adv-x="256" d="M122 193L128 191Q133 185 133 181T130 172T123 162T106 134L95 132L90 140Q110 172 113 178T122 193ZM150 172T141 172Q152 176 155 179T160 182T168 182T177 182T184 178T197 170L194 155Q170
155 166 157Q172 160 172 164Q170 169 167 170T157 171ZM135 161L145 163Q152 144 148 136T141 121T138 109T127 85T108 53T97 34T85 25T71 17T60 16Q67 21 76 34T95 62T112 92T124 123T135 161ZM132 108L131 121Q140 123 149 117T165 104T179 95T191 87T204 78T225
74T257 68Q243 63 238 62T224 61T204 64T182 73T162 89T147 102T132 108ZM106 27L112 39L122 41L127 33Q147 49 151 51T176 59L186 58Q188 41 186 38T167 13Q178 13 196 5L188 2L193 -7Q181 -7 172 -11T130 -22Q125 -15 118 -11Q116 1 116 9T113 19T106 27ZM138
24T138 19T136 7T130 -8L132 -10Q152 11 162 24T173 46Q160 46 149 35ZM64 155T64 156T51 164L55 174L68 173Q79 163 80 160T76 145T59 116T30 76Q39 89 48 92T69 95Q70 58 61 -6L48 -2Q54 54 51 82Q47 80 41 74T16 57L6 63Q19 85 28 97T48 123T61 146Z" />
<glyph unicode="&#x4fda;" glyph-name="null" horiz-adv-x="256" d="M125 162T126 164T130 170T135 174T140 172T143 169T146 154T150 134T150 121T148 108T148 88T149 56T148 31T150 18T152 8T148 -7L135 -1Q134 24 134 46T133 87T131 116T127 144ZM111 -19T106
-19T86 -15L90 -4Q99 -2 113 -2T145 3T172 9T190 15T211 19T229 19T238 9L232 -6Q207 2 196 0T174 -4T147 -9T121 -15ZM87 142L92 148Q97 129 101 116V126L92 139L98 152Q100 157 115 167T151 182T181 188T195 188T206 176Q207 148 195 130T163 88Q153 95 146 93T126
89L116 95Q132 108 142 109T160 106Q168 121 179 140T191 171Q187 174 179 174T155 168T126 155T112 144T110 139T109 133T111 125T114 113T117 102T111 84L102 87Q86 114 87 121T87 142ZM129 113Q118 113 117 114T110 123L122 134L155 146H161Q159 138 164 132L136
121L129 113ZM124 47L120 55Q127 60 132 63T141 67T153 69L162 64L165 54Q155 40 151 33T130 17Q147 43 148 56Q136 48 124 47ZM71 148T71 149T58 157L62 167L75 166Q86 156 87 153T83 138T66 110T37 70Q46 83 55 86T76 89Q77 52 68 -11L55 -7Q61 48 58 76Q54 74
48 68T23 51L13 57Q26 79 35 91T55 116T68 139Z" />
<glyph unicode="&#x4fdc;" glyph-name="null" horiz-adv-x="256" d="M117 115V122Q124 123 130 127T151 144L148 160Q166 150 168 144Q160 132 152 127T135 115T117 115ZM102 148Q110 148 115 147Q115 137 116 131T119 120T121 112T121 107T117 98L109 95Q104
110 104 116T103 131T102 148ZM132 95L127 104Q139 114 156 116L158 107Q151 97 132 95ZM141 195T150 201L157 198Q163 185 161 166T157 139T154 128T158 112L151 106L141 114Q142 121 143 136T143 173ZM125 141T117 135L104 139L110 150Q117 154 130 161T159 177T183
187L194 185Q196 178 196 169T195 149T181 121L158 113Q173 136 178 153T181 171T167 166T140 151ZM97 59T92 59T74 63L78 72Q85 74 101 77T136 86T164 95T185 105T208 112T225 112T234 103L228 89Q205 97 191 93T166 85T137 76T108 65ZM138 82L145 88L157 84Q157
62 146 50Q167 61 183 64T217 57Q219 40 218 36T207 13T176 -22L157 -31L143 -15Q138 2 138 17L144 20Q149 8 152 -1L157 -13L171 -6Q184 9 194 25T205 44T202 54Q193 53 179 49T153 37T130 23L119 29Q125 45 133 56T138 82ZM67 145T67 146T55 154L59 164L71 163Q82
153 83 150T79 135T63 108T35 69Q43 82 52 85T72 88Q73 51 65 -11L52 -7Q57 47 54 75Q51 73 46 67T21 50L11 56Q24 78 33 89T52 114T64 136Z" />
<glyph unicode="&#x4fdd;" glyph-name="null" horiz-adv-x="256" d="M81 52L77 56L86 69Q107 79 129 88T169 101T203 108L207 95Q203 91 197 90T175 87T140 77T107 62T81 52ZM139 109Q149 118 151 118T162 117Q167 100 165 90T163 57T162 13T176 -18L160 -33Q149
-27 150 -27T150 -25T135 -3Q144 -5 149 -5Q145 34 146 54T149 85T147 100T139 109ZM140 73L146 71Q151 65 151 61T143 50T131 38T89 4L78 2L73 10Q118 48 126 56T140 73ZM134 57L145 66Q154 67 157 65T172 51T195 34T218 26T249 23V16Q230 11 217 10T192 17T169
37T134 57ZM101 178L112 187L126 180L120 174Q137 183 150 187T168 190T188 185Q196 172 191 164T166 143L186 140L194 132L188 123Q172 126 165 126T126 117L124 128Q155 143 165 153T178 167T179 176L166 178Q142 170 140 167T132 158T126 146L119 133H109Q103
155 101 178ZM66 151T66 152T53 160L57 170L70 169Q81 159 82 156T78 141T61 114T32 75Q41 88 50 91T71 94Q72 57 63 -5L50 -1Q56 53 53 81Q49 79 43 73T18 56L8 62Q21 84 30 95T50 120T63 142Z" />
<glyph unicode="&#x4fde;" glyph-name="null" horiz-adv-x="256" d="M91 139L88 148L100 166Q114 166 117 164T132 154T163 141T192 135T239 137V123Q220 121 211 121T190 121T154 127T109 150L91 139ZM107 206L117 200Q122 182 119 177T111 167T101 157T79 130T46
92T26 67L8 71Q15 80 32 97T67 138T89 170T97 185T107 206ZM86 70L78 77Q96 91 103 100Q115 94 127 91Q123 71 121 45T122 2T129 -28L121 -39L90 -26Q68 -11 64 13Q81 -2 96 -12L112 -20Q106 14 106 39T108 86Q108 82 86 70ZM61 87T62 89T65 95T70 98T74 97T77
94T78 88T78 76T77 70T72 65T70 54T67 45T63 34T66 22T68 13T61 6L49 12Q51 27 53 35T57 53T58 66T59 78ZM68 48L65 63Q74 66 79 68T99 68Q101 50 100 46T96 44T90 43Q91 48 101 43V33Q93 31 89 29T68 26L61 32Q71 42 77 45T84 48T88 55L83 58L68 48ZM153 81H160Q166
71 165 68T162 60T164 48L155 40L145 46Q145 56 145 61T146 69T153 81ZM177 115L183 117L194 98Q192 91 189 83T191 29T198 -25L184 -34Q173 -29 161 -23T143 -10T133 11Q140 5 151 -2T173 -8Q184 6 178 40T172 86T175 101T177 115ZM93 102Q84 102 83 103T77 111L87
120L140 128H145Q144 121 148 115L99 109L93 102Z" />
<glyph unicode="&#x4fe1;" glyph-name="null" horiz-adv-x="256" d="M126 51L135 53L126 36Q141 47 154 51T181 58T202 61T220 55Q224 36 215 29T173 8L197 2Q199 9 204 12T219 14T243 6L235 1L239 -7Q226 -5 214 -6T188 -8T158 -14T137 -19T119 -19L117 -10Q130
-4 143 1T173 16T194 29T207 40L203 49Q190 44 178 44T158 39T143 31T130 19T121 0H106Q102 15 103 26T126 51ZM99 110L94 114L98 125Q118 134 124 136T143 142T162 146T181 140Q179 127 175 125T161 118T137 103T117 86Q117 94 129 105T150 121T160 128T162 133Q131
127 119 121T99 110ZM97 70L95 80Q102 87 116 93T152 109L162 106L164 99Q154 85 151 82T142 79T135 79T122 70Q137 77 162 75L164 65Q149 58 140 51T125 41Q127 50 130 58Q120 48 99 43L94 52Q107 62 116 70T141 92Q116 79 111 76T97 70ZM134 190L130 193L141
207L148 208Q154 200 159 196T166 183T168 170T157 158T141 141Q143 150 148 154T155 166T152 179T142 193L134 190ZM61 150L55 156Q68 171 69 174T81 175L91 165Q89 154 85 147T78 132T67 113T46 87T31 70T22 59L15 65Q22 78 33 93T54 121T67 143T72 156L61 150ZM16
62Q25 77 27 80T43 90T59 98T70 96Q76 90 83 83Q80 30 80 13T80 -9T81 -13T77 -26L64 -20Q64 -9 64 13T66 56T64 79T59 81T44 76T16 62Z" />
<glyph unicode="&#x4fe8;" glyph-name="null" horiz-adv-x="256" d="M90 142L88 150Q109 157 118 161T145 177T187 201L194 197Q187 188 189 181L167 170L163 175Q138 157 127 150T110 142T90 142ZM129 158L136 162H141Q148 146 149 140T147 125T144 110T142 89L129
95Q132 105 132 110T132 128T129 158ZM153 162L164 179Q171 172 170 164T170 149T171 136T168 128T169 121T171 109T164 101H159Q155 109 156 117T158 132T158 145T157 154T153 162ZM110 134L117 140L134 129Q149 142 168 153T189 166T207 170Q209 155 207 149T191
133T143 91H138Q166 128 183 148L181 150Q162 135 158 131T144 105L118 122L110 134ZM89 56L87 67Q90 70 100 74T120 84T150 97T194 116L178 127Q196 129 199 130T209 128T223 125L222 110Q204 102 188 98T157 87T124 71T89 56ZM136 86T136 88T139 92T143 94T150
91Q156 79 156 68T154 50T150 35T139 10T122 -19T109 -40L93 -50Q101 -33 109 -20T119 -1T127 16T134 36T136 55T137 76ZM69 155T69 156T56 164L60 174L73 173Q84 163 85 160T81 145T64 118T35 79Q44 92 53 95T74 98Q75 61 66 -1L53 3Q59 57 56 85Q52 83 46 77T21
60L11 66Q24 88 33 99T53 124T66 146Z" />
<glyph unicode="&#x4fef;" glyph-name="null" horiz-adv-x="256" d="M130 114L146 128L159 123Q164 112 164 110T158 98T146 86T135 74T124 60T103 53Q112 67 119 76T134 95T146 112L130 114ZM125 65T120 70L123 74Q134 71 140 67T147 49T149 20T149 0T148 -8T141
-19H131L123 -11Q130 -7 130 -6T131 0T132 19T131 44T128 61ZM186 122Q195 132 196 132T206 127Q208 122 210 117T210 100T206 67T208 19T209 -13T207 -21T197 -32Q187 -21 177 2L169 18L190 -2Q194 44 192 64T190 97T190 113T186 122ZM143 67L141 78Q158 86 177
95T240 116L241 101Q207 88 188 81T163 71T143 67ZM158 53L168 67Q175 65 189 57L184 40L179 48Q171 43 158 53ZM80 114L78 124Q94 131 113 141T175 165L176 151Q143 136 123 128T98 117T80 114ZM100 125L111 129Q115 120 117 116T116 89T104 42T93 12T81 -7T63
-28L51 -23Q58 -15 69 2T87 44T98 90T100 125ZM122 194L127 201L152 199Q152 186 149 183T141 177T130 167Q133 174 135 189L122 194ZM47 161L56 173L85 172Q85 157 83 152T68 136T43 107L48 102Q40 91 32 80L16 77Q15 89 15 92T22 102T37 119T55 143T66 162L47
161ZM39 93Q45 102 47 106T51 110T62 106Q68 95 65 71T66 18L55 5L45 11Q47 43 49 91L39 93Z" />
<glyph unicode="&#x4ff1;" glyph-name="null" horiz-adv-x="256" d="M94 154L99 163H117Q119 145 120 121T124 77T125 53T119 39L105 50Q106 61 106 77T106 116T103 140T94 154ZM125 165L116 172Q144 188 158 198Q171 192 184 188Q180 165 178 133T178 78T185
43L176 31L160 35Q129 64 125 90Q144 74 167 50L166 52Q161 95 161 127T164 183Q157 179 125 165ZM132 117L119 119L117 130Q132 140 134 139T150 138Q154 119 151 115T133 94H126L141 119L136 124L132 117ZM123 83L118 88Q130 106 136 106T150 88L143 79L136 85L123
83ZM117 53V64Q138 79 158 94L160 81Q147 70 132 57L117 53ZM75 14L73 25Q78 28 88 32T111 41T147 53T200 68L184 79Q202 81 205 82T215 80T231 76L230 61Q210 54 191 52T154 42T115 28T75 14ZM105 -23V-10Q109 -1 112 1T130 26L142 21Q144 12 139 7T130 1T125
-4T119 -12L125 -19Q118 -24 105 -23ZM166 13T164 16T161 21T163 24T169 26T174 27T185 22T203 10T230 -14L224 -17L227 -23Q219 -24 217 -24T206 -20T173 -4V1L195 0Q187 3 177 8ZM69 151T69 152T56 160L60 170L73 169Q84 159 85 156T81 141T64 112T35 72Q44 85
53 88T74 91Q75 54 66 -10L53 -6Q59 50 56 78Q52 76 46 70T21 53L11 59Q24 81 33 93T53 119T66 142Z" />
<glyph unicode="&#x4ff3;" glyph-name="null" horiz-adv-x="256" d="M103 112L90 114L88 125Q102 135 104 135T120 134Q124 114 122 110T103 89H96L111 114L106 119L103 112ZM91 73L86 78Q98 95 103 95T115 79L109 71L103 75L91 73ZM75 19V30Q100 57 125 87L127
74Q109 48 90 23L75 19ZM112 178L115 190L131 187Q137 176 137 173T137 139T136 79T135 39T137 24T139 13T128 -2Q119 17 116 26T111 48T107 66T106 88Q115 75 117 72T122 52Q124 106 124 134T123 165T121 171T112 178ZM192 131V148Q198 150 212 159L221 155Q224
145 224 140T217 129T210 117L221 119Q227 106 228 102T222 88T209 69Q214 79 230 79L232 64Q219 59 214 57T194 51L187 62Q198 77 202 82T214 101L210 108Q206 99 199 97T183 102Q195 117 200 124T212 134L206 143Q207 135 204 134T192 131ZM172 181L186 195L191
192Q191 178 193 129T196 33T197 -27T197 -46T196 -58L191 -63Q181 -51 178 -39T175 -15T178 3Q179 -4 183 -4Q181 77 180 119T177 165T172 181ZM66 156T66 157T53 165L57 175L70 174Q81 164 82 161T78 146T61 119T32 80Q41 93 50 96T71 99Q72 62 63 0L50 4Q56
58 53 86Q49 84 43 78T18 61L8 67Q21 89 30 100T50 125T63 147Z" />
</font>
</defs>
</svg>
